<?xml version="1.0" encoding="utf-8"?>
<!-- Generator: Adobe Illustrator 24.0.0, SVG Export Plug-In . SVG Version: 6.00 Build 0)  -->
<svg version="1.1" id="Layer_1" xmlns="http://www.w3.org/2000/svg" xmlns:xlink="http://www.w3.org/1999/xlink" x="0px" y="0px"
	 viewBox="0 0 7730 7730" style="enable-background:new 0 0 7730 7730;" xml:space="preserve">
<style type="text/css">
	.st0{display:none;fill:#FAFAFA;}
	.st1{fill:#E0E0E0;}
	.st2{fill:#D9D9D9;}
	.st3{fill:#B8B8B8;}
	.st4{opacity:0.43;}
	.st5{fill:url(#SVGID_1_);}
	.st6{opacity:0.22;}
	.st7{fill:url(#SVGID_2_);}
	.st8{fill:url(#SVGID_3_);}
	.st9{fill:url(#SVGID_4_);}
	.st10{fill:url(#SVGID_5_);}
	.st11{fill:#FB9119;}
	.st12{fill:#0064B5;}
	.st13{fill:#004E8C;}
	.st14{fill:url(#SVGID_6_);}
	.st15{fill:#6A75BA;}
	.st16{fill:#545D94;}
	.st17{fill:#EEA886;}
	.st18{fill:#D9D3C8;}
	.st19{fill:#222538;}
	.st20{fill:#03A9F4;}
	.st21{fill:#A77860;}
	.st22{fill:#C29941;}
	.st23{fill:#FFC955;}
	.st24{fill:#FFFFFF;}
	.st25{filter:url(#Adobe_OpacityMaskFilter);}
	.st26{filter:url(#Adobe_OpacityMaskFilter_1_);}
	.st27{mask:url(#SVGID_7_);fill:url(#SVGID_8_);}
	.st28{fill:url(#SVGID_9_);}
	.st29{filter:url(#Adobe_OpacityMaskFilter_2_);}
	.st30{filter:url(#Adobe_OpacityMaskFilter_3_);}
	.st31{mask:url(#SVGID_10_);fill:url(#SVGID_11_);}
	.st32{fill:url(#SVGID_12_);}
	.st33{filter:url(#Adobe_OpacityMaskFilter_4_);}
	.st34{filter:url(#Adobe_OpacityMaskFilter_5_);}
	.st35{mask:url(#SVGID_13_);fill:url(#SVGID_14_);}
	.st36{fill:url(#SVGID_15_);}
	.st37{filter:url(#Adobe_OpacityMaskFilter_6_);}
	.st38{filter:url(#Adobe_OpacityMaskFilter_7_);}
	.st39{mask:url(#SVGID_16_);fill:url(#SVGID_17_);}
	.st40{fill:url(#SVGID_18_);}
	.st41{fill:#C5C6CF;}
	.st42{fill:#E2E3ED;}
	.st43{fill:#EEA987;}
	.st44{fill:#E6D3CD;}
	.st45{fill:#254380;}
	.st46{fill:#163342;}
	.st47{fill:#EFAA88;}
	.st48{opacity:0.76;}
	.st49{fill:url(#SVGID_19_);}
	.st50{fill:url(#SVGID_20_);}
	.st51{fill:url(#SVGID_21_);}
	.st52{fill:url(#SVGID_22_);}
	.st53{fill:url(#SVGID_23_);}
	.st54{fill:#007BDE;}
	.st55{fill:url(#SVGID_24_);}
	.st56{fill:url(#SVGID_25_);}
	.st57{fill:url(#SVGID_26_);}
	.st58{fill:url(#SVGID_27_);}
	.st59{fill:#DB9C7C;}
	.st60{fill:#4759BB;}
	.st61{fill:#EAD8CF;}
	.st62{fill:#DA9B5B;}
	.st63{fill:#424773;}
	.st64{fill:#292C47;}
	.st65{fill:#152E9B;}
	.st66{fill:#353A3D;}
	.st67{fill:#E2D2CA;}
	.st68{fill:#323657;}
	.st69{fill:#81807E;}
	.st70{fill:#2D3133;}
	.st71{fill:#DECBC4;}
	.st72{fill:#495055;}
	.st73{fill:#3C4145;}
	.st74{fill:#51565C;}
	.st75{fill:#F5E2D9;}
	.st76{fill:#AD9F99;}
	.st77{fill:#69737A;}
	.st78{fill:#D9C9C2;}
	.st79{fill:#152B3D;}
	.st80{fill:#FFC05C;}
	.st81{fill:#E55353;}
</style>
<g>
	<rect x="-864" y="1018.69" class="st0" width="8964" height="5958.26"/>
	<g>
		<g>
			<rect x="3074.83" y="4087.95" class="st1" width="16.49" height="1729.88"/>
		</g>
		<g>
			<rect x="4247.19" y="4087.95" class="st1" width="16.49" height="1729.88"/>
		</g>
		<g>
			<rect x="5419.54" y="4087.95" class="st1" width="16.49" height="1729.88"/>
		</g>
		<rect x="1910.72" y="3874.79" class="st2" width="280.8" height="45.09"/>
		<rect x="1910.72" y="3958.14" class="st2" width="398.31" height="45.09"/>
		<rect x="3070.44" y="3874.79" class="st2" width="329.67" height="45.09"/>
		<rect x="3070.44" y="3958.14" class="st2" width="210.8" height="45.09"/>
		<rect x="4263.68" y="3874.79" class="st2" width="204.29" height="45.09"/>
		<rect x="4263.68" y="3958.14" class="st2" width="238.11" height="45.09"/>
		<rect x="5436.03" y="3874.79" class="st2" width="297.58" height="45.09"/>
		<rect x="5436.03" y="3958.14" class="st2" width="238.11" height="45.09"/>
		<rect x="3083.08" y="5920.31" class="st3" width="186.52" height="60.12"/>
		<rect x="4263.68" y="5920.31" class="st3" width="186.52" height="60.12"/>
		<rect x="5436.03" y="5920.31" class="st3" width="186.52" height="60.12"/>
		<rect x="6608.38" y="5920.31" class="st3" width="186.52" height="60.12"/>
		<g class="st4">
			<linearGradient id="SVGID_1_" gradientUnits="userSpaceOnUse" x1="1910.724" y1="4920.1455" x2="6600.1416" y2="4920.1455">
				<stop  offset="0" style="stop-color:#FFC05C"/>
				<stop  offset="1" style="stop-color:#FF3857"/>
			</linearGradient>
			<path class="st5" d="M6193.87,5303.85c-365.67,0.02-683.53-158.08-1014.91-322.86c-409.11-203.44-832.13-413.79-1395.76-356.2
				c-359.91,36.78-585.81,183.35-785.13,312.67c-180.47,117.09-351.08,220.06-582.17,228.85
				c-373.45,14.21-503.01-145.07-505.18-154.79v-102.21l0,0l0,0c0.47,1.77,82,180.54,504.78,178.42
				c208.2-1.05,361.87-100.75,539.79-216.19c206.77-134.16,441.13-286.21,819.91-324.92c586.23-59.92,1019.62,155.59,1438.74,364.01
				c438.56,218.08,857.04,422.58,1386.2,245.15v84.04C6449.31,5290.39,6328.67,5303.84,6193.87,5303.85z"/>
		</g>
		<g class="st6">
			<linearGradient id="SVGID_2_" gradientUnits="userSpaceOnUse" x1="1910.724" y1="4793.2505" x2="6602.6177" y2="4793.2505">
				<stop  offset="0" style="stop-color:#40D5E6"/>
				<stop  offset="1" style="stop-color:#5577FF"/>
			</linearGradient>
			<path class="st7" d="M3998.97,5284.26c-269.91,0.02-483.98-181.52-693.56-359.21c-158.91-134.73-323.78-272.48-514.09-340.43
				c-580.8-207.37-877.94,171.29-880.6,174.62v-115.19c3.14-3.94,56.14-72.77,209.48-138.47c139.61-59.83,373.84-107.55,696.93,4.82
				c204.69,71.2,374.69,215.33,539.09,354.71c333.5,282.74,621.5,526.93,1121.69,144.45c378.84-289.69,735.96-565.75,1087.34-666.61
				c343.68-98.64,701.97-26.43,1037.36,308.96l-2.48,104.6c-712.43-715.57-1319.04-262.21-2074.49,315.47
				C4325.55,5225,4153.13,5284.24,3998.97,5284.26z"/>
		</g>
	</g>
	<g>
		<linearGradient id="SVGID_3_" gradientUnits="userSpaceOnUse" x1="4560.8398" y1="3306.574" x2="6233.3306" y2="3306.574">
			<stop  offset="0" style="stop-color:#8FD6FF"/>
			<stop  offset="1" style="stop-color:#BFEBFE"/>
		</linearGradient>
		<polygon class="st8" points="4572.74,3674.7 4560.84,3660.73 4758.33,3492.49 4878.26,3492.49 5150.39,3260.66 5320.59,3405.65 
			5446.1,3405.65 5509.54,3459.7 5706.64,3291.79 5806.67,3291.79 6221.43,2938.45 6233.33,2952.42 5813.43,3310.14 
			5713.39,3310.14 5509.54,3483.8 5439.35,3424 5313.84,3424 5150.39,3284.76 4885.02,3510.84 4765.08,3510.84 		"/>
	</g>
	<g>
		<linearGradient id="SVGID_4_" gradientUnits="userSpaceOnUse" x1="4533.021" y1="3091.8318" x2="6200.1001" y2="3091.8318">
			<stop  offset="0" style="stop-color:#8FD6FF"/>
			<stop  offset="1" style="stop-color:#BFEBFE"/>
		</linearGradient>
		<polygon class="st9" points="4601.27,3442.31 4533.02,3442.31 4533.02,3423.96 4593.67,3423.96 4696.16,3321.47 4770.68,3395.99 
			4948.69,3217.98 5003.44,3272.73 5183.93,3092.25 5292.08,3200.4 5415.39,3200.4 5605.72,3010.07 5769.86,3010.07 
			5891.21,2888.73 6039.74,2888.73 6187.12,2741.35 6200.1,2754.33 6047.34,2907.08 5898.81,2907.08 5777.47,3028.43 
			5613.32,3028.43 5423,3218.76 5284.48,3218.76 5183.93,3118.2 5003.44,3298.69 4948.69,3243.93 4770.68,3421.94 4696.16,3347.43 
					"/>
	</g>
	<linearGradient id="SVGID_5_" gradientUnits="userSpaceOnUse" x1="4844.5049" y1="2558.1074" x2="3901.8638" y2="5243.7505">
		<stop  offset="0" style="stop-color:#0064B5"/>
		<stop  offset="1" style="stop-color:#03A9F4"/>
	</linearGradient>
	<path class="st10" d="M6423.97,3484.02c-0.11-0.39-0.22-0.78-0.33-1.17c-175.52-612.16-613.61-1135.4-1218.87-1404.64h-0.06
		c-103.69-46.55-212.5-85.15-325.43-115.55c-282.61-76.07-567.34-93.28-841.04-59.42c-0.22,0.05-0.5,0.05-0.72,0.11l-0.39-0.11
		c-184.16,23.05-363.41,69.05-533.87,136.43c-0.33,0.11-0.67,0.28-1,0.39c-625.98,246.19-1130.89,776.05-1319.05,1475.36
		c-315.86,1173.66,379.34,2380.78,1552.6,2696.52c602.5,162.12,1213.79,57.74,1708.84-240.96l92.42,128.35l435.52-313.63
		l-105.14-146c262.33-263.09,461.51-596.26,564.98-980.81C6540.08,4258.96,6530.33,3855.01,6423.97,3484.02z M4813.01,5494.21
		c-777.89,278.77-1634.52-125.8-1913.29-903.69c-273.59-763.41,110.98-1602.72,860.7-1897.14c14.2-5.57,28.51-10.97,42.99-16.15
		c106.14-38.03,213.73-63.37,321.09-76.73c275.32-34.31,549.24,9.8,793.82,119.06c359.29,160.49,655.16,461.64,798.38,861.36
		c11.25,31.46,21.44,63.04,30.52,94.72C5962.1,4427.14,5559.43,5226.69,4813.01,5494.21z"/>
	<g>
		<g>
			<path class="st11" d="M6857.32,3359.29l-433.69,123.57l-676.43,192.79c-9.08-31.69-19.27-63.26-30.52-94.72
				c-143.23-399.72-439.09-700.88-798.38-861.36l286.4-641.34h0.06l30.13-67.49l153.92-344.7
				C6118.3,1990.51,6646.16,2621.38,6857.32,3359.29z"/>
		</g>
	</g>
	<g>
		<path class="st12" d="M5234.89,2010.72l-30.13,67.49l-286.45,641.34c-244.58-109.26-518.5-153.36-793.81-119.06l-86.26-697.25
			l-9.02-73.12c282.94-35.14,577.31-17.32,869.5,61.31C5015.31,1922.79,5127.8,1962.66,5234.89,2010.72z"/>
	</g>
	<g>
		<path class="st13" d="M4124.5,2600.5c-107.37,13.36-214.95,38.7-321.09,76.73c-14.48,5.18-28.79,10.58-42.99,16.15l-257.16-653.71
			l-77.85-197.86c187.16-74.12,384.02-124.68,586.27-149.96l0.45,0.11l17.1,138.16l9.02,73.12L4124.5,2600.5z"/>
	</g>
	<linearGradient id="SVGID_6_" gradientUnits="userSpaceOnUse" x1="5320.5688" y1="5315.7563" x2="7030.229" y2="7736.1777">
		<stop  offset="0" style="stop-color:#3F51B5"/>
		<stop  offset="1" style="stop-color:#03A9F4"/>
	</linearGradient>
	<polygon class="st14" points="6933.3,6976.95 6066.06,6976.95 5463.39,6139.96 5746.04,5936.42 6034.51,5728.74 6178.17,5928.3 	
		"/>
	<g>
		<g>
			<g>
				<path class="st15" d="M3838.85,1540.26c0,0-31.25-57.36-49.03-78.01c-17.78-20.64-76.84-36.12-68.81-62.5
					c8.03-26.38,87.16-14.91,108.95,10.9c21.79,25.81,88.31,34.98,90.6,45.87c2.29,10.9-23.1,70.53-37.36,80.28
					C3868.96,1546.54,3838.85,1540.26,3838.85,1540.26z"/>
				<path class="st16" d="M3706.02,1588.83c0,0-50.9-40.36-75.41-52.25c-24.51-11.89-84.87-2.64-87.97-30.04
					c-3.11-27.4,74.07-48.3,104.32-33.27c30.25,15.03,94.94-2.97,101.37,6.12c6.43,9.09,6.81,73.9-2.4,88.51
					C3736.71,1582.52,3706.02,1588.83,3706.02,1588.83z"/>
				<path class="st17" d="M3819.07,1693.91c0,0,22.22-151.97,21.22-178.33c-0.29-7.53,45.73-4.73,43.58,9.75
					c-4.68,31.53,16.56,153.68,12.86,176.04C3893.04,1723.73,3817.18,1707.99,3819.07,1693.91z"/>
				<path class="st17" d="M3749.44,1737.59c0,0-41.64-147.56-51.35-172.1c-4.32-10.92,38.11-27.84,43.87-8.36
					c9.03,30.56,76.22,134.47,81.71,156.46C3829.17,1735.58,3753.3,1751.26,3749.44,1737.59z"/>
				<path class="st18" d="M3778.36,1840.13c0,0-44.73-150.81-51.61-166.87l70.53-43.58c0,0,32.69,96.33,37.27,120.42
					C3839.14,1774.19,3778.36,1840.13,3778.36,1840.13z"/>
				<path class="st19" d="M5026.85,1441.68c0,0-68.11,17.22-100.52,68.72c-32.4,51.51-60.41,110.83-121.3,137.74
					c-60.89,26.91-61.28,96.26-56.55,106.95c4.74,10.69,191.81,220.97,232.62,229.09c40.81,8.13,117.24,2.48,109.06-51.55
					c-8.17-54.03-88.26-170.26-43.31-228.89c44.95-58.64,56.28-112.65,56.28-112.65L5026.85,1441.68z"/>
				<path class="st17" d="M5014.97,1693.15c0,0-2-0.66-5.33-0.97c-3.86-0.36-9.51-0.25-15.93,1.91c-1.6,0.54-3.73,1.62-6.23,3.1
					c-16.19,9.53-54.49,35.43-59.66,36.05c-5.98,0.71-0.93-88.63-0.93-88.63s20.39-36.07,22.96-59.82
					C4952.42,1561.03,5014.97,1693.15,5014.97,1693.15z"/>
				<path class="st20" d="M4535.85,1786.52c0,0-74.83-52.47-162.57-36.13c-87.73,16.34-97.19,57.36-127.3,59.21
					c-30.11,1.86-130.74-6.74-213.32,17.34c-82.57,24.08-152.24,26.66-161.71,19.78c-9.46-6.88,51.61-144.5,51.61-163.42
					l-102.36-26.67c0,0-29.24,122.13-40.71,149.67c-12.26,29.44-35.84,84.86-2.29,133.04c33.54,48.17,127.3,26.46,184.07,36.17
					c56.77,9.71,310.86,3.48,355.24,1.11c48.17-2.58,193.53-9.46,193.53-9.46L4535.85,1786.52z"/>
				<path class="st17" d="M5150.46,1514.57c0,0,4.77,73.93-11.64,96.1c-6.56,8.87-11.02,13.7-14.01,16.3
					c-4.21,3.66-7.48,8.29-9.35,13.54c-5.07,14.22-8.19,34.23-12.23,38.5c-4.4,4.66-17.17-7.19-21.8-7.22
					c-4.62-0.03-49.65,38.84-60.41,30.88c-10.77-7.96-76.47-74.62-70.95-120.32c5.52-45.7,25.68-113.94,99.65-113.52
					C5123.69,1469.25,5144.8,1496.19,5150.46,1514.57z"/>
				<path class="st11" d="M4926.93,1867.37c-1.42,3.04-28.62,46.47-58.41,71.67c-12.37,10.47-25.18,17.79-36.78,17.79
					c-3.54,0-6.99,0.05-10.36,0.14c-34.19,0.92-60.46,6.16-106.62,8.46c-47.95,2.39-164.29-4.3-167.72-4.3
					c-3.44,0-36.99,6.02-36.99,6.02c-12.04-14.62,19.78-179.77,25.81-180.63c6.02-0.86,44.73,13.76,81.71,7.74
					c36.99-6.02,51.61-9.46,106.66-73.97c55.05-64.51,110.09-80.85,133.32-75.69c23.23,5.16,69.39,0,69.39,0
					S4928.94,1863.07,4926.93,1867.37z"/>
				<path class="st19" d="M5119.38,1567.51c0,0,13.78,35.72,21.09,40.64c0,0,26.61-28.13,9.52-97.56
					c-17.09-69.42-81.53-75.95-123.14-68.9c-51.79,8.77-103.93,184.01-101.24,201.07c2.69,17.07,60.72-90.56,111.56-81.9
					C5088,1569.52,5088.41,1572.35,5119.38,1567.51z"/>
				<path class="st21" d="M5009.77,1692.31c-3.86-0.36-9.53-0.08-15.94,2.07c-1.6,0.54-3.85,1.33-6.35,2.81
					c-11.9-18.55-22.91-62.53-23.28-64.02C4972.15,1650.1,5009.77,1692.31,5009.77,1692.31z"/>
				<path class="st22" d="M4868.52,1939.04c-12.37,10.47-25.18,17.79-36.78,17.79c-3.54,0-6.99,0.05-10.36,0.14l16.88-136.9
					L4868.52,1939.04z"/>
				<path class="st17" d="M5136.15,2174.79l-33.01,30.03c-28.49-15.26-99.87-66.63-113.6-78.33
					c-14.4-12.27-110.43-92.59-123.62-110.9c-13.3-18.31-30.15-207.52-28.44-216.19c1.71-8.55,83.49-12.94,92.77,7.08
					c0,0,4.27,107.91,6.47,125.98c2.07,18.07,9,34.39,21.38,49.58c17.14,21.03,53.66,69.87,89.01,109.36
					C5055.54,2100.8,5125.26,2165.4,5136.15,2174.79z"/>
				<path class="st23" d="M4936.97,1808.88c0,0,5.16-143.7-41.57-141.92c-59.09,2.25-67.95,74.55-59.93,153.11
					C4835.47,1820.06,4923.78,1820.92,4936.97,1808.88z"/>
				<path class="st17" d="M5120.25,2160.72c0,0,4.4,6.92,10.77,9.07c11,3.72,27.27-3.44,35.3,10.97
					c8.03,14.41-30.72,50.41-41.12,52.59c-10.4,2.18-27.09-14.02-40.12-45.97C5072.04,2155.43,5120.25,2160.72,5120.25,2160.72z"/>
				<path class="st17" d="M5162.9,2176.27c0,0,19.77,15.04,39.75,34.36c17.53,16.95,35.36,39.19,30.86,43.39
					c-6.14,5.74-18.1-13.36-36.6-29.06c-17.03-14.44-16.07-8.87-16.07-8.87s-0.19-1.6,15.35,17.59
					c16.7,20.64,33.96,45.14,28.81,48.68c-3.23,2.22-3.38,2.81-10.67-3.75c3.39,4.63,2.6,6.16,0.8,7.67
					c-9.32,7.81-38.59-18.91-50.21-29.52c8.87,8.21,14.52,15.13,5.51,16.19c-10.31,1.21-50-38.34-65.57-51.21
					C5087.88,2207.71,5162.9,2176.27,5162.9,2176.27z"/>
			</g>
			<path class="st1" d="M4569.48,1793.1c0,0-15.78,113.09-8,168.72c0,0,8.22,6.11,24.59,1.17c0,0,4.09-123.45,13.25-167.27
				C4599.32,1795.72,4594.28,1791.9,4569.48,1793.1z"/>
		</g>
		<g>
			<rect x="4573.22" y="1018.69" class="st1" width="12.21" height="859.93"/>
		</g>
	</g>
	<g>
		
			<rect x="6482.34" y="5472.81" transform="matrix(-1 -1.224647e-16 1.224647e-16 -1 13201.4121 10962.2188)" class="st24" width="236.74" height="16.6"/>
		
			<rect x="6482.34" y="5504.09" transform="matrix(-1 -1.224647e-16 1.224647e-16 -1 13201.4121 11077.9424)" class="st24" width="236.74" height="69.77"/>
		
			<rect x="6371.13" y="5597.31" transform="matrix(-1 -1.224647e-16 1.224647e-16 -1 12881.9238 11205.0527)" class="st24" width="139.66" height="10.42"/>
		
			<rect x="6371.13" y="5612.3" transform="matrix(-1 -1.224647e-16 1.224647e-16 -1 12881.9238 11252.8389)" class="st24" width="139.66" height="28.24"/>
		
			<rect x="6757.95" y="5383.37" transform="matrix(-1 -1.224647e-16 1.224647e-16 -1 13526.332 10962.2139)" class="st24" width="10.42" height="195.48"/>
	</g>
	<defs>
		<filter id="Adobe_OpacityMaskFilter" filterUnits="userSpaceOnUse" x="263.55" y="4061.49" width="297.28" height="144.5">
			<feFlood  style="flood-color:white;flood-opacity:1" result="back"/>
			<feBlend  in="SourceGraphic" in2="back" mode="normal"/>
		</filter>
	</defs>
	<mask maskUnits="userSpaceOnUse" x="263.55" y="4061.49" width="297.28" height="144.5" id="SVGID_7_">
		<g class="st25">
			<defs>
				<filter id="Adobe_OpacityMaskFilter_1_" filterUnits="userSpaceOnUse" x="263.55" y="4061.49" width="297.28" height="144.5">
					<feFlood  style="flood-color:white;flood-opacity:1" result="back"/>
					<feBlend  in="SourceGraphic" in2="back" mode="normal"/>
				</filter>
			</defs>
			<mask maskUnits="userSpaceOnUse" x="263.55" y="4061.49" width="297.28" height="144.5" id="SVGID_7_">
				<g class="st26">
				</g>
			</mask>
			<linearGradient id="SVGID_8_" gradientUnits="userSpaceOnUse" x1="397.5611" y1="3426.7627" x2="422.5993" y2="4636.9014">
				<stop  offset="0" style="stop-color:#FFFFFF"/>
				<stop  offset="1" style="stop-color:#000000"/>
			</linearGradient>
			<polygon class="st27" points="333.22,4205.98 560.83,4205.98 491.16,4061.49 263.55,4061.49 			"/>
		</g>
	</mask>
	<linearGradient id="SVGID_9_" gradientUnits="userSpaceOnUse" x1="397.5611" y1="3426.7627" x2="422.5993" y2="4636.9014">
		<stop  offset="0" style="stop-color:#40D5E6"/>
		<stop  offset="1" style="stop-color:#5577FF"/>
	</linearGradient>
	<polygon class="st28" points="333.22,4205.98 560.83,4205.98 491.16,4061.49 263.55,4061.49 	"/>
	<defs>
		<filter id="Adobe_OpacityMaskFilter_2_" filterUnits="userSpaceOnUse" x="157.05" y="4061.49" width="123.9" height="144.5">
			<feFlood  style="flood-color:white;flood-opacity:1" result="back"/>
			<feBlend  in="SourceGraphic" in2="back" mode="normal"/>
		</filter>
	</defs>
	<mask maskUnits="userSpaceOnUse" x="157.05" y="4061.49" width="123.9" height="144.5" id="SVGID_10_">
		<g class="st29">
			<defs>
				<filter id="Adobe_OpacityMaskFilter_3_" filterUnits="userSpaceOnUse" x="157.05" y="4061.49" width="123.9" height="144.5">
					<feFlood  style="flood-color:white;flood-opacity:1" result="back"/>
					<feBlend  in="SourceGraphic" in2="back" mode="normal"/>
				</filter>
			</defs>
			<mask maskUnits="userSpaceOnUse" x="157.05" y="4061.49" width="123.9" height="144.5" id="SVGID_10_">
				<g class="st30">
				</g>
			</mask>
			<linearGradient id="SVGID_11_" gradientUnits="userSpaceOnUse" x1="204.4541" y1="3430.7581" x2="229.4923" y2="4640.896">
				<stop  offset="0" style="stop-color:#FFFFFF"/>
				<stop  offset="1" style="stop-color:#000000"/>
			</linearGradient>
			<polygon class="st31" points="226.72,4205.98 280.95,4205.98 211.28,4061.49 157.05,4061.49 			"/>
		</g>
	</mask>
	<linearGradient id="SVGID_12_" gradientUnits="userSpaceOnUse" x1="204.4541" y1="3430.7581" x2="229.4923" y2="4640.896">
		<stop  offset="0" style="stop-color:#40D5E6"/>
		<stop  offset="1" style="stop-color:#5577FF"/>
	</linearGradient>
	<polygon class="st32" points="226.72,4205.98 280.95,4205.98 211.28,4061.49 157.05,4061.49 	"/>
	<defs>
		<filter id="Adobe_OpacityMaskFilter_4_" filterUnits="userSpaceOnUse" x="6344.15" y="1510.09" width="252.41" height="97.35">
			<feFlood  style="flood-color:white;flood-opacity:1" result="back"/>
			<feBlend  in="SourceGraphic" in2="back" mode="normal"/>
		</filter>
	</defs>
	<mask maskUnits="userSpaceOnUse" x="6344.15" y="1510.09" width="252.41" height="97.35" id="SVGID_13_">
		<g class="st33">
			<defs>
				<filter id="Adobe_OpacityMaskFilter_5_" filterUnits="userSpaceOnUse" x="6344.15" y="1510.09" width="252.41" height="97.35">
					<feFlood  style="flood-color:white;flood-opacity:1" result="back"/>
					<feBlend  in="SourceGraphic" in2="back" mode="normal"/>
				</filter>
			</defs>
			<mask maskUnits="userSpaceOnUse" x="6344.15" y="1510.09" width="252.41" height="97.35" id="SVGID_13_">
				<g class="st34">
				</g>
			</mask>
			<linearGradient id="SVGID_14_" gradientUnits="userSpaceOnUse" x1="6609.3076" y1="1038.9745" x2="6318.958" y2="2125.0989">
				<stop  offset="0" style="stop-color:#FFFFFF"/>
				<stop  offset="1" style="stop-color:#000000"/>
			</linearGradient>
			<polygon class="st35" points="6344.15,1607.44 6596.56,1607.44 6596.56,1510.09 6344.15,1510.09 			"/>
		</g>
	</mask>
	<linearGradient id="SVGID_15_" gradientUnits="userSpaceOnUse" x1="6609.3076" y1="1038.9745" x2="6318.958" y2="2125.0989">
		<stop  offset="0" style="stop-color:#40D5E6"/>
		<stop  offset="1" style="stop-color:#5577FF"/>
	</linearGradient>
	<polygon class="st36" points="6344.15,1607.44 6596.56,1607.44 6596.56,1510.09 6344.15,1510.09 	"/>
	<defs>
		<filter id="Adobe_OpacityMaskFilter_6_" filterUnits="userSpaceOnUse" x="6344.15" y="1464.66" width="252.41" height="18.32">
			<feFlood  style="flood-color:white;flood-opacity:1" result="back"/>
			<feBlend  in="SourceGraphic" in2="back" mode="normal"/>
		</filter>
	</defs>
	<mask maskUnits="userSpaceOnUse" x="6344.15" y="1464.66" width="252.41" height="18.32" id="SVGID_16_">
		<g class="st37">
			<defs>
				<filter id="Adobe_OpacityMaskFilter_7_" filterUnits="userSpaceOnUse" x="6344.15" y="1464.66" width="252.41" height="18.32">
					<feFlood  style="flood-color:white;flood-opacity:1" result="back"/>
					<feBlend  in="SourceGraphic" in2="back" mode="normal"/>
				</filter>
			</defs>
			<mask maskUnits="userSpaceOnUse" x="6344.15" y="1464.66" width="252.41" height="18.32" id="SVGID_16_">
				<g class="st38">
				</g>
			</mask>
			<linearGradient id="SVGID_17_" gradientUnits="userSpaceOnUse" x1="6566.7461" y1="1113.2429" x2="6341.874" y2="1954.4324">
				<stop  offset="0" style="stop-color:#FFFFFF"/>
				<stop  offset="1" style="stop-color:#000000"/>
			</linearGradient>
			<polygon class="st39" points="6344.15,1482.98 6596.56,1482.98 6596.56,1464.66 6344.15,1464.66 			"/>
		</g>
	</mask>
	<linearGradient id="SVGID_18_" gradientUnits="userSpaceOnUse" x1="6566.7461" y1="1113.2429" x2="6341.874" y2="1954.4324">
		<stop  offset="0" style="stop-color:#40D5E6"/>
		<stop  offset="1" style="stop-color:#5577FF"/>
	</linearGradient>
	<polygon class="st40" points="6344.15,1482.98 6596.56,1482.98 6596.56,1464.66 6344.15,1464.66 	"/>
	<g>
		<polygon class="st41" points="6298.14,5080.21 7260.3,5018.34 7265.58,5580.82 6399.75,5580.82 		"/>
		<polygon class="st42" points="6339.81,5027.81 7260.3,5018.34 7265.58,5580.82 6399.75,5580.82 		"/>
		<g>
			<path class="st43" d="M6325.22,4372.94c0,0,21.88,24.08,30.49,13.48c8.61-10.6,18.4-25.65,18.4-25.65L6325.22,4372.94z"/>
			<path class="st43" d="M6281.99,4142.87l28.16,130.91c-8.67-10.66-23.87-27.69-28.81-22.63c-7.04,7.23,16.45,42.95,20.48,58.33
				c3.69,14.09,8.54,36.08,14.62,49.11l10.64,21.42l47.04-19.24c0,0-2.19-93.33-3.96-114.34c-2.88-34.16-68.62-108.19-74.99-108.95
				C6283.66,4136.09,6281.99,4142.87,6281.99,4142.87z"/>
		</g>
		<path class="st44" d="M7245.81,6620.6c0,0,13.25,31.93,24.41,44.58c11.16,12.65,53.92,35.27,54.15,72.85
			c0.25,40.75-72.07,29.44-100.35,27.95c-28.28-1.49-30.43-23.26-42.33-46.33c-11.91-23.08-23.91-19.17-26.15-37.77
			c-2.23-18.61,9.12-60.27,9.12-60.27L7245.81,6620.6z"/>
		<g>
			<path class="st44" d="M6579.23,6627.91c0,0-39.4,41.37-79.39,50.04c-40,8.67-67.98,19.72-68.28,43.46
				c-0.3,23.74,115.1,39.39,160.87,15.45c68.31-35.72,75.25-24.95,82.83-42.8c7.57-17.85-9.1-65.6-8.6-71.28
				C6667.27,6615.76,6579.23,6627.91,6579.23,6627.91z"/>
		</g>
		<g>
			<path class="st45" d="M6684.31,5433.29c0,0-41.38,300.58-58.28,402.2c-19.76,118.81-26.46,216.98-31.97,278.47
				c-6.93,77.35-20.23,484.03-25.09,506.64c-4.85,22.62,108.27,11.34,108.27,11.34s82.05-527.36,102.7-609.73
				c19.22-76.7,72.1-392.9,89.64-371.96c17.54,20.94,127.68,390.9,140.67,451.39c12.99,60.49,138.25,534.08,138.25,534.08
				s93.63,20.12,117.44,1.16c0,0-81.7-435.09-89.98-548.5c-3.15-43.22-28.76-515.27-101.85-706.5
				C7035.49,5280.83,6684.31,5433.29,6684.31,5433.29z"/>
		</g>
		<path class="st23" d="M6805.72,4712.39c0,0-109.5,22.64-122.49,34.15c-14.1,12.25-38.98,132.18-40.46,165.59
			c-1.49,33.41,13.2,172.96,27.3,224.93c14.11,51.97,10.89,323.2,4.57,365.87c0,0,219.64,42.96,436.42,14.75
			c0,0-37.47-235.56-28.79-306.77c11.11-91.23,37.86-301.41,37.86-301.41s-28.96-141.52-48.26-157.85s-153.48-42.9-153.48-42.9
			L6805.72,4712.39z"/>
		<path class="st17" d="M6850.99,4373.81c0,0-131.72-48.74-123.48,126.3c8.23,175.04,39.1,192.83,125.75,168.39
			c86.65-24.45,93.91-134.92,105.19-188.06C6969.73,4427.29,6894.06,4381.45,6850.99,4373.81z"/>
		<path class="st17" d="M6784.03,4740.11c0,0,68.43,55.5,134.35-31.37c0,0-2.9-70.46,17.26-136.28s-137.92,87.75-137.92,87.75
			c1.66,1.17,1.98,7.75,1.03,16.92c-0.8,7.78-2.51,17.42-5.07,27.2C6787.9,4726.34,6789.24,4722.43,6784.03,4740.11z"/>
		<path class="st46" d="M6940.14,4567.25c0,0,0.38-46.76-19.07-51.06c-19.45-4.31-29.46,22.73-29.46,22.73l-15.66-0.84
			c0,0,13.99-47.38-4.54-58.25c-18.54-10.86-129.43-1.32-143.35-17.27c-13.92-15.95,6.27-110.7,36.52-120
			c30.26-9.3,112.9-28.16,165.39,18.58c0,0,47.02,0.31,46.92,56.65C6976.81,4455,6955.96,4541.89,6940.14,4567.25z"/>
		<path class="st21" d="M6793.67,4704.34c102.1-17.17,117.36-75.23,117.58-76.13c-39.69,51.18-112.51,48.93-112.51,48.93
			C6797.94,4684.92,6796.23,4694.56,6793.67,4704.34z"/>
		<path class="st17" d="M6899.06,4496.33c5.82-15.43,38.67-13.48,35.31,10.97c-3.37,24.45-30.52,62.11-41.42,55.05
			C6882.04,4555.29,6891.03,4517.6,6899.06,4496.33z"/>
		<path class="st17" d="M6953.9,4716.24c0,0-61.75,124.82-152.66,114.72c-90.9-10.1-38.21-97.2-29.52-111.1
			C6771.72,4719.86,6826.27,4684.85,6953.9,4716.24z"/>
		<g>
			<path class="st23" d="M6380.25,4615.47c-25.67-49.97-82.11-242.95-82.11-242.95l79.89-16.71c0,0,42.5,97.11,62.73,164.32
				c9.86,32.75,23.08,64.91,26.02,70.08c2.94,5.17,139.05,108.24,153.86,115.82c14.84,7.58,71.82,27.32,99.07,55
				c27.25,27.65,13.98,65.55,13.98,65.55c-57.78,74.32-164.51-22.31-164.51-22.31S6416.23,4685.5,6380.25,4615.47z"/>
		</g>
		<path class="st23" d="M6513.49,4758.35c0,0,126.09,137.7,130.44,188.72c3.1,36.42,25.82-109.51,25.82-109.51L6513.49,4758.35z"/>
		
			<rect x="6399.75" y="4986.14" transform="matrix(-1 -1.224647e-16 1.224647e-16 -1 13743.3232 10566.9629)" class="st11" width="943.83" height="594.69"/>
		<path class="st47" d="M7196.85,5610.71c0,0,4.47-10.92,4.1-16.64c0,0-1.47-10.37-2.08-17.8c-0.18-2.36-0.29-4.42-0.22-5.76
			c0.29-5.59,2.59-17.78-0.49-31.39c-3.07-13.6-18.79-60.58-18.79-60.58l-42.41,6.3l-36.85-5c0,0-27.47,80.17-26.07,93.18
			c0.15,1.27,0.33,2.52,0.6,3.68c2.25,10.91,8.51,18.07,10.34,23.66c0.69,2.05,8.87,21.95,15.01,23.86
			c8.52,2.66,15.5,1.04,20.23-2.84c0,0,16.91,4.47,27.62-0.42c0,0,15.47,4.62,27.06-5.26
			C7174.9,5615.7,7191.13,5618.62,7196.85,5610.71z"/>
		<path class="st23" d="M7011.57,4748.62c-14.36,5.56-29.57,40.3-18.26,108.44c12.14,73.1,36.27,104.32,45.97,121.41
			c9.7,17.08,69.67,130.97,69.45,147.82c-0.58,43.87,0.44,159.69-0.95,168.56c-2.37,15.14-12.15,189.65-12.15,189.65l92.64,22.42
			c0,0,18.26-196.78,26.52-256.26c3.31-23.86,10.47-89.33,2.21-154.56c-7.96-62.93-53.55-202.03-59.66-213.1
			C7151.23,4871.93,7106.51,4711.86,7011.57,4748.62z"/>
	</g>
	<path class="st20" d="M2587.72,5982.81H913.5c-30.21,0-54.7-24.49-54.7-54.7v-2001c0-30.21,24.49-54.7,54.7-54.7h1674.22
		c30.21,0,54.7,24.49,54.7,54.7v2001C2642.42,5958.32,2617.93,5982.81,2587.72,5982.81z"/>
	<g class="st48">
		<g>
			<g>
				<path class="st24" d="M1497.01,4199.35c-38.91-108.8-142.89-175.63-252.49-172.34c-26.53,0.8-53.39,5.71-79.75,15.13
					c-79.83,28.56-137.07,92.14-160.59,167.26c-16.3,52.06-16.4,109.66,3.39,164.99c1.96,5.5,4.1,10.92,6.4,16.2
					c10.41,23.97,24.07,45.64,40.29,64.7c68.01,79.96,180.86,113.75,285.56,76.31C1474.98,4483.25,1545.35,4334.5,1497.01,4199.35z
					 M1317.92,4470.34c-78.49,28.08-163.1,2.73-214.09-57.2c-12.15-14.28-22.4-30.54-30.2-48.51c-1.72-3.97-3.33-8.02-4.8-12.15
					c-14.83-41.48-14.75-84.66-2.53-123.69c17.63-56.33,60.54-104,120.39-125.4c19.76-7.06,39.9-10.74,59.79-11.35
					c82.16-2.48,160.13,47.63,189.31,129.21C1472.02,4322.58,1419.25,4434.1,1317.92,4470.34z"/>
			</g>
		</g>
	</g>
	<linearGradient id="SVGID_19_" gradientUnits="userSpaceOnUse" x1="1750.6089" y1="3397.8474" x2="1750.6089" y2="8593.9424">
		<stop  offset="0" style="stop-color:#626E7A"/>
		<stop  offset="1" style="stop-color:#F5F5F5"/>
	</linearGradient>
	<path class="st49" d="M2619.13,3719.88H882.09c-12.86,0-23.29-10.43-23.29-23.29v-109.74c0-12.86,10.43-23.29,23.29-23.29h1737.04
		c12.86,0,23.29,10.43,23.29,23.29v109.74C2642.42,3709.46,2631.99,3719.88,2619.13,3719.88z"/>
	<g>
		<g>
			<g>
				<g>
					<g>
						<polygon class="st24" points="1996.7,4977.73 2269.15,4993.1 2486.32,4693.54 2471.64,4682.9 2260.28,4974.43 1988.9,4959.13 
							1677.73,5313.97 1351.97,5243.38 1030.1,5547.09 1042.54,5560.27 1357.47,5263.13 1684.33,5333.95 						"/>
					</g>
				</g>
			</g>
		</g>
		<g>
			<g>
				<g>
					<path class="st24" d="M1728.29,5313.73c5.65,26.1-10.93,51.84-37.03,57.49c-26.1,5.65-51.84-10.93-57.5-37.03
						c-5.65-26.1,10.93-51.84,37.03-57.5C1696.9,5271.05,1722.64,5287.63,1728.29,5313.73z"/>
				</g>
			</g>
		</g>
		<g>
			<g>
				<g>
					<path class="st24" d="M2039.97,4961.25c5.65,26.1-10.93,51.84-37.03,57.49c-26.1,5.65-51.84-10.93-57.49-37.03
						c-5.65-26.1,10.93-51.84,37.03-57.5C2008.57,4918.57,2034.31,4935.14,2039.97,4961.25z"/>
				</g>
			</g>
		</g>
		<g>
			<g>
				<g>
					<path class="st24" d="M2309.36,4972.03c5.65,26.1-10.93,51.84-37.03,57.49c-26.1,5.65-51.84-10.93-57.49-37.03
						c-5.65-26.1,10.93-51.84,37.03-57.49C2277.97,4929.35,2303.71,4945.93,2309.36,4972.03z"/>
				</g>
			</g>
		</g>
		<g>
			<g>
				<g>
					<path class="st24" d="M1401.72,5247.49c5.65,26.1-10.93,51.84-37.03,57.5c-26.1,5.65-51.84-10.93-57.5-37.03
						c-5.65-26.1,10.93-51.84,37.03-57.49C1370.33,5204.81,1396.07,5221.39,1401.72,5247.49z"/>
				</g>
			</g>
		</g>
	</g>
	<g>
		<rect x="1306.09" y="5437.48" class="st24" width="197.97" height="38.12"/>
	</g>
	<g>
		<rect x="1443.77" y="5046.27" class="st24" width="197.97" height="38.12"/>
	</g>
	<g>
		<rect x="1854.43" y="5318.89" class="st24" width="197.97" height="38.12"/>
	</g>
	<g>
		<rect x="2032" y="4783.51" class="st24" width="197.97" height="38.12"/>
	</g>
	<g>
		<rect x="2319.53" y="5102.52" class="st24" width="197.97" height="38.12"/>
	</g>
	<g>
		<g>
			<linearGradient id="SVGID_20_" gradientUnits="userSpaceOnUse" x1="1670.2117" y1="4383.7642" x2="1728.8835" y2="4383.7642">
				<stop  offset="0" style="stop-color:#D5E4FF"/>
				<stop  offset="1" style="stop-color:#EDFFFE"/>
			</linearGradient>
			<rect x="1670.21" y="4220.69" class="st50" width="58.67" height="326.15"/>
		</g>
		<g>
			<linearGradient id="SVGID_21_" gradientUnits="userSpaceOnUse" x1="1773.2244" y1="4340.2871" x2="1831.8977" y2="4340.2871">
				<stop  offset="0" style="stop-color:#D5E4FF"/>
				<stop  offset="1" style="stop-color:#EDFFFE"/>
			</linearGradient>
			<rect x="1773.22" y="4133.73" class="st51" width="58.67" height="413.1"/>
		</g>
		<g>
			<linearGradient id="SVGID_22_" gradientUnits="userSpaceOnUse" x1="1881.3242" y1="4363.0322" x2="1939.999" y2="4363.0322">
				<stop  offset="0" style="stop-color:#D5E4FF"/>
				<stop  offset="1" style="stop-color:#EDFFFE"/>
			</linearGradient>
			<rect x="1881.32" y="4179.23" class="st52" width="58.67" height="367.61"/>
		</g>
		<g>
			<linearGradient id="SVGID_23_" gradientUnits="userSpaceOnUse" x1="1992.3943" y1="4415.8389" x2="2051.0676" y2="4415.8389">
				<stop  offset="0" style="stop-color:#D5E4FF"/>
				<stop  offset="1" style="stop-color:#EDFFFE"/>
			</linearGradient>
			<rect x="1992.39" y="4284.84" class="st53" width="58.67" height="262"/>
		</g>
		<g>
			<rect x="1670.21" y="4339.99" class="st54" width="58.67" height="206.85"/>
		</g>
		<g>
			<rect x="1773.22" y="4284.84" class="st54" width="58.67" height="262"/>
		</g>
		<g>
			<rect x="1881.32" y="4313.69" class="st54" width="58.67" height="233.15"/>
		</g>
		<g>
			<rect x="1992.39" y="4383.77" class="st54" width="58.67" height="163.07"/>
		</g>
	</g>
	<g>
		<g>
			<linearGradient id="SVGID_24_" gradientUnits="userSpaceOnUse" x1="2105.46" y1="4437.4321" x2="2164.1333" y2="4437.4321">
				<stop  offset="0" style="stop-color:#D5E4FF"/>
				<stop  offset="1" style="stop-color:#EDFFFE"/>
			</linearGradient>
			<rect x="2105.46" y="4328.02" class="st55" width="58.67" height="218.82"/>
		</g>
		<g>
			<linearGradient id="SVGID_25_" gradientUnits="userSpaceOnUse" x1="2208.4741" y1="4356.9604" x2="2267.1475" y2="4356.9604">
				<stop  offset="0" style="stop-color:#D5E4FF"/>
				<stop  offset="1" style="stop-color:#EDFFFE"/>
			</linearGradient>
			<rect x="2208.47" y="4167.08" class="st56" width="58.67" height="379.76"/>
		</g>
		<g>
			<linearGradient id="SVGID_26_" gradientUnits="userSpaceOnUse" x1="2316.574" y1="4391.7905" x2="2375.2458" y2="4391.7905">
				<stop  offset="0" style="stop-color:#D5E4FF"/>
				<stop  offset="1" style="stop-color:#EDFFFE"/>
			</linearGradient>
			<rect x="2316.57" y="4236.74" class="st57" width="58.67" height="310.1"/>
		</g>
		<g>
			<linearGradient id="SVGID_27_" gradientUnits="userSpaceOnUse" x1="2427.6426" y1="4307.3076" x2="2486.3159" y2="4307.3076">
				<stop  offset="0" style="stop-color:#D5E4FF"/>
				<stop  offset="1" style="stop-color:#EDFFFE"/>
			</linearGradient>
			<rect x="2427.64" y="4067.78" class="st58" width="58.67" height="479.06"/>
		</g>
		<g>
			<rect x="2105.46" y="4430.26" class="st54" width="58.67" height="116.58"/>
		</g>
		<g>
			<rect x="2208.47" y="4373.1" class="st54" width="58.67" height="173.74"/>
		</g>
		<g>
			<rect x="2316.57" y="4391.79" class="st54" width="58.67" height="155.05"/>
		</g>
		<g>
			<rect x="2427.64" y="4190.8" class="st54" width="58.67" height="356.04"/>
		</g>
	</g>
	<g>
		<g>
			<g>
				<g>
					<path class="st17" d="M668.46,5414.41c0,0,9.11,14.93,10.25,27.12c0.9,9.64,9.01,24.06,12.53,32.03
						c3.51,7.97,14.81,44.02,15.22,53.39c0.17,3.83-8.39,28.01-7.18,35.74c1.21,7.73,5.64,23.05-1.3,24.07
						c-6.94,1.02-14.82-11.54-14.82-11.54s0.66,7.12-5.22,9.84c-11.42,5.29-17.47,0.63-17.47,0.63s-4.21,7.83-9.5,8.88
						c-11.66,2.32-17.37-2.35-17.37-2.35s-5.14,4.39-13.2,4.24c-10.3-0.2-14.64-9.1-14.64-9.1s-13.06,2.64-16.84-3.45
						c-3.78-6.09-3.13-12.59-4.7-18.1c-1.57-5.52-0.38-55.36,16.55-91.24c16.93-35.89-4.31-70.88-4.31-70.88L668.46,5414.41z"/>
				</g>
			</g>
		</g>
		<g>
			<g>
				<path class="st59" d="M685,5570.53c0,0,1.16-44.72-10.61-54.24c-11.77-9.52-13.11,6.62-13.11,6.62s1.6-15.95-11.26-18.1
					c-12.86-2.15-13.4,16.79-13.4,16.79s-2.11-12.29-15.62-9.77c-13.51,2.53-10.29,18.22-10.29,18.22s-12.9-15.39-21.27-0.61
					c-14.13,24.96-0.51,54.44-0.51,54.44s3.98,6.76,16.84,3.45c0,0,8.6,17.32,27.83,4.86c0,0,19.7,10.84,26.88-6.53
					C660.47,5585.67,682.18,5595.99,685,5570.53z"/>
			</g>
		</g>
		<path class="st60" d="M820.15,4770.25c0,0-76.55,255.13-102.41,349.25c-8.11,29.52-27.74,311.39-31.21,322.74
			s-100.56,26.9-100.56,26.9s11.77-352.62,12.86-371.85c1.1-19.23,107.14-413.01,137.97-427.06c23.1-10.53,35.3-1.82,64.41,19.79
			C842.07,4720.35,820.15,4770.25,820.15,4770.25z"/>
		<path class="st47" d="M1769.11,4364.1c0,0-1.67,9.91-4.52,13.89c0,0-5.73,6.84-9.51,11.95c-1.19,1.62-2.2,3.07-2.75,4.07
			c-2.31,4.17-6.12,14.03-14.48,22.5c-8.34,8.46-40.85,35.38-40.85,35.38l-27.85-23.64l-28.91-12.96c0,0,16.19-70.36,23.05-79.15
			c0.67-0.86,1.37-1.68,2.09-2.4c6.53-6.88,14.28-9.25,18.12-12.47c1.42-1.17,16.29-11.89,21.59-10.51
			c7.36,1.91,11.69,6.22,13.37,11.15c0,0,14.25,4.38,19.79,12.74c0,0,13.27,3.62,17.21,15.98
			C1755.47,4350.63,1768.53,4355.8,1769.11,4364.1z"/>
		<g>
			<g>
				<path class="st61" d="M1229.12,4838.59l19.77-7.31c0,0-24.67-57.9-35.43-56.49c-12.4,1.62-27.88,5.71-27.88,5.71
					L1229.12,4838.59z"/>
			</g>
		</g>
		<g>
			<g>
				<path class="st62" d="M1233.64,4848.58c-2.53-1.88-42.04-77.69-42.04-77.69l-84.42,11.47l45.62,89.79L1233.64,4848.58z"/>
			</g>
		</g>
		<g>
			<g>
				<path class="st63" d="M758.04,6512.27c0,0-6.98,48.44-7.85,55.71c-0.87,7.28-77.63-4.28-77.63-4.28l-6.21-57.66
					C666.35,6506.03,748.44,6505.43,758.04,6512.27z"/>
			</g>
		</g>
		<g>
			<g>
				<path class="st64" d="M751,6561.82c0,0,24.32,29.19,47.84,41.91c23.52,12.72,60.48,17.76,74.39,30.93
					c10.04,9.5,36.57,50.43-61.12,49.6c-97.69-0.83-144.78,5.78-155.25-9.91c-10.47-15.69,15.14-115.81,15.14-115.81
					S695.14,6566.86,751,6561.82z"/>
			</g>
		</g>
		<g>
			<g>
				<path class="st63" d="M1307.98,6512.27c0,0-6.98,48.44-7.85,55.71c-0.87,7.28-77.62-4.28-77.62-4.28l-6.22-57.66
					C1216.29,6506.03,1298.39,6505.43,1307.98,6512.27z"/>
			</g>
		</g>
		<g>
			<g>
				<path class="st64" d="M1300.95,6561.82c0,0,24.32,29.19,47.84,41.91c23.52,12.72,110.07,23.17,123.98,36.34
					c10.04,9.51,26.74,47.77-110.71,44.19c-97.65-2.54-144.78,5.78-155.25-9.91c-10.46-15.69,15.15-115.81,15.15-115.81
					S1243.74,6567.43,1300.95,6561.82z"/>
			</g>
		</g>
		<g>
			<g>
				<path class="st65" d="M821.59,5267.71c0,0-72.12,114.58-66.74,218.15c5.38,103.57-26.15,216.65-36.98,324.85
					c-12.08,120.62-61.5,406.18-63.3,470.7c-1.79,64.52,7.67,270.55,7.67,270.55l98.94,2.26c0,0,83.1-499.22,104.62-550.16
					c21.52-50.94,128.25-414.09,131.83-454.84C1001.23,5508.49,821.59,5267.71,821.59,5267.71z"/>
			</g>
		</g>
		<g>
			<g>
				<g>
					<path class="st65" d="M1201.24,5302.44c0,0,54.35,283.88,61.52,347.27c7.17,63.39,11.96,306.78,15.54,346.4
						c3.59,39.62,33.51,517.27,43.04,577.33h-126.49c0,0-97.1-348.1-97.1-512.8c0-164.7-75.02-358.06-123.44-466.73
						c-48.42-108.67-159.26-111.24-189.03-312.85C785.3,5281.05,1160.94,5238.49,1201.24,5302.44z"/>
				</g>
			</g>
		</g>
		<g>
			<g>
				<path class="st17" d="M941.94,4304.37c0,0,96.8-36.16,141.43,37.53c44.63,73.69,40.33,221.21-8.46,239.35
					c-48.79,18.14-122.09,8.65-147.07-37.45c-24.98-46.11-47.54-112.77-46.45-157.31C882.47,4341.94,916.52,4317.23,941.94,4304.37z
					"/>
			</g>
		</g>
		<g>
			<g>
				<path class="st17" d="M1064.4,4584.62c0,0-4.03,26.14,2.63,39.01c6.66,12.87-125.41,13.21-125.41,13.21
					s-10.72-70.03-31.05-129.2C890.25,4448.48,1064.4,4584.62,1064.4,4584.62z"/>
			</g>
		</g>
		<g>
			<g>
				<path class="st66" d="M910.58,4507.65c0,0,9.11,15.04,46.32,9.21c37.21-5.84,82.6-55.34,98.14-60.78
					c15.54-5.43,15.68-14.56,15.68-14.56l9.73,14.21l16.5,1.04c0,0-15.05-44.29,7.65-62.34c22.7-18.06-23.56-143.33-142.89-101.63
					c0,0-91.65,25.26-88.32,77.39C876.72,4422.31,890.07,4481.69,910.58,4507.65z"/>
			</g>
		</g>
		<g>
			<g>
				<path class="st67" d="M1074.87,4622.08c0,0-0.42-24.6-11.57-26.95c-11.15-2.36-123.07-13.12-136.76-7.74v28.66
					C926.55,4616.04,952.92,4632.27,1074.87,4622.08z"/>
			</g>
		</g>
		<g>
			<g>
				<path class="st17" d="M1068.25,4422.56c-2.09-8.75-24.32-33.73-32.83-6.98c-8.51,26.75,12.86,62.73,24.78,59.65
					C1072.13,4472.15,1073.54,4444.72,1068.25,4422.56z"/>
			</g>
		</g>
		<g>
			<g>
				<path class="st68" d="M1519.07,4912.72c-0.05-0.02-0.11-0.03-0.18-0.01C1519.65,4913.04,1519.76,4913.07,1519.07,4912.72z"/>
			</g>
		</g>
		<g>
			<g>
				<g>
					<path class="st60" d="M1259.99,4659.33c-76.74-10.12-185.12-37.25-185.12-37.25l-148.33-6.05c0,0-136.13,29.97-189.74,54.18
						c-5.09,2.3-5.11,121.45-19.06,152.69l44.45,93.78c0,0,25.68,185.75,31,268.37c2.45,37.93-52.95,355.63-52.95,355.63
						s59.36,17.48,160.6,28.64c101.23,11.16,354.17-4.04,355.76-15.99c1.6-11.96-48.98-445.22-51.22-467.66
						c-3.44-34.43,11.87-217.43,11.87-217.43c23.37-18.13,228.59-113.39,284.58-163.03c14.98-13.28,78.22-74.87,96.2-96.13
						c63.66-75.28,115.84-139.85,122.2-153.77c7.21-7.92-69.17-49.44-76.1-51.75c-6.06-2.02-92.11,109.48-125.24,145.35
						c-14.77,15.99-76.16,60.65-76.16,60.65S1308,4662.09,1259.99,4659.33z"/>
				</g>
			</g>
		</g>
		<g>
			<g>
				<path class="st66" d="M914.37,4313.06c0,0-123.43,9.66-3.79,194.58L914.37,4313.06z"/>
			</g>
		</g>
	</g>
	<g>
		<g>
			<path class="st66" d="M2485.87,6539.14c0,0-25.99,38.89-62.45,47.29c-36.46,8.4-72.37,21.76-72.64,44.77
				c-0.27,23.01,105.4,36.73,147.12,13.53c62.27-34.61,68.6-24.18,75.5-41.48c6.9-17.3-8.29-63.57-7.84-69.08
				C2566.11,6527.36,2485.87,6539.14,2485.87,6539.14z"/>
		</g>
		<g>
			<path class="st69" d="M2489.91,6519.96c0,0-4.74,18.78-4.04,19.18s82.15,10.1,79.69-4.97c-2-12.22-4.85-25.51-4.85-25.51
				L2489.91,6519.96z"/>
		</g>
		<g>
			<path class="st66" d="M2759.98,6536.56c0,0-18.54,37.2-50.21,49.87c-33.86,13.54-61.01,29.11-60.39,51.52
				c0.62,22.42,82.77,45.14,142.54,2.11c37.76-27.18,49.73-27.31,55.79-44.43c6.06-17.12-10.52-61.6-10.29-66.98
				C2837.68,6522.01,2759.98,6536.56,2759.98,6536.56z"/>
		</g>
		<g>
			<path class="st69" d="M2759.05,6517.24c0,0,0.22,18.96,0.93,19.31c0.7,0.36,79.42,6.85,77.42-7.9
				c-1.59-11.72-7.64-25.87-7.64-25.87L2759.05,6517.24z"/>
		</g>
		<g>
			<path class="st70" d="M2470.42,5381c0,0-73.14,322.6-89.84,420.86c-14.22,83.64-25.55,170.72-18.74,231.1
				c8.43,74.75,114.25,462.14,109.83,484.06c-4.42,21.92,110.73,3.51,110.73,3.51s-80.48-432.13-64.4-512.55
				c11.91-59.57,116.23-455.27,132.21-434.98c15.99,20.3,35.81,373.45,47.65,432.08c11.84,58.62,48.19,521.83,48.19,521.83
				s81.27,11.99,102.98-6.38c0,0,9.88-395.52,2.34-505.43c-2.87-41.89,49.08-502.23-17.54-687.55
				C2798.62,5229.62,2470.42,5381,2470.42,5381z"/>
		</g>
		<g>
			<path class="st71" d="M2152.08,5087.74c52.12-7.32,216.12,65.33,231.02,59.84c10.25-3.76,34.3-82.12,51.48-141.44
				c10.16-35.08,17.92-63.5,18.99-65.84l0.07-0.13c-0.16,1.57-2.82,28.4,0.56,63.63c0.22,2.28,0.47,4.6,0.73,6.94
				c0.08,0.61,0.15,1.22,0.23,1.84c1.53,12.62,3.88,26.09,7.39,39.69c5.21,20.09,7.66,46.55,8.59,74.46v0.11
				c0.01,0.22,0.01,0.42,0.04,0.65c0.01,0.65,0.05,1.28,0.05,1.93c0,0.26,0.02,0.52,0.02,0.79c1.46,50.79-2.05,105.55-3.51,134.69
				c-2.29,45.14,12.56,65.47,12.99,66.05c0.01,0.01,0.01,0.01,0.01,0.01l15.71-2.21l11.35-1.6l0.14-0.02l15.17-2.13l59.47-8.36
				l21.54-3.03l5.09-0.72l37.68-5.29l106.24-14.95l11.66-1.63l4.8-0.67l40.06-5.65l18.11-2.53l0.06-0.01
				c0,0,15.38-109.08,16.56-168.03c1.06-54.15,30.05-164.1,34.78-181.69c0.02-0.13,0.06-0.24,0.1-0.37
				c0.04-0.17,0.08-0.33,0.13-0.49c0.09-0.3,0.15-0.56,0.21-0.77c0.03-0.13,0.07-0.25,0.1-0.38c0-0.04,0.01-0.08,0.03-0.1
				c0.01-0.03,0.02-0.07,0.02-0.11c0.04-0.13,0.04-0.19,0.04-0.19s86.71,91.1,103.54,130.84c5.13,12.06,20.82,44.86,40.79,84.8
				c13.66-26.06,22.21-44.18,22.21-48.72c0-0.56-0.01-1.15-0.03-1.77c-1.28-39.3-42.47-198.66-74.97-302.77
				c-25.24-50.73-47-91.75-53.99-96.76c-10.58-7.6-55.09-26.65-93.93-42.07c-1.28-0.51-2.55-1-3.79-1.5
				c-3.62-1.43-7.2-2.83-10.67-4.18c-1.74-0.67-3.45-1.33-5.13-1.98c-0.93-0.35-1.84-0.7-2.75-1.04c-0.75-0.29-1.48-0.57-2.22-0.85
				h-0.01c-19.42-7.39-34.18-12.55-37.22-12.72c-0.51-0.04-1.32-0.02-2.42,0.01c-1.28,0.03-2.94,0.1-4.92,0.23
				c-24.01,1.41-95.67,8.12-118.73,10.31c-4.19,0.39-6.79,0.65-7.18,0.68c-0.04,0-0.05,0-0.05,0s-10.98,5-27.52,12.57l-0.01,0.01
				l-1.53,0.7c-10,4.58-21.56,10.69-33.79,17.38c-23.97,13.14-50.45,28.49-72.41,38.94c-21.54,10.24-51.02,24.52-53.53,26.52
				l-109.1,314.61l-189.27-34.59L2152.08,5087.74z"/>
		</g>
		<g>
			<path class="st72" d="M2480.72,5330.95c0,0-7.99,9.56-10.3,50.05c0,0,328.66-38.34,363.4-53.45c0,0,1.36-44.62-6.01-45.4
				C2819.71,5281.31,2480.72,5330.95,2480.72,5330.95z"/>
		</g>
		<g>
			<path class="st17" d="M2761,4620.16c-1.02,51.58-100.89,79.8-100.89,79.8s-41.77-52.37-31.8-57.39c3.92-1.97,5.51-9.79,6-18.55
				c0.45-8.34-0.08-17.55-0.57-23.39c-0.3-3.65-0.58-6-0.58-6s14.27-15.06,32.42-32.99c31.72-31.37,75.33-71.54,75.4-55.56
				c0,0.85-0.11,1.86-0.37,3.03C2732.95,4545.08,2761,4620.16,2761,4620.16z"/>
		</g>
		<g>
			<path class="st66" d="M2752.71,5290.07c0,0,7.17,45.23,7.8,57.03l15.2-3.03c0,0-4.19-47.86-6.65-55.88L2752.71,5290.07z"/>
		</g>
		<g>
			<path class="st66" d="M2508.14,5325.67c0,0-5.76,41.12-5.9,56.65l16.08-2.09c0,0,3.3-51.35,5.14-56.71L2508.14,5325.67z"/>
		</g>
		<g>
			<path class="st21" d="M2722.53,4544.59C2722.53,4544.59,2722.53,4544.59,2722.53,4544.59c-0.2,0.31-4.44,6.65-11.67,15.74
				c-15.33,19.29-44.15,50.96-76.56,63.69c0.45-8.34-0.08-17.55-0.57-23.39c-3.32-0.09-6.63-0.47-9.92-1.2
				c8.89-15.52,21.71-31.8,21.71-31.8l20.05-6L2722.53,4544.59z"/>
		</g>
		<g>
			<path class="st17" d="M2741.71,4506.77c-8.64,18.79-16.84,32.42-19.17,37.81c0,0,0,0-0.01,0.01c-1.51,3.51-5.64,9.25-11.66,15.73
				c-16.46,17.73-47.05,41.12-77.12,40.3c-3.32-0.09-6.63-0.47-9.92-1.2c-12.14-2.66-26.48-8.3-34.37-23.74
				c-62.3-121.99-17.2-221.74-17.2-221.74s170.36-48.17,197.02,3.11C2787.97,4393.03,2762,4462.61,2741.71,4506.77z"/>
		</g>
		<g>
			<path class="st46" d="M2572.25,4353.95c0,0-15.82-0.88-19.73-30.87c-3.87-29.64,3.95-37.85,3.95-37.85s70.33-29.44,95.58-33.27
				c25.26-3.83,87.36-7.51,101.92,9.14c0,0,35.37-8.22,45,50.5c15.29,93.15-52.09,183.6-52.09,183.6s0.58-60.85-12.84-68.92
				c-13.42-8.06-25,11.11-25,11.11l-27.45,4.92c0,0,41.7-90.03-8.32-93.37C2623.25,4345.61,2600.88,4359.17,2572.25,4353.95z"/>
		</g>
		<g>
			<path class="st17" d="M2709.79,4413.13c2.61-26.81,51.09-37.04,47.85-8.94c-3.25,28.1-27.12,55.1-38.15,54.15
				C2708.46,4457.38,2707.8,4433.56,2709.79,4413.13z"/>
		</g>
		<g>
			<path class="st73" d="M3046.32,5096.95c0-0.56-0.01-1.15-0.03-1.77c-0.94-39.2-20.23-196.17-52.72-300.28
				c-15.77-50.56-19.42-85.87-25.52-90.24c-10.58-7.59-104.71-35.43-144.64-51.09c-1.28-0.51-2.55-1-3.79-1.5
				c-3.62-1.43-7.2-2.83-10.67-4.18c-1.74-0.67-3.45-1.33-5.13-1.98c-0.93-0.35-1.84-0.7-2.75-1.04c-0.75-0.29-1.48-0.57-2.22-0.85
				c-0.06,0.06-0.13,0.14-0.22,0.21c-3.56,3.98-22.03,24.97-44.09,56.34c-41.24,58.66-94.96,153.62-86.74,241.32
				c2.64,28.15,5.9,68.57,11.38,113.93c0.47,3.88,0.96,7.78,1.46,11.73c1.33,10.44,2.79,21.1,4.37,31.89c0.95,6.48,1.95,13,3,19.56
				c10.92,67.99,45.16,114.35,75.55,169.79c0.27,0.47,0.52,0.94,0.79,1.4c0.14,0.27,0.29,0.54,0.43,0.8
				c0.65,1.18,1.29,2.37,1.94,3.56c1.04,1.94,2.08,3.91,3.12,5.87c0.59,1.12,1.18,2.25,1.76,3.4c5.82,11.16,11.5,22.58,17.03,34.04
				c3.57,7.4,7.08,14.83,10.5,22.22c0.35,0.77,0.71,1.54,1.06,2.31c0,0,5.6,13,12.77,29.7c2.64,6.14,5.49,12.76,8.35,19.42
				c1.96,4.58,3.94,9.17,5.84,13.64c1.68,3.9,3.31,7.7,4.85,11.3c3.45,8.05,6.46,15.09,8.55,20.02c1.56,3.68,2.61,6.17,2.95,7.02
				c10.45,26.16,18.01,46.36,21.49,55.79c1.39,3.8,2.13,5.86,2.13,5.86l105.13-58.03c19.96-10,9.53-63.8,2.03-84.81
				c-6.23-17.47-15.01-36.21-24.91-55.57c-4.05-7.92-8.29-15.94-12.62-24.02c32.9-57.49,66.22-116.77,87.35-157.05
				C3037.76,5119.61,3046.32,5101.49,3046.32,5096.95z M2879.15,4932.44c0.02-0.13,0.06-0.24,0.1-0.37
				c0.04-0.17,0.08-0.33,0.13-0.49c0.06-0.26,0.14-0.51,0.21-0.77c0.03-0.13,0.07-0.25,0.1-0.38c0-0.04,0.01-0.08,0.03-0.1
				c0.01-0.03,0.02-0.07,0.02-0.11c0,0,51.15,79.94,47.28,149.38c-0.59,10.81-11.34,38.12-26.99,73.15c0,0.02-0.01,0.04-0.02,0.06
				c-5.69,12.76-12.04,26.53-18.78,40.91c-0.25-0.59-0.49-1.2-0.75-1.8c-9.78-23.87-16.14-46.27-16.14-65.83
				C2864.35,5126.09,2868.67,4973.72,2879.15,4932.44z"/>
		</g>
		<g>
			<path class="st73" d="M2082.22,4981.13l238.06,51.84l113.48-296.77c2.51-1.99,35.04-19.5,56.58-29.75
				c22.43-10.68,50.81-23.85,75.98-35.47c12.02-5.56,23.35-10.76,32.92-15.15l0.79,0.62c0,0-14.05,46.79-32.23,163.58
				c0,0.01,0,0.02-0.01,0.04c-0.62,3.93-1.23,7.92-1.85,12c-0.06,0.47-0.14,0.95-0.22,1.42c-0.4,2.7-0.82,5.44-1.23,8.21
				c-0.05,0.33-0.1,0.66-0.15,0.97c-0.28,1.86-0.56,3.74-0.82,5.64c-0.69,4.61-1.37,9.31-2.05,14.1
				c-8.11,56.85-19.49,153.6-30.42,251.27v0.04c-8.64,76.98-28.33,155.98-34.59,214.93c0,0.04-0.01,0.08-0.01,0.11
				c-1.24,11.55-4.19,26.95-8.19,44.32c-0.44,1.96-0.91,3.95-1.38,5.97c-17.61,74.41-51.81,179.73-51.81,179.73l-9.96-9.2
				l-29.5-27.22c-6.79-6.26-9.36-15.86-6.63-24.67c16.36-52.77,71.95-239.52,82.14-370.83c0.01-0.04,0.01-0.08,0.01-0.11
				c3.19-41.25-8.87-80.12-15.86-116.96c-0.13,0.32-0.24,0.63-0.35,0.97c-5.85,16.28-12.34,33.98-18.88,51.21v0.01
				c-17.55,46.27-35.5,89.15-42.98,91.88c-16.64,6.12-330.1-79.58-332.27-91.89L2082.22,4981.13z"/>
		</g>
		<g>
			<path class="st74" d="M2771.12,4772.04l-48.59,27.4l20.76,21.17l-55.27,298.42c-11.27-69.95-16.4-136.37-20.21-177.11
				c-12.71-135.58,122.62-288.52,131.04-297.89c6.5,2.46,13.52,5.19,20.78,8.06L2771.12,4772.04z"/>
		</g>
		<g>
			<path class="st74" d="M2600.78,4655.13c0,0-18.15,59.29-39.31,207.27c-8.11,56.85-19.49,153.61-30.43,251.27l-11.31-279.48
				l23.15-25.08l-20.57-25.72l44.03-112.42c12.02-5.56,23.35-10.76,32.92-15.15L2600.78,4655.13z"/>
		</g>
		<g>
			<path class="st75" d="M2801.28,4644.63l-40.28-24.47c0,0-1.13,22.09-100.89,79.8l28.33,79.8L2801.28,4644.63z"/>
		</g>
		<g>
			<path class="st75" d="M2633.57,4631.29c0,0,1.57,23.84,26.54,68.67l-55.29,72.08l-4.03-116.9L2633.57,4631.29z"/>
		</g>
		<g>
			<path class="st68" d="M2660.26,4699.96c0,0,10.72,42.86,6.86,54.86c0,0-23.56,8.58-40.5-2.14
				C2626.61,4752.68,2638.61,4722.67,2660.26,4699.96z"/>
		</g>
		<g>
			<g>
				<path class="st76" d="M2604.86,5318.14c-6-30.25-0.29-120.86-0.04-124.71l5.13,0.33c-0.06,0.93-5.91,93.79-0.04,123.38
					L2604.86,5318.14z"/>
			</g>
		</g>
		<g>
			<path class="st77" d="M2646.82,5304.19c0,0-48.36,5.77-64.35,9.76l2.09,54.21l63.33-6.76L2646.82,5304.19z"/>
		</g>
		<g>
			<path class="st68" d="M2636.23,4748.82c0,0-53.94,136.21-45.14,288.66c9.12,158.07,24.08,215.39,24.08,215.39l33.26,41.7
				l14.66-51.26c0,0-44.63-201.52-15.82-397.62c5.22-35.53,12.97-102.87,12.97-102.87L2636.23,4748.82z"/>
		</g>
		<g>
			<path class="st17" d="M2798.31,5392.07c0,0-11.57,23.15-23.15,27c-11.57,3.86-28.45,22.67-28.45,22.67l81.49,42.92
				c0,0,21.7-42.43,22.66-69.44C2851.83,5388.21,2798.31,5392.07,2798.31,5392.07z"/>
		</g>
		<g>
			<path class="st71" d="M2790.57,5394.23l-5.4,10.85c0,0,51.76,37.86,65.71,40.26l4.79-14.46L2790.57,5394.23z"/>
		</g>
		<g>
			<path class="st73" d="M2785.17,5394.71c0,0,38.79,32.08,71.46,46.86l109.93-197.72l-56.96-110.12
				C2909.6,5133.73,2787.74,5375.42,2785.17,5394.71z"/>
		</g>
		<g>
			<path class="st70" d="M2456.81,4940.7c-1.8,36.58-1.53,69.06-1.53,69.06s0,0.01,0,0.02c-0.01,0.18-0.05,1.17-0.13,2.8
				c-0.08-0.62-0.15-1.23-0.23-1.84c-5.85,16.28-12.34,33.98-18.88,51.21c-1.52-19.97-1.91-38.58-1.47-55.81
				c2.62-102.56,34.88-156.35,34.88-156.35C2462.06,4867.68,2458.51,4906.03,2456.81,4940.7z"/>
		</g>
		<g>
			<path class="st70" d="M2949.38,5326.75l-88,106.29l75.39-130.31C2941.09,5310.81,2945.32,5318.83,2949.38,5326.75z"/>
		</g>
		<g>
			<path class="st78" d="M2310.29,5193.49h-203.18c-13.93,0-26.04-9.53-29.32-23.07l-88.25-364.38
				c-4.6-18.99,9.79-37.27,29.32-37.27h203.18c13.93,0,26.04,9.53,29.32,23.07l88.25,364.39
				C2344.21,5175.21,2329.82,5193.49,2310.29,5193.49z"/>
		</g>
		<g>
			<g>
				<path class="st17" d="M2061.77,5092.19c9.94-9.2,29.12-14.54,45.54-25.51c16.42-10.97,2.71-22.29,2.71-22.29
					c16.87-5.8,15.06-13.5,12.9-18.74c-2.92-7.09-21.35-5.08-21.35-5.08s16.52-3.65,23.32-6.66c6.8-3.01,4.49-14.86-5.97-18.6
					c-10.46-3.75-53.06,6.76-53.06,6.76s6.95-3.4,27.96-13.95c21.01-10.55,25.63-20.14,13.24-24.75
					c-8.61-3.2-25.54,3.51-58.03,25.34c-24.46,16.44-22.47,18.58-22.47,18.58S2049.9,5103.19,2061.77,5092.19z"/>
			</g>
		</g>
	</g>
	<g>
		<g>
			<polygon class="st45" points="3588.66,5865.53 4494.36,5865.53 4208.91,6742.14 4235.6,6750.83 4533.02,5837.45 3568.27,5837.45 
				3273.68,6742.14 3300.38,6750.83 			"/>
		</g>
		<g>
			<polygon class="st45" points="3896.91,6742.14 3611.46,5865.53 4517.15,5865.53 4805.43,6750.83 4832.13,6742.14 
				4537.54,5837.45 3572.79,5837.45 3870.21,6750.83 			"/>
		</g>
		<g>
			<rect x="3504.39" y="6113.49" class="st45" width="1108.55" height="28.07"/>
		</g>
		<g>
			<rect x="3390.2" y="6418.29" class="st45" width="1326.29" height="28.07"/>
		</g>
	</g>
	<g>
		<g>
			<g>
				<path class="st17" d="M4040.51,3891.81c0,0,22.58-39.51-13.23-145.4c-34.63-102.41-154.5-93.13-192.6-27.51
					c-38.1,65.61-25.23,106.36,30.86,180.44C3921.62,3973.41,4017.23,3925.68,4040.51,3891.81z"/>
			</g>
		</g>
		<g>
			<g>
				<path class="st17" d="M3762.07,5713.65c0,0-5.93,43.49-6.67,50.02c-0.74,6.53-65.99-3.85-65.99-3.85l-5.28-51.77
					C3684.13,5708.05,3753.92,5707.52,3762.07,5713.65z"/>
			</g>
		</g>
		<g>
			<g>
				<path class="st79" d="M3756.1,5758.15c0,0,20.67,26.2,40.67,37.63c20,11.42,51.41,15.95,63.23,27.77
					c8.54,8.53,31.09,45.27-51.95,44.54c-83.04-0.74-123.08,5.19-131.97-8.9c-8.9-14.09,12.87-103.98,12.87-103.98
					S3709.27,5760.93,3756.1,5758.15z"/>
			</g>
		</g>
		<g>
			<g>
				<path class="st17" d="M4213.83,5713.65c0,0-5.93,43.49-6.67,50.02c-0.75,6.53-65.99-3.85-65.99-3.85l-5.28-51.77
					C4135.89,5708.05,4205.68,5707.52,4213.83,5713.65z"/>
			</g>
		</g>
		<g>
			<g>
				<path class="st79" d="M4207.86,5758.15c0,0,20.67,26.2,40.67,37.63c19.99,11.42,93.57,20.8,105.39,32.62
					c8.54,8.54,22.73,42.89-94.11,39.68c-83.01-2.28-123.08,5.19-131.98-8.9c-8.9-14.09,12.87-103.98,12.87-103.98
					S4166.5,5759.79,4207.86,5758.15z"/>
			</g>
		</g>
		<g>
			<g>
				<path class="st11" d="M3784.04,4630.82c0,0-33.45,103.96-29.05,193.54c4.4,89.59-17.3,187.62-26.17,281.21
					c-9.89,104.33-50.37,351.33-51.84,407.13c-1.47,55.81,6.28,234.02,6.28,234.02l81.02,1.96c0,0,68.05-431.8,85.67-475.86
					c17.62-44.06,105.03-358.17,107.96-393.41C3960.87,4844.15,3784.04,4630.82,3784.04,4630.82z"/>
			</g>
		</g>
		<g>
			<g>
				<path class="st11" d="M4119.99,4620c0,0,49.19,274.87,55.06,329.7c5.88,54.83,9.79,265.35,12.73,299.61
					c2.94,34.27,19.58,448.45,35.25,499.37h-90.34c0,0-92.76-301.09-92.76-443.55c0-142.45-61.43-309.7-101.09-403.69
					c-39.65-93.99-130.42-96.22-154.8-270.61C3784.04,4630.82,4086.98,4564.69,4119.99,4620z"/>
			</g>
		</g>
		<g>
			<g>
				<path class="st17" d="M4007.74,3919.77c0,0-10.19,29.66,0,50.83c10.19,21.17-130.21,8.47-130.21,8.47s6.35-43.74-11.99-79.73
					C3847.19,3863.35,4007.74,3919.77,4007.74,3919.77z"/>
			</g>
		</g>
		<g>
			<g>
				<path class="st80" d="M3777.53,4653.47c0,0,50.49,51.87,346.98-8.08l-4.52-25.39l-337.05,12.69L3777.53,4653.47z"/>
			</g>
		</g>
		<g>
			<g>
				<path class="st17" d="M4028.98,3977.47c0,0,51.86,5.29,66.68,8.11c14.81,2.82,114.55-17.84,135-19.95
					c20.46-2.12,107.7-61.89,110.52-68.95c2.82-7.06,53.07-134.3,55.9-161.81c2.82-27.52,48.95-13.31,45,5.65
					c-7.4,35.46-16.9,121.56-22.1,146.52c-5.63,26.95-20.7,87.97-29.16,95.48c-8.47,7.51-87.02,67.26-163.92,92.66
					c-76.9,25.4-134.79,62.79-134.79,62.79h-379c0,0-147.41-210.72-150.59-242.47c-3.17-31.75,102.97-242.76,124.13-269.22
					c21.17-26.46,51.78,8.64,51.78,8.64s-63.42,186.08-71.89,212.54c-8.47,26.46,73.77,142.7,96.34,143.05
					c22.58,0.35,80.55-7.05,106.3-8.11c25.75-1.06,52.91-12.35,52.91-12.35L4028.98,3977.47z"/>
			</g>
		</g>
		<g>
			<g>
				<path class="st45" d="M4192.31,4118.22c0,0-46.39,30.84-50.63,83.76c-4.23,52.91-21.17,136.51-29.63,165.09
					c-8.47,28.57,7.41,235.99,9.52,250.81c2.12,14.81-293.27,50.02-338.64,14.81c0,0-12.7-193.66-17.99-248.69
					c-5.29-55.03-30.69-188.37-39.15-206.36c-8.47-17.99-111.12-161.98-115.35-180.96c0,0,53.1-84.66,91.2-85.72
					c0,0,60.51,70.91,80.23,74.08c19.73,3.17,140.65-18.99,140.67-19.17c0,0,13.2,17.97,83.36-3.19c0,0,83.56,9.43,97.15,11.16
					c16.46,2.1,130.88-14.36,130.88-14.36s45.9,77.51,37.86,116.65L4192.31,4118.22z"/>
			</g>
		</g>
		<g>
			<g>
				<path class="st17" d="M4394.42,3751.41c0,0,10.36-49.05-2.12-63.13c-7.1-8.01-24.17-29.24-25.73-32.36
					c-1.56-3.12-19.88-13.64-19.88-18.71c0-5.07,17.93-11.31,33.53,3.12c15.59,14.42,25.34,17.54,31.57,15.98
					c6.24-1.56,15.2-53.4,15.98-66.27c0.78-12.87,5.75-46.78,13.79-44.44c8.04,2.34,7.65,17.15,7.65,17.15s9.36-25.73,15.59-20.66
					c6.24,5.07,5.46,17.54,5.46,17.54s11.7-14.42,14.81-3.9s0,19.88,0,19.88s12.08-6.63,12.86,9.74
					c0.78,16.37-3.51,64.32-12.08,81.47c-8.58,17.15-40.68,62.02-44.51,79.54C4437.53,3763.91,4394.42,3751.41,4394.42,3751.41z"/>
			</g>
		</g>
		<g>
			<g>
				<path class="st17" d="M3728.09,3665.27c0,0,35.26-59.27,47.25-64.56c12-5.29,28.93-8.29,43.74-18.87
					c14.82-10.58,34.39-19.4,33.33-22.93c-1.06-3.53-18.52-2.12-37.22,6c-18.7,8.11-26.9,4.19-28.66-0.04
					c-1.76-4.23,9.97-34.12,15.61-41.17c5.64-7.06,45.86-47.51,39.16-53.5c-6.7-6-32.81,16.23-37.04,20.81
					c0,0,20.81-43.74,12.7-45.86c-8.11-2.12-23.28,13.4-23.28,13.4s1.76-37.39-38.45,23.28c0,0,8.47-20.11-3.88-13.41
					c-12.34,6.7-24.34,44.45-28.22,63.5c-3.88,19.05-21.49,79.73-36.49,94.37C3671.63,3640.93,3728.09,3665.27,3728.09,3665.27z"/>
			</g>
		</g>
		<g>
			<g>
				<path class="st66" d="M3865.53,3899.34c0,0,18.58,1.64,58.09-12c39.51-13.64,42.46-82.73,51-74.55
					c17.44,16.7,33.9,5.18,40.48-4.7c0,0-19.28-25.4-10.35-37.63c8.94-12.23,23.49-21.16,23.49-21.16s-27.79-133.94-154.25-72.92
					C3725.84,3747.88,3865.53,3899.34,3865.53,3899.34z"/>
			</g>
		</g>
		<g>
			<g>
				<path class="st45" d="M4007.74,3970.59l-4.46-19.36c0,0-80.71-1.64-124.75,4.75l-4.63,23.14
					C3873.89,3979.12,3930.28,4004.7,4007.74,3970.59z"/>
			</g>
		</g>
		<g>
			<g>
				<path class="st17" d="M3987.83,3795.86c-7.33-12.18-34.44-20.4-37.63,14.11c-2.47,26.75,48.45,55.97,48.92,31.05
					C3999.58,3816.08,3992.71,3803.97,3987.83,3795.86z"/>
			</g>
		</g>
		<g>
			<g>
				<path class="st81" d="M4396.35,3740.27c0,0,29.12,0.72,43.24,13.48c0,0,0.92,8.1-2.36,14.49c0,0-25.24-11.78-44.6-13.99
					C4392.64,3754.25,4392.96,3743.67,4396.35,3740.27z"/>
			</g>
		</g>
		<g>
			<g>
				<path class="st66" d="M4430.68,3747.53c2.69,6.37-0.29,13.72-6.67,16.41c-6.37,2.69-13.71-0.3-16.41-6.67
					c-2.69-6.37,0.29-13.72,6.67-16.41C4420.64,3738.18,4427.99,3741.16,4430.68,3747.53z"/>
			</g>
		</g>
	</g>
</g>
</svg>
