<?xml version="1.0" encoding="utf-8"?>
<!-- Generator: Adobe Illustrator 24.0.0, SVG Export Plug-In . SVG Version: 6.00 Build 0)  -->
<svg version="1.1" xmlns="http://www.w3.org/2000/svg" xmlns:xlink="http://www.w3.org/1999/xlink" x="0px" y="0px"
	 viewBox="0 0 3710 3710" style="enable-background:new 0 0 3710 3710;" xml:space="preserve">
<style type="text/css">
	.st0{fill:#F4F7FA;}
	.st1{fill:#BFC8D6;}
	.st2{fill:#FFFFFF;}
	.st3{fill:#D8DEE8;}
	.st4{opacity:0.48;fill:#FFFFFF;}
	.st5{fill:url(#SVGID_1_);}
	.st6{opacity:0.3;fill:#BFC8D6;}
	.st7{fill:url(#SVGID_2_);}
	.st8{opacity:0.74;fill:#FFFFFF;}
	.st9{fill:url(#SVGID_3_);}
	.st10{opacity:0.5;}
	.st11{clip-path:url(#SVGID_5_);}
	.st12{fill:url(#SVGID_6_);}
	.st13{fill:url(#SVGID_7_);}
	.st14{opacity:0.6;fill:url(#SVGID_8_);}
	.st15{fill:url(#SVGID_9_);}
	.st16{fill:url(#SVGID_10_);}
	.st17{fill:url(#SVGID_11_);}
	.st18{fill:url(#SVGID_12_);}
	.st19{fill:url(#SVGID_13_);}
	.st20{opacity:0.3;fill:url(#SVGID_14_);}
	.st21{fill:url(#SVGID_15_);}
	.st22{fill:url(#SVGID_16_);}
	.st23{opacity:0.3;}
	.st24{fill:url(#SVGID_17_);}
	.st25{fill:url(#SVGID_18_);}
	.st26{fill:url(#SVGID_19_);}
	.st27{fill:url(#SVGID_20_);}
	.st28{fill:url(#SVGID_21_);}
	.st29{fill:url(#SVGID_22_);}
	.st30{fill:#FDAE0E;}
	.st31{fill:url(#SVGID_23_);}
	.st32{fill:url(#SVGID_24_);}
	.st33{fill:url(#SVGID_25_);}
	.st34{fill:#F9841D;}
	.st35{fill:url(#SVGID_26_);}
	.st36{fill:url(#SVGID_27_);}
	.st37{fill:url(#SVGID_28_);}
	.st38{fill:url(#SVGID_29_);}
	.st39{fill:url(#SVGID_30_);}
	.st40{fill:url(#SVGID_31_);}
	.st41{opacity:0.3;fill:url(#SVGID_32_);}
	.st42{fill:url(#SVGID_33_);}
	.st43{opacity:0.3;fill:url(#SVGID_34_);}
	.st44{fill:url(#SVGID_35_);}
	.st45{fill:url(#SVGID_36_);}
	.st46{fill:#26264F;}
	.st47{fill:url(#SVGID_37_);}
	.st48{fill:url(#SVGID_38_);}
	.st49{fill:url(#SVGID_39_);}
	.st50{opacity:0.3;fill:url(#SVGID_40_);}
	.st51{fill:url(#SVGID_41_);}
	.st52{opacity:0.2;fill:url(#SVGID_42_);}
	.st53{fill:url(#SVGID_43_);}
	.st54{fill:#03A9F4;}
	.st55{opacity:0.8;}
	.st56{fill:#3F51B5;}
</style>
<g id="Background">
</g>
<g id="Illustration">
	<g>
		<path class="st0" d="M3206.58,1716.98c-75.49-527.11-384.99-1174.71-996.45-1242.48c0,0-464.25-60.24-921.9,31.06
			c-271.61,54.19-509.78,215.49-660.48,447.32c-150.7,231.83-201.04,514.52-139.95,784.03c39.68,175.05,66.49,356.22,59.13,536.09
			c-12.81,313.05-5.44,605.26,279.35,791.95c254.28,166.7,574.3,313.72,879.6,339.47c207.48,17.5,440.16-10.82,640.13-68.44
			C3365.11,3042.29,3282.07,2244.09,3206.58,1716.98z"/>
		<g>
			<g>
				<g>
					<path class="st1" d="M3226.2,3055.19l-2674.65-24.66v72.98c0,19.81,11.67,36.65,27.47,39.65l756.31,143.7
						c8.98,1.71,18.08,2.16,27.13,1.35l1834.67-163.84c16.38-1.46,29.07-18.36,29.07-38.71V3055.19z"/>
					<g>
						<path class="st1" d="M2241.93,2938.24l-1699.96,133.5c-30.42,2.39-55.15-23-55.15-56.7V1664.57
							c0-33.71,24.73-61.03,55.15-61.03h1699.96c25.06,0,45.32,24.7,45.32,55.17v1220.8
							C2287.25,2909.98,2266.99,2936.27,2241.93,2938.24z"/>
						<path class="st2" d="M2269.03,2938.24l-1699.95,133.5c-30.42,2.39-55.15-23-55.15-56.7V1664.57
							c0-33.71,24.73-61.03,55.15-61.03h1699.95c25.06,0,45.32,24.7,45.32,55.17v1220.8
							C2314.36,2909.98,2294.09,2936.27,2269.03,2938.24z"/>
						<path class="st3" d="M2216.07,2852.17L632.74,2968.14c-24.75,1.81-44.87-19.02-44.87-46.54V1739.26
							c0-27.52,20.12-49.92,44.87-50.03l1583.33-7.28c20.67-0.1,37.4,20.15,37.4,45.21v1076.89
							C2253.47,2829.12,2236.75,2850.66,2216.07,2852.17z"/>
						<path class="st2" d="M1479.09,1640.48c0,12.55-8.75,22.75-19.55,22.79c-10.82,0.04-19.6-10.13-19.6-22.71
							s8.78-22.78,19.6-22.79C1470.34,1617.76,1479.09,1627.93,1479.09,1640.48z"/>
						<path class="st4" d="M569.07,3071.74l1691.35-132.82l8.61-0.68c11.5-0.9,21.95-6.97,29.94-16.17
							c-121.71-7.11-197.31-53.18-246.07-100.79c-97.93-95.61-80.95-189.9-186.55-252.77c-131.72-78.41-235.29,20.94-335.25-77.08
							c-60.6-59.43-30.85-103.75-105.41-192.56c-82.59-98.37-136.36-65.3-219.36-153.83c-104.95-111.94-52.46-199.04-142.86-279.41
							c-109.67-97.5-227.94-7.26-332.33-100.77c-45.03-40.33-69.73-98.96-82.63-161.32h-79.43c-30.42,0-55.15,27.33-55.15,61.03
							v1350.46C513.92,3048.74,538.65,3074.13,569.07,3071.74z"/>
					</g>
					<linearGradient id="SVGID_1_" gradientUnits="userSpaceOnUse" x1="3136.2029" y1="2625.6152" x2="2215.655" y2="2948.6143">
						<stop  offset="0.494" style="stop-color:#EBEFF2"/>
						<stop  offset="1" style="stop-color:#FFFFFF"/>
					</linearGradient>
					<path class="st5" d="M2349.13,2930.84L551.55,3071.36l783.78,148.92c8.98,1.71,18.08,2.16,27.13,1.35l1863.74-166.44
						l-848.48-123.4C2368.23,2930.41,2358.66,2930.09,2349.13,2930.84z"/>
					<polygon class="st3" points="813.85,3072.57 2310.38,2953.84 2773.55,3020.65 1289.9,3147.57 					"/>
				</g>
			</g>
		</g>
		<g>
			<path class="st6" d="M2902.27,1185.98c-1.23-17.29-15.37-30.36-31.6-29.19l-59.44,4.28c-6.82-28.3-15.79-55.63-26.91-81.69
				l49.32-35.31c13.45-9.63,16.91-29.13,7.72-43.55l-57.52-90.28c-9.21-14.45-27.61-18.38-41.11-8.77l-49.98,35.58
				c-18.98-20.75-39.6-39.77-61.65-56.81l26.35-57.72c7.11-15.56,0.89-34.47-13.89-42.23l-92.61-48.61
				c-14.84-7.79-32.66-1.47-39.81,14.13l-26.54,57.91c-25.95-8.06-52.81-13.7-80.3-16.96l-4.62-64.94
				c-1.24-17.43-15.63-30.73-32.14-29.69l-103.51,6.51c-16.59,1.04-29.03,16.07-27.79,33.55l4.63,65.13
				c-26.95,6.8-53,15.9-77.84,27.31l-34.91-54.3c-9.41-14.64-28.25-18.67-42.08-8.98l-86.63,60.69
				c-13.88,9.72-17.47,29.5-8.01,44.17l35.03,54.31c-19.9,20.05-38.07,41.93-54.36,65.34l-56.05-28.88
				c-15.18-7.82-33.42-1.35-40.75,14.46l-45.86,98.98c-7.34,15.85-0.95,35.01,14.26,42.8l55.64,28.49
				c-7.59,27.82-12.79,56.63-15.67,86.1l-61.6,4.43c-16.86,1.21-29.53,16.5-28.27,34.13l7.85,110.3
				c1.25,17.64,15.95,30.91,32.81,29.64l61.1-4.59c6.89,28.93,16.05,56.83,27.42,83.42l-50.27,35.79
				c-13.96,9.94-17.57,29.84-8.06,44.45l59.39,91.24c9.49,14.57,28.46,18.31,42.37,8.35l49.87-35.7
				c19.57,21.14,40.88,40.41,63.63,57.62l-26.07,56.88c-7.29,15.9-0.93,34.95,14.18,42.54l94.32,47.39
				c15.06,7.56,33.13,0.83,40.37-15.04l25.72-56.35c26.61,7.86,54.13,13.17,82.24,16l4.43,62.29c1.24,17.49,15.69,30.53,32.25,29.14
				l103.35-8.7c16.49-1.39,28.85-16.65,27.61-34.08l-4.42-62.1c27.19-7.37,53.4-17.06,78.32-29.1l33,51.16
				c9.28,14.39,27.81,18.04,41.39,8.16l84.76-61.66c13.53-9.84,17.01-29.46,7.77-43.82l-33.09-51.47
				c19.6-20.4,37.48-42.54,53.41-66.22l52.89,27.08c14.72,7.54,32.38,0.95,39.44-14.7l44.14-97.76c7.05-15.61,0.87-34.4-13.81-41.96
				l-52.99-27.31c7.22-27.57,12.13-56.07,14.73-85.22l58.96-4.43c16.22-1.22,28.37-16.22,27.14-33.51L2902.27,1185.98z
				 M2380.27,1601.06c-167.46,13.29-314.19-119.6-326.8-296.89c-12.61-177.29,113.78-330.27,281.38-341.63
				c166.59-11.29,311.02,121.77,323.5,297.14C2670.82,1435.04,2546.73,1587.85,2380.27,1601.06z"/>
		</g>
		<g>
			<g>
				<linearGradient id="SVGID_2_" gradientUnits="userSpaceOnUse" x1="2193.5706" y1="771.4622" x2="462.2775" y2="4234.041">
					<stop  offset="3.597120e-03" style="stop-color:#3F51B5"/>
					<stop  offset="1" style="stop-color:#03A9F4"/>
				</linearGradient>
				<path class="st7" d="M2368.22,1149.1l-1501.24-49.99c-51.53-1.72-93.53,41.81-93.53,97.23v1600.94
					c0,55.42,42.01,97.23,93.53,93.42l1501.24-111.13c42.43-3.14,76.65-46.13,76.65-96.02V1242
					C2444.87,1192.1,2410.65,1150.51,2368.22,1149.1z"/>
				<path class="st8" d="M866.98,2858.84c-35.04,2.53-63.56-25.94-63.56-63.6V1197.16c0-37.65,28.51-67.29,63.56-66.19
					l1501.24,47.13c28.91,0.91,52.26,29.22,52.26,63.24V2685.2c0,34.02-23.35,63.28-52.26,65.37L866.98,2858.84z"/>
				<linearGradient id="SVGID_3_" gradientUnits="userSpaceOnUse" x1="1462.5627" y1="662.1435" x2="1749.9006" y2="1811.4989">
					<stop  offset="3.597120e-03" style="stop-color:#3F51B5"/>
					<stop  offset="1" style="stop-color:#03A9F4"/>
				</linearGradient>
				<path class="st9" d="M2368.22,1149.1l-1501.24-49.99c-51.53-1.72-93.54,41.81-93.54,97.23v71.98l1671.43,38.5V1242
					C2444.87,1192.1,2410.65,1150.51,2368.22,1149.1z"/>
				<path class="st2" d="M939.57,1191.25c0,17.96-13.52,32.16-30.23,31.73c-16.74-0.43-30.34-15.4-30.34-33.42
					c0-18.02,13.6-32.23,30.34-31.73C926.05,1158.33,939.57,1173.29,939.57,1191.25z"/>
				<path class="st2" d="M1044.89,1194.19c0,17.84-13.35,31.96-29.85,31.53c-16.53-0.43-29.96-15.3-29.96-33.2
					c0-17.91,13.43-32.03,29.96-31.53C1031.54,1161.48,1044.89,1176.34,1044.89,1194.19z"/>
				<path class="st2" d="M1148.89,1197.09c0,17.73-13.18,31.76-29.48,31.34c-16.32-0.42-29.58-15.19-29.58-32.99
					s13.26-31.83,29.58-31.34C1135.7,1164.59,1148.89,1179.36,1148.89,1197.09z"/>
				<g class="st10">
					<path class="st2" d="M1792.7,1756.75c-174.9-273.62-479.83-183.19-674.17-488.33c-35.17-55.22-59.05-111.5-75.45-163.45
						l-176.11-5.86c-51.53-1.72-93.54,41.81-93.54,97.23v1600.94c0,55.42,42.01,97.23,93.53,93.42l1447.44-107.15
						c-32.46-50.22-316.55-232.8-390.34-523.3C1856.46,1994.02,1897.78,1921.13,1792.7,1756.75z"/>
				</g>
			</g>
			<g>
				<path class="st2" d="M2069.69,1860.33c0,244.25-179.99,450.93-405.28,461.8c-229,11.05-417.41-183.79-417.41-435.35
					s188.42-458.51,417.41-462.19C1889.7,1420.98,2069.69,1616.09,2069.69,1860.33z"/>
				<path class="st2" d="M2061.63,2520.75c0,23.19-16.39,42.96-37.38,44.17l-729.37,42.14c-22.15,1.28-39.03-17.04-39.03-40.91
					v-66.56c0-23.87,17.19-44.17,39.34-45.32l729.46-38.18c20.99-1.1,36.98,16.82,36.98,40.01V2520.75z"/>
				<g>
					<defs>
						<path id="SVGID_4_" d="M2102.6,977.56h-894.55v910.23l37.56-1.18c0,0.05,0,0.1,0,0.16c0,251.55,188.48,446.41,417.48,435.36
							c225.3-10.87,405.37-217.54,405.37-461.79c0-0.05,0-0.1,0-0.15l34.14-1.08V977.56z"/>
					</defs>
					<clipPath id="SVGID_5_">
						<use xlink:href="#SVGID_4_"  style="overflow:visible;"/>
					</clipPath>
					<g class="st11">
						
							<linearGradient id="SVGID_6_" gradientUnits="userSpaceOnUse" x1="7732.8384" y1="-200.4719" x2="7831.8159" y2="1873.5648" gradientTransform="matrix(-1 0 0 1 9484.0088 0)">
							<stop  offset="0" style="stop-color:#FCB148"/>
							<stop  offset="0.0521" style="stop-color:#FDBA46"/>
							<stop  offset="0.1424" style="stop-color:#FFC244"/>
							<stop  offset="0.3183" style="stop-color:#FFC444"/>
							<stop  offset="0.4849" style="stop-color:#FDB946"/>
							<stop  offset="0.7754" style="stop-color:#F99C4D"/>
							<stop  offset="0.8658" style="stop-color:#F8924F"/>
							<stop  offset="1" style="stop-color:#F8924F"/>
						</linearGradient>
						<path class="st12" d="M1371.94,1280.19v273.34c0,66.69,19.98,127.46,55.23,174.46l4.56,6.63c0.04,0.04-0.25,0.58-0.21,0.62
							c45.91,57.19,112.96,92.61,187.65,90.34l114.3-3.48c134.82-4.1,242.81-130.39,242.81-280.95v-205.24L1371.94,1280.19z"/>
						
							<linearGradient id="SVGID_7_" gradientUnits="userSpaceOnUse" x1="7704.502" y1="-251.0798" x2="7805.6807" y2="1869.0857" gradientTransform="matrix(-1 0 0 1 9484.0088 0)">
							<stop  offset="0" style="stop-color:#FCB148"/>
							<stop  offset="0.0521" style="stop-color:#FDBA46"/>
							<stop  offset="0.1424" style="stop-color:#FFC244"/>
							<stop  offset="0.3183" style="stop-color:#FFC444"/>
							<stop  offset="0.4849" style="stop-color:#FDB946"/>
							<stop  offset="0.7754" style="stop-color:#F99C4D"/>
							<stop  offset="0.8658" style="stop-color:#F8924F"/>
							<stop  offset="1" style="stop-color:#F8924F"/>
						</linearGradient>
						<polygon class="st13" points="1470.95,2399.52 1867.01,2379.43 1867.01,1739.46 1470.95,1750.38 						"/>
						
							<linearGradient id="SVGID_8_" gradientUnits="userSpaceOnUse" x1="8253.4238" y1="594.6516" x2="7492.3755" y2="1946.8054" gradientTransform="matrix(-1 0 0 1 9484.0088 0)">
							<stop  offset="0" style="stop-color:#FCB148"/>
							<stop  offset="0.0521" style="stop-color:#FDBA46"/>
							<stop  offset="0.1424" style="stop-color:#FFC244"/>
							<stop  offset="0.3183" style="stop-color:#FFC444"/>
							<stop  offset="0.4849" style="stop-color:#FDB946"/>
							<stop  offset="0.7754" style="stop-color:#F99C4D"/>
							<stop  offset="0.8658" style="stop-color:#F8924F"/>
							<stop  offset="1" style="stop-color:#F8924F"/>
						</linearGradient>
						<path class="st14" d="M1978.58,1446.34c0,0-309.03,172.91-328.6,276.78c-113.87,4.09-163.71-110.75-163.71-110.75
							l-102.67-259.26l7.16-99.24l587.31,104.32L1978.58,1446.34z"/>
						
							<linearGradient id="SVGID_9_" gradientUnits="userSpaceOnUse" x1="5912.8501" y1="3052.3911" x2="6073.4629" y2="3052.3911" gradientTransform="matrix(-0.769 -0.6394 -0.5152 0.7145 8110.3008 3112.1921)">
							<stop  offset="0" style="stop-color:#FCB148"/>
							<stop  offset="0.0521" style="stop-color:#FDBA46"/>
							<stop  offset="0.1424" style="stop-color:#FFC244"/>
							<stop  offset="0.3183" style="stop-color:#FFC444"/>
							<stop  offset="0.4849" style="stop-color:#FDB946"/>
							<stop  offset="0.7754" style="stop-color:#F99C4D"/>
							<stop  offset="0.8658" style="stop-color:#F8924F"/>
							<stop  offset="1" style="stop-color:#F8924F"/>
						</linearGradient>
						<path class="st15" d="M2016.71,1316.83l8,7.24c28.28,25.61,36.57,67.44,19.37,94.24l-117.09,182.41
							c-18.26,28.45-56.8,30.48-86.91,3.72l-2.95-2.62c-30.19-26.83-40.43-72.35-22-100.85l118.14-182.69
							C1950.61,1291.43,1988.35,1291.15,2016.71,1316.83z"/>
						
							<linearGradient id="SVGID_10_" gradientUnits="userSpaceOnUse" x1="6061.2012" y1="3040.2803" x2="6229.1157" y2="3040.2803" gradientTransform="matrix(-0.7644 -0.6335 -0.5163 0.713 8085.9136 3080.2444)">
							<stop  offset="0" style="stop-color:#FCB148"/>
							<stop  offset="0.0521" style="stop-color:#FDBA46"/>
							<stop  offset="0.1424" style="stop-color:#FFC244"/>
							<stop  offset="0.3183" style="stop-color:#FFC444"/>
							<stop  offset="0.4849" style="stop-color:#FDB946"/>
							<stop  offset="0.7754" style="stop-color:#F99C4D"/>
							<stop  offset="0.8658" style="stop-color:#F8924F"/>
							<stop  offset="1" style="stop-color:#F8924F"/>
						</linearGradient>
						<path class="st16" d="M1923.94,1189.04l5.41,4.89c30.03,27.16,37.26,73.69,17.04,104.82l-137.7,211.97
							c-21.49,33.09-64.87,37-96.91,8.64c-32.12-28.43-40.61-78.44-18.92-111.58l138.92-212.3
							C1852.17,1164.3,1893.83,1161.81,1923.94,1189.04z"/>
						
							<linearGradient id="SVGID_11_" gradientUnits="userSpaceOnUse" x1="6216.8599" y1="3033.4985" x2="6389.502" y2="3033.4985" gradientTransform="matrix(-0.7644 -0.6335 -0.5163 0.713 8085.9136 3080.2444)">
							<stop  offset="0" style="stop-color:#FCB148"/>
							<stop  offset="0.0521" style="stop-color:#FDBA46"/>
							<stop  offset="0.1424" style="stop-color:#FFC244"/>
							<stop  offset="0.3183" style="stop-color:#FFC444"/>
							<stop  offset="0.4849" style="stop-color:#FDB946"/>
							<stop  offset="0.7754" style="stop-color:#F99C4D"/>
							<stop  offset="0.8658" style="stop-color:#F8924F"/>
							<stop  offset="1" style="stop-color:#F8924F"/>
						</linearGradient>
						<path class="st17" d="M1806.03,1082.41l8.57,7.75c30.28,27.39,37.57,74.14,17.17,105.31l-138.92,212.3
							c-21.69,33.14-64.73,37.53-97.04,8.92l-3.17-2.8c-32.4-28.68-41.67-79.57-19.78-112.76l140.19-212.63
							C1733.64,1057.27,1775.67,1054.95,1806.03,1082.41z"/>
						
							<linearGradient id="SVGID_12_" gradientUnits="userSpaceOnUse" x1="6373.6689" y1="3058.2998" x2="6533.0161" y2="3058.2998" gradientTransform="matrix(-0.7644 -0.6335 -0.5163 0.713 8085.9136 3080.2444)">
							<stop  offset="0" style="stop-color:#FCB148"/>
							<stop  offset="0.0521" style="stop-color:#FDBA46"/>
							<stop  offset="0.1424" style="stop-color:#FFC244"/>
							<stop  offset="0.3183" style="stop-color:#FFC444"/>
							<stop  offset="0.4849" style="stop-color:#FDB946"/>
							<stop  offset="0.7754" style="stop-color:#F99C4D"/>
							<stop  offset="0.8658" style="stop-color:#F8924F"/>
							<stop  offset="1" style="stop-color:#F8924F"/>
						</linearGradient>
						<path class="st18" d="M1670.32,1036.49c28.36,25.59,37.19,67.72,19.74,94.18l-118.74,180.11
							c-18.52,28.09-57.34,29.85-87.56,3.1l-2.96-2.62c-30.29-26.82-40.39-72.04-21.71-100.18l114.83-172.88
							C1594.28,1007.55,1637.46,1006.84,1670.32,1036.49z"/>
						<linearGradient id="SVGID_13_" gradientUnits="userSpaceOnUse" x1="1373.5679" y1="-121.3249" x2="1472.5516" y2="1952.8451">
							<stop  offset="0" style="stop-color:#FCB148"/>
							<stop  offset="0.0521" style="stop-color:#FDBA46"/>
							<stop  offset="0.1424" style="stop-color:#FFC244"/>
							<stop  offset="0.3183" style="stop-color:#FFC444"/>
							<stop  offset="0.4849" style="stop-color:#FDB946"/>
							<stop  offset="0.7754" style="stop-color:#F99C4D"/>
							<stop  offset="0.8658" style="stop-color:#F8924F"/>
							<stop  offset="1" style="stop-color:#F8924F"/>
						</linearGradient>
						<path class="st19" d="M1645.22,1824.78l-14.28,0.43c-79.3,2.41-150.76-35.95-199.55-97.86c-0.04-0.05-0.04-0.33-0.09-0.38
							l-5.45-7.32l-133.13-175.02c-39.31-51.63-59.18-118.81-55.44-187.33c4.25-77.82,58.57-140.82,127.3-147.9l1.3-0.15
							l203.14-20.99c39.35-4.08,74.13,27.96,78.72,72.41c1.69,16.31,0.33,32.38-3.55,47.41c-9.86,38.19-36.27,69.71-71.76,81.68
							l-66.18,22.22c0,0,120.35,8.43,141.57,231.38C1652.52,1692.44,1652.43,1752.9,1645.22,1824.78z"/>
						<linearGradient id="SVGID_14_" gradientUnits="userSpaceOnUse" x1="1582.3666" y1="2055.6597" x2="1493.2634" y2="1041.2646">
							<stop  offset="0" style="stop-color:#FCB148"/>
							<stop  offset="0.0521" style="stop-color:#FDBA46"/>
							<stop  offset="0.1424" style="stop-color:#FFC244"/>
							<stop  offset="0.3183" style="stop-color:#FFC444"/>
							<stop  offset="0.4849" style="stop-color:#FDB946"/>
							<stop  offset="0.7754" style="stop-color:#F99C4D"/>
							<stop  offset="0.8658" style="stop-color:#F8924F"/>
							<stop  offset="1" style="stop-color:#F8924F"/>
						</linearGradient>
						<path class="st20" d="M1647.82,1642.87c-35.85-202.09-286.82-228.37-244.36-228.03c47.14,0.4,47.14-116.02,47.14-116.02
							s42.81,58.08,54.28,72.62c11.45,14.53,134.78-64.89,134.78-64.89c1.57,0.3,3.05,0.77,4.54,1.52
							c-9.86,38.19-36.27,69.71-71.76,81.68l-66.18,22.22C1506.25,1411.97,1626.6,1419.92,1647.82,1642.87z"/>
					</g>
				</g>
			</g>
		</g>
		<g>
			
				<linearGradient id="SVGID_15_" gradientUnits="userSpaceOnUse" x1="4642.3037" y1="1916.8976" x2="4967.4429" y2="1993.702" gradientTransform="matrix(-1 0 0 1 5776 0)">
				<stop  offset="0" style="stop-color:#311944"/>
				<stop  offset="1" style="stop-color:#893976"/>
			</linearGradient>
			<path class="st21" d="M918.31,1785.56c-106.76,3.5-196.43,73.03-213.9,161.06c-0.02,0.11-0.04,0.23-0.07,0.35
				c-0.95,4.82-1.67,9.69-2.18,14.61c-0.03,0.32-0.07,0.65-0.1,0.97c-0.22,2.3-0.39,4.61-0.51,6.93c-0.02,0.42-0.04,0.84-0.06,1.26
				c-0.11,2.37-0.18,4.75-0.18,7.14c0,102.29,97.86,179.81,217,173.23c3.17-0.18,6.32-0.42,9.45-0.71c0.31-0.03,0.61-0.05,0.92-0.08
				c2.97-0.29,5.91-0.63,8.84-1.01c0.46-0.06,0.91-0.12,1.37-0.18c2.84-0.39,5.66-0.83,8.46-1.31c0.53-0.09,1.06-0.18,1.58-0.28
				c2.75-0.49,5.48-1.02,8.19-1.6c0.55-0.12,1.1-0.24,1.65-0.36c2.7-0.59,5.38-1.22,8.04-1.89c0.52-0.13,1.03-0.27,1.54-0.41
				c2.64-0.69,5.27-1.41,7.87-2.18c0.47-0.14,0.93-0.29,1.4-0.43c2.34-0.71,4.67-1.45,6.97-2.23c0.58-0.2,1.17-0.38,1.76-0.58
				c2.34-0.8,4.66-1.65,6.96-2.52c0.5-0.19,1.01-0.35,1.5-0.54c-0.01-0.01-0.01-0.01-0.02-0.02
				c79.19-30.47,134.87-99.06,134.87-175.75C1129.66,1859.4,1035.72,1781.71,918.31,1785.56z"/>
			
				<linearGradient id="SVGID_16_" gradientUnits="userSpaceOnUse" x1="-5174.9995" y1="1822.4667" x2="-4883.9805" y2="2362.2207" gradientTransform="matrix(1 0 0 1 6034.3208 0)">
				<stop  offset="0" style="stop-color:#FCB148"/>
				<stop  offset="0.0521" style="stop-color:#FDBA46"/>
				<stop  offset="0.1424" style="stop-color:#FFC244"/>
				<stop  offset="0.3183" style="stop-color:#FFC444"/>
				<stop  offset="0.4849" style="stop-color:#FDB946"/>
				<stop  offset="0.7754" style="stop-color:#F99C4D"/>
				<stop  offset="0.8658" style="stop-color:#F8924F"/>
				<stop  offset="1" style="stop-color:#F8924F"/>
			</linearGradient>
			<path class="st22" d="M1152.27,1959.04c0,99.63-93.94,185.59-211.36,192.07c-119.13,6.58-217-70.94-217-173.23
				c0-102.29,97.86-188.42,217-192.32C1058.32,1781.71,1152.27,1859.4,1152.27,1959.04z"/>
			<g class="st23">
				
					<linearGradient id="SVGID_17_" gradientUnits="userSpaceOnUse" x1="-5256.6724" y1="1858.3673" x2="-4972.0967" y2="2429.4426" gradientTransform="matrix(1 0 0 1 6034.3208 0)">
					<stop  offset="0" style="stop-color:#FCB148"/>
					<stop  offset="0.0521" style="stop-color:#FDBA46"/>
					<stop  offset="0.1424" style="stop-color:#FFC244"/>
					<stop  offset="0.3183" style="stop-color:#FFC444"/>
					<stop  offset="0.4849" style="stop-color:#FDB946"/>
					<stop  offset="0.7754" style="stop-color:#F99C4D"/>
					<stop  offset="0.8658" style="stop-color:#F8924F"/>
					<stop  offset="1" style="stop-color:#F8924F"/>
				</linearGradient>
				<path class="st24" d="M992.74,2101.84c-25.71-52.54,0.28-104.11-34.5-137.36c-35.49-33.92-81.83,1.08-132-25.79
					c-19.48-10.43-41.19-31.09-57.37-74.85c-28.17,32.18-44.95,71.78-44.95,114.04c0,102.29,97.86,179.81,217,173.23
					c27.05-1.49,52.84-7.2,76.51-16.3C1005.75,2124,998.02,2112.65,992.74,2101.84z"/>
			</g>
			<g>
				<path class="st2" d="M887.94,2093.43l8.64-69.14l-26.98-0.35v-35.67l32.29,0.55l5.3-43.15l-28.25-0.61v-36.02l32.89,0.85
					l8.27-66.87l29.31,0.97l-8.21,66.65l29.83,0.77l8.49-66.42l28.92,0.96l-8.43,66.21l25.89,0.67v35.43l-30.43-0.66l-5.2,42.73
					l26.91,0.46v35.08l-31.8-0.41l-8.15,68.46l-29.46-0.16l8.2-68.69l-29.93-0.39l-8.26,68.92L887.94,2093.43z M961.22,1989.82
					l5.23-42.87l-29.86-0.65l-5.27,43.01L961.22,1989.82z"/>
			</g>
		</g>
		<g>
			
				<linearGradient id="SVGID_18_" gradientUnits="userSpaceOnUse" x1="4833.4077" y1="507.6332" x2="4125.1924" y2="2278.1721" gradientTransform="matrix(-1 0 0 1 5776 0)">
				<stop  offset="0" style="stop-color:#444B8C"/>
				<stop  offset="0.9964" style="stop-color:#26264F"/>
			</linearGradient>
			<path class="st25" d="M851.55,839.63c0,6.32-0.24,12.58,0.38,18.75c0.27,2.66,0.31,5.28,0.7,7.87
				c0.77,5.22,1.61,10.37,2.82,15.43c0.59,2.53,1.17,5.06,1.86,7.56c0.47,1.64,0.94,3.32,1.45,4.96
				c12.09,38.64,36.71,72.12,69.52,97.1c0.71,0.54,1.38,1.08,2.1,1.58c11.29,8.41,23.5,15.78,36.51,22.07
				c0.8,0.38,1.6,0.76,2.43,1.14c5.72,2.69,11.59,5.15,17.6,7.4c2.55,0.95,5.16,1.87,7.77,2.72c1.75,0.6,3.5,1.17,5.27,1.71
				c2.64,0.82,5.31,1.58,8,2.31c1.78,0.47,3.59,0.95,5.39,1.39c22.65,5.57,46.68,8.03,71.43,6.86c1.84-0.1,3.68-0.19,5.48-0.32
				c0.53-0.03,1.07-0.09,1.57-0.13c0.15,0,0.3-0.03,0.45-0.03c1.15-0.09,2.31-0.16,3.44-0.28c0.59-0.06,1.16-0.09,1.72-0.16
				c1.24-0.13,2.52-0.25,3.76-0.38c0.53-0.06,1.07-0.16,1.6-0.22c1.28-0.13,2.58-0.28,3.85-0.47c0.47-0.06,0.92-0.13,1.39-0.19
				c1.36-0.19,2.73-0.38,4.12-0.6c0.33-0.06,0.68-0.13,1.04-0.19c1.51-0.22,2.99-0.47,4.51-0.76c0.21-0.03,0.41-2.27,0.59-2.3
				c1.69-0.32,3.38-3.18,5.04-3.18h0.03c14.11,0,27.68-4.72,40.58-9.81c-0.03-0.03-0.03,1.07-0.06,1.04c4.03-1.58,8-2.74,11.92-4.54
				c3.47-1.61,6.88-3.01,10.23-4.75c1.63,1.39,3.53,2.98,5.63,4.53c26.94-12.36,50.68-29.31,69.95-49.73
				c-2.25-3.26-4.42-6.64-6.4-10.21c27.77-33.77,44.07-75.27,44.07-119.5c0-106.08-93.75-195.11-214.5-199
				c-3.94-0.13-6.81-0.15-10.7-0.09c-118.32,1.61-217.7,85.41-221.34,193.42v0.13c0,1.36,0,2.75,0,4.14v0.63
				C852.74,836.88,851.55,838.24,851.55,839.63z"/>
			
				<linearGradient id="SVGID_19_" gradientUnits="userSpaceOnUse" x1="4597.605" y1="674.7165" x2="4921.6313" y2="1275.6895" gradientTransform="matrix(-1 0 0 1 5776 0)">
				<stop  offset="0" style="stop-color:#FF9085"/>
				<stop  offset="1" style="stop-color:#FB6FBB"/>
			</linearGradient>
			<path class="st26" d="M866.52,838.9c0,113.29,102.73,200.75,225.76,199.11c2.85-0.03,5.72-0.13,8.6-0.25
				c2.61-0.13,5.22-0.28,7.79-0.51c2.64-0.19,5.28-0.44,7.88-0.73c0.53-0.06,1.07-0.09,1.6-0.19c1.69-0.19,3.35-0.38,5.04-0.63
				c1.66-0.22,3.29-0.44,4.95-0.73c2.37-0.35,4.74-0.76,7.08-1.2c1.42-0.28,2.82-0.54,4.21-0.82c14.08-2.91,27.65-6.96,40.55-12.08
				c3.97-1.58,7.85-3.23,11.68-5c26.94-12.36,50.68-29.37,69.95-49.8c33.64-35.54,53.76-81.32,53.76-130.49
				c0-106.08-93.75-195.12-214.5-199.01c-9.4-0.32-18.67-0.09-27.83,0.63c-98.18,7.57-180.02,71.78-201.17,157.76
				c0,0.01-0.01,0.02-0.01,0.03c-0.53,2.16-1.03,4.34-1.48,6.53c-0.15,0.71-0.28,1.42-0.42,2.12c-0.34,1.74-0.68,3.48-0.97,5.24
				c-0.43,2.58-0.82,5.17-1.14,7.78c0.03,0.03,0,0.06,0,0.13c-0.12,0.98-0.24,1.99-0.33,2.97c-0.15,1.23-0.27,2.47-0.36,3.7
				c-0.12,1.36-0.24,2.75-0.3,4.11c-0.03,0.41-0.06,0.85-0.09,1.26c-0.09,1.58-0.15,3.16-0.18,4.74
				C866.55,835.36,866.52,837.13,866.52,838.9z"/>
			
				<linearGradient id="SVGID_20_" gradientUnits="userSpaceOnUse" x1="4597.605" y1="674.7165" x2="4921.6313" y2="1275.6895" gradientTransform="matrix(-1 0 0 1 5776 0)">
				<stop  offset="0" style="stop-color:#AA80F9"/>
				<stop  offset="0.9964" style="stop-color:#6165D7"/>
			</linearGradient>
			<path class="st27" d="M866.52,838.9c0,113.29,102.73,200.75,225.76,199.11c2.85-0.03,5.72-0.13,8.6-0.25
				c2.61-0.13,5.22-0.28,7.79-0.51c2.64-0.19,5.28-0.44,7.88-0.73c0.53-0.06,1.07-0.09,1.6-0.19c1.69-0.19,3.35-0.38,5.04-0.63
				c1.66-0.22,3.29-0.44,4.95-0.73c2.37-0.35,4.74-0.76,7.08-1.2c1.42-0.28,2.82-0.54,4.21-0.82c14.08-2.91,27.65-6.96,40.55-12.08
				c3.97-1.58,7.85-3.23,11.68-5c26.94-12.36,50.68-29.37,69.95-49.8c33.64-35.54,53.76-81.32,53.76-130.49
				c0-106.08-93.75-195.12-214.5-199.01c-9.4-0.32-18.67-0.09-27.83,0.63c-98.18,7.57-180.02,71.78-201.17,157.76
				c0,0.01-0.01,0.02-0.01,0.03c-0.53,2.16-1.03,4.34-1.48,6.53c-0.15,0.71-0.28,1.42-0.42,2.12c-0.34,1.74-0.68,3.48-0.97,5.24
				c-0.43,2.58-0.82,5.17-1.14,7.78c0.03,0.03,0,0.06,0,0.13c-0.12,0.98-0.24,1.99-0.33,2.97c-0.15,1.23-0.27,2.47-0.36,3.7
				c-0.12,1.36-0.24,2.75-0.3,4.11c-0.03,0.41-0.06,0.85-0.09,1.26c-0.09,1.58-0.15,3.16-0.18,4.74
				C866.55,835.36,866.52,837.13,866.52,838.9z"/>
			<g>
				<path class="st2" d="M1043.3,952.03c0.43-92.84,3.22-160.43,5.94-168.56c0.58-1.72,1.62-3.95,2.95-7.78
					c14.56-41.96,3.42-69.26,16.08-78.37c5.62-4.04,12.75-2.22,18.68-0.7c28.55,7.3,47.22,50.09,40.86,82.64
					c-0.99,5.06-2.41,8.98-3.24,11.09c1.97,0.08,3.5,0.12,5.03,0.2c12.79,0.65,25.68,0.45,38.35,2.14
					c25.34,3.37,44.16,26.86,43.84,54.1c-0.17,14.59-0.07,29.36-2.14,43.72c-3.3,22.95-16.99,38.83-34.98,50.7
					c-10.44,6.88-21.55,11.47-33.33,13.35c-6.84,1.09-12.13,0.99-14.9,0.92C1096.44,954.74,1049.8,952.36,1043.3,952.03z"/>
				<path class="st2" d="M1028.07,786.57c-1.89,55.16-3.77,109.72-5.65,164.67c-11.01-0.43-21.86-0.55-32.66-1.41
					c-4.98-0.4-7.96-5.36-7.82-11.4c0.26-10.68,0.67-21.35,1.04-32.03c1.24-35.95,2.48-71.91,3.74-107.86
					c0.34-9.56,4.13-13.37,12.98-13.06C1009.07,785.8,1018.45,786.2,1028.07,786.57z"/>
			</g>
			<g class="st23">
				
					<linearGradient id="SVGID_21_" gradientUnits="userSpaceOnUse" x1="-5113.9731" y1="709.154" x2="-4796.8735" y2="1345.4968" gradientTransform="matrix(1 0 0 1 6034.3208 0)">
					<stop  offset="3.597120e-03" style="stop-color:#E38DDD"/>
					<stop  offset="1" style="stop-color:#9571F6"/>
				</linearGradient>
				<path class="st28" d="M1154.69,984.67c-26.59-57.94,0.29-113.4-35.72-151.03c-37.12-38.79-86.18-2.2-140.06-34.29
					c-21.13-12.59-44.83-36.85-62.59-86.96c-31.13,34.67-49.8,78.62-49.8,126.5c0,115.92,107.56,204.83,234.36,198.86
					c28.18-1.33,54.85-7.24,79.15-16.83C1168.08,1009.01,1160.14,996.53,1154.69,984.67z"/>
			</g>
		</g>
		<g>
			
				<linearGradient id="SVGID_22_" gradientUnits="userSpaceOnUse" x1="5446.1685" y1="365.3618" x2="4609.1699" y2="2457.8591" gradientTransform="matrix(-1 0 0 1 5776 0)">
				<stop  offset="0" style="stop-color:#311944"/>
				<stop  offset="1" style="stop-color:#893976"/>
			</linearGradient>
			<path class="st29" d="M467.85,1371.77c0,7.47-0.28,14.87,0.45,22.16c0.31,3.14,0.37,6.24,0.82,9.3
				c0.91,6.17,1.9,12.26,3.34,18.24c0.7,2.99,1.39,5.98,2.19,8.93c0.56,1.94,1.11,3.92,1.71,5.87
				c14.29,45.66,43.38,85.24,82.16,114.76c0.84,0.64,1.64,1.27,2.48,1.87c13.35,9.94,27.77,18.65,43.15,26.08
				c0.95,0.45,1.89,0.9,2.87,1.35c6.76,3.18,13.7,6.09,20.81,8.74c3.01,1.12,6.1,2.21,9.18,3.21c2.07,0.71,4.13,1.38,6.23,2.02
				c3.12,0.97,6.27,1.87,9.46,2.73c2.1,0.56,4.24,1.12,6.37,1.64c26.76,6.58,55.17,9.49,84.42,8.11c2.17-0.11,4.34-0.22,6.48-0.37
				c0.63-0.04,1.26-0.11,1.86-0.15c0.18,0,0.35-0.04,0.53-0.04c1.36-0.11,2.73-0.19,4.06-0.34c0.7-0.07,1.37-0.11,2.03-0.19
				c1.47-0.15,2.98-0.3,4.45-0.45c0.63-0.07,1.26-0.19,1.89-0.26c1.51-0.15,3.05-0.34,4.55-0.56c0.56-0.07,1.09-0.15,1.65-0.22
				c1.61-0.22,3.22-0.45,4.87-0.71c0.38-0.07,0.81-0.15,1.22-0.22c1.79-0.26,3.54-0.56,5.33-0.9c0.24-0.04,0.49-2.68,0.7-2.72
				c2-0.37,3.99-3.76,5.96-3.76h0.03c16.67,0,32.72-5.58,47.95-11.6c-0.03-0.04-0.03,1.27-0.07,1.23c4.76-1.87,9.46-3.24,14.08-5.37
				c4.1-1.91,8.13-3.56,12.09-5.62c1.93,1.64,4.17,3.53,6.66,5.36c31.84-14.61,59.9-34.63,82.67-58.77
				c-2.66-3.85-5.22-7.84-7.57-12.07c32.82-39.91,52.09-88.96,52.09-141.23c0-125.37-110.8-230.59-253.51-235.19
				c-4.66-0.15-8.05-0.18-12.64-0.11c-139.84,1.91-257.29,100.94-261.59,228.59v0.15c0,1.61,0,3.25,0,4.9v0.75
				C469.26,1368.52,467.85,1370.13,467.85,1371.77z"/>
			<g>
				<path class="st30" d="M485.54,1370.91c0,133.89,121.41,237.26,266.82,235.31c3.36-0.04,6.76-0.15,10.16-0.3
					c3.08-0.15,6.16-0.34,9.21-0.6c3.12-0.22,6.23-0.52,9.32-0.86c0.63-0.07,1.26-0.11,1.89-0.22c2-0.22,3.96-0.45,5.95-0.75
					c1.96-0.26,3.89-0.52,5.85-0.86c2.8-0.41,5.6-0.9,8.37-1.42c1.68-0.34,3.33-0.64,4.97-0.97c16.64-3.44,32.68-8.22,47.92-14.28
					c4.69-1.87,9.28-3.81,13.8-5.9c31.84-14.61,59.9-34.72,82.67-58.86c39.76-42,63.54-96.11,63.54-154.22
					c0-125.37-110.8-230.6-253.5-235.2c-11.1-0.37-22.07-0.11-32.89,0.75c-116.03,8.94-212.76,84.83-237.75,186.45
					c0,0.01-0.01,0.03-0.01,0.04c-0.63,2.56-1.22,5.12-1.75,7.71c-0.17,0.83-0.33,1.67-0.49,2.51c-0.4,2.06-0.81,4.11-1.15,6.19
					c-0.51,3.05-0.97,6.11-1.35,9.2c0.04,0.04,0,0.07,0,0.15c-0.14,1.16-0.28,2.35-0.38,3.51c-0.18,1.46-0.31,2.91-0.42,4.37
					c-0.14,1.61-0.28,3.25-0.35,4.86c-0.03,0.49-0.07,1.01-0.1,1.49c-0.11,1.87-0.18,3.74-0.21,5.61
					C485.57,1366.72,485.54,1368.82,485.54,1370.91z"/>
				<g>
					<path class="st2" d="M907.88,1305.47L907.88,1305.47c-10.73-32.63-37.53-56.06-69.2-56.47c-41.82-0.54-76.16,39.19-76.16,88.73
						c0-49.54-34.74-90.15-78.15-90.71c-33.71-0.43-62.83,23.37-74.64,57.46l0,0c-45.25,123.06,152.78,231.03,152.78,231.03
						S948.26,1421.16,907.88,1305.47z"/>
				</g>
				<g class="st23">
					
						<linearGradient id="SVGID_23_" gradientUnits="userSpaceOnUse" x1="-5485.1626" y1="1217.5686" x2="-5110.4009" y2="1969.6255" gradientTransform="matrix(1 0 0 1 6034.3208 0)">
						<stop  offset="0" style="stop-color:#FF9085"/>
						<stop  offset="1" style="stop-color:#FB6FBB"/>
					</linearGradient>
					<path class="st31" d="M826.11,1543.18c-31.42-68.47,0.34-134.02-42.22-178.5c-43.87-45.84-101.86-2.59-165.53-40.53
						c-24.98-14.88-52.98-43.55-73.97-102.77c-36.79,40.98-58.85,92.92-58.85,149.51c0,137,127.12,242.07,276.98,235.03
						c33.31-1.57,64.82-8.56,93.54-19.89C841.94,1571.95,832.55,1557.2,826.11,1543.18z"/>
				</g>
			</g>
		</g>
		<g>
			
				<linearGradient id="SVGID_24_" gradientUnits="userSpaceOnUse" x1="4738.9297" y1="1875.0638" x2="4905.7036" y2="2055.4517" gradientTransform="matrix(-1 0 0 1 7005.2852 0)">
				<stop  offset="0" style="stop-color:#FFFAD4"/>
				<stop  offset="1" style="stop-color:#311944"/>
			</linearGradient>
			<path class="st32" d="M2273.09,1910.81c0,0,17.23-46.7,10.27-49.18c-6.96-2.47-6.3-32.17-17.23-25.1
				c-10.94,7.07-20.55,11.67-11.93,26.52c8.62,14.85,11.27,23.69,8.95,30.76c-2.32,7.07-3.31,13.79-3.31,13.79L2273.09,1910.81z"/>
			
				<linearGradient id="SVGID_25_" gradientUnits="userSpaceOnUse" x1="2015.8593" y1="1954.1151" x2="2297.6846" y2="2212.0564" gradientTransform="matrix(1 0 0 1 796.3925 0)">
				<stop  offset="3.597000e-03" style="stop-color:#4759BB"/>
				<stop  offset="1" style="stop-color:#444B8C"/>
			</linearGradient>
			<path class="st33" d="M2584.02,2050.97c-59.87-37.31-85.52-33.01-102.88-66.52c-17.17-33.14-17.13-85.73,11.28-113.59
				c2.09-2.05,23.73-22.61,53.01-19.08c44.29,5.33,47.55,58.72,97.23,83.17c42.09,20.73,88,6.15,119.07-3.72
				c74.81-23.76,85.92-68.69,124.71-61.53c48.6,8.97,52.9,83.54,101.32,88.13c32.36,3.07,40.07-29.32,82.62-38.24
				c49.99-10.48,104.85,20.51,135.62,58.2c56.23,68.89,41.42,171.71,6.24,234.47c-28.91,51.56-91.06,110.87-143.41,98.12
				c-41.36-10.08-54.83-59.83-90.41-54.88c-25.3,3.52-26.21,29.74-56.12,43.24c-49.1,22.16-109.73-20.08-126.26-31.6
				c-47.13-32.84-39.63-53.84-100.4-119.68C2671.61,2121.46,2637.04,2084.01,2584.02,2050.97z"/>
			<path class="st34" d="M2495.31,1974.72c-0.66-1.79-25.54,3.61-28.22,4.18c-9.4,1.97-18.66,4.61-27.74,7.88
				c-17.64,6.36-33.6,16-49.4,26.33c-23.19,15.18-59.3,34.17-81.67,6.76c-21.53-26.37-18.81-63.57-20.19-96.15
				c-0.08-1.91-1.75-24.24-1.66-24.26c-0.01,0-35.96,5.3-35.96,5.3s-164.29,305.29,203.28,264.01
				C2453.77,2168.78,2518.84,2038.82,2495.31,1974.72z"/>
			
				<linearGradient id="SVGID_26_" gradientUnits="userSpaceOnUse" x1="2116.8447" y1="1870.923" x2="2323.885" y2="2094.864" gradientTransform="matrix(-1 0 0 1 4936.4585 0)">
				<stop  offset="0" style="stop-color:#FFFAD4"/>
				<stop  offset="1" style="stop-color:#311944"/>
			</linearGradient>
			<path class="st35" d="M2810.17,1910.07l-4.97-39.08c0,0,12.16-56.03,20.5-48.6c8.33,7.42,14.08,20.25,5.99,34.56
				c-8.09,14.32-9.09,12.4-8.59,25.66c0.5,13.26,2.6,27.46,2.6,27.46H2810.17z"/>
			<path class="st34" d="M2592.85,1974.72c0.66-1.79,25.54,3.61,28.22,4.18c9.4,1.97,18.67,4.61,27.74,7.88
				c17.64,6.36,33.6,16,49.4,26.33c23.19,15.18,59.3,34.17,81.67,6.76c21.53-26.37,18.81-63.57,20.19-96.15
				c0.08-1.91,1.75-24.24,1.65-24.26c0.01,0,35.96,5.3,35.96,5.3s164.29,305.29-203.29,264.01
				C2634.39,2168.78,2569.32,2038.82,2592.85,1974.72z"/>
			
				<linearGradient id="SVGID_27_" gradientUnits="userSpaceOnUse" x1="2358.196" y1="2893.0046" x2="2374.5237" y2="3100.812" gradientTransform="matrix(1 0 0 1 170.1298 0)">
				<stop  offset="3.597000e-03" style="stop-color:#26264F"/>
				<stop  offset="1" style="stop-color:#444B8C"/>
			</linearGradient>
			<path class="st36" d="M2558.8,2996.82c0,0-61.5,29.82-62.5,34.58c-1,4.76,39.55-1.6,56.1-0.91c16.55,0.69,30.17-4.53,28.67-12.01
				c-1.5-7.48-7.29-26.3-7.29-26.3L2558.8,2996.82z"/>
			
				<linearGradient id="SVGID_28_" gradientUnits="userSpaceOnUse" x1="2398.3467" y1="3008.8567" x2="2395.3828" y2="2793.9722" gradientTransform="matrix(1 0 0 1 170.1298 0)">
				<stop  offset="0" style="stop-color:#893976"/>
				<stop  offset="1" style="stop-color:#311944"/>
			</linearGradient>
			<path class="st37" d="M2556.55,2972.63l3.74,29.54c0,0,9.74,3.7,16.28-0.67l2.79-32.4L2556.55,2972.63z"/>
			
				<linearGradient id="SVGID_29_" gradientUnits="userSpaceOnUse" x1="2646.8115" y1="2868.7239" x2="2663.165" y2="3076.8567" gradientTransform="matrix(1 0 0 1 170.1298 0)">
				<stop  offset="3.597000e-03" style="stop-color:#26264F"/>
				<stop  offset="1" style="stop-color:#444B8C"/>
			</linearGradient>
			<path class="st38" d="M2846.15,2973.33l7.15,12.25c2,3.43,2.6,7.55,1.64,11.45c-2.5,10.19-7.5,30.04-9.67,35.22
				c-2.97,7.05-42.76,11.24-42.76,11.24s-3.55-5.33,4.71-11.76c8.26-6.43,13.57-7.45,16.49-16.94c2.92-9.49,4.86-36.35,4.86-36.35
				L2846.15,2973.33z"/>
			
				<linearGradient id="SVGID_30_" gradientUnits="userSpaceOnUse" x1="2662.9312" y1="3004.9626" x2="2659.9675" y2="2790.0947" gradientTransform="matrix(1 0 0 1 170.1298 0)">
				<stop  offset="0" style="stop-color:#893976"/>
				<stop  offset="1" style="stop-color:#311944"/>
			</linearGradient>
			<path class="st39" d="M2816.38,2942.2c2.61,2.22,15.39,43.61,15.39,43.61s4.14,5.64,12-2.68c7.86-8.33,3.56-3.74,3.56-3.74
				l-1.47-40.7L2816.38,2942.2z"/>
			
				<linearGradient id="SVGID_31_" gradientUnits="userSpaceOnUse" x1="1723.9926" y1="2660.8438" x2="1872.8834" y2="2660.8438" gradientTransform="matrix(1 0 0 1 796.3925 0)">
				<stop  offset="3.597000e-03" style="stop-color:#26264F"/>
				<stop  offset="1" style="stop-color:#444B8C"/>
			</linearGradient>
			<path class="st40" d="M2522.71,2379.21c-3.24,88.11-3.38,183.83,1.38,286.1c5.35,115.16,16.1,221.59,29.65,318.07
				c5.04,0.17,10.33,0.2,15.86,0.03c3.73-0.11,7.35-0.3,10.85-0.56c7.03-20.01,15.34-46.32,22.79-77.74
				c7.82-33.04,12.55-62.68,15.91-91.03c11.84-99.8-2.04-108.5,7.58-182.46c8.51-65.5,20.62-68.06,34.82-161.05
				c15.42-100.9,3.94-116.04-1.64-121.51C2636.15,2325.78,2580.33,2341.63,2522.71,2379.21z"/>
			
				<linearGradient id="SVGID_32_" gradientUnits="userSpaceOnUse" x1="1734.288" y1="2660.8503" x2="1872.8831" y2="2660.8503" gradientTransform="matrix(1 0 0 1 796.3925 0)">
				<stop  offset="3.597000e-03" style="stop-color:#26264F"/>
				<stop  offset="1" style="stop-color:#444B8C"/>
			</linearGradient>
			<path class="st41" d="M2659.91,2349.06c-22.66-22.21-74.49-8.76-129.23,25.13c62.97,72.58,69.84,119.66,62.29,150.21
				c-8.53,34.53-34.47,44.47-34.37,82.23c0.12,46.4,39.37,58.69,38.54,107.78c-0.55,32.46-17.8,32.13-21.87,72.23
				c-4.82,47.44,17.71,63.79,10.42,98.89c-3.14,15.1-12.1,34.83-37.63,55.16c1.84,14.42,3.73,28.68,5.69,42.69
				c5.04,0.17,10.33,0.2,15.86,0.03c3.73-0.11,7.35-0.3,10.85-0.56c7.03-20.01,15.34-46.31,22.79-77.74
				c7.82-33.04,12.55-62.68,15.91-91.03c11.84-99.79-2.04-108.5,7.58-182.46c8.51-65.5,20.62-68.06,34.82-161.05
				C2676.96,2369.67,2665.49,2354.53,2659.91,2349.06z"/>
			
				<linearGradient id="SVGID_33_" gradientUnits="userSpaceOnUse" x1="1765.3279" y1="2645.1868" x2="2065.0615" y2="2645.1868" gradientTransform="matrix(1 0 0 1 796.3925 0)">
				<stop  offset="3.597000e-03" style="stop-color:#26264F"/>
				<stop  offset="1" style="stop-color:#444B8C"/>
			</linearGradient>
			<path class="st42" d="M2561.72,2377.73c54.22,84.64,112.7,189.97,165,316.05c39.52,95.28,68.19,184.74,89.24,264.46
				c2.85,1.41,9.57,4.21,18.15,3c11.71-1.65,18.73-9.63,20.56-11.85c8.57-57.15,7.62-105.56,4.71-140.49
				c-1.86-22.37-5.16-59.61-18.52-105.6c-14.97-51.51-25.26-54.4-44.79-108.9c-20.27-56.56-15.36-70.68-34.77-141.46
				c-7.97-29.08-21.32-72.35-43.35-124.11C2665.88,2345.13,2613.8,2361.43,2561.72,2377.73z"/>
			<path class="st34" d="M2386.63,2044.65c3.42,16.33,56.59,7.59,67.57,37.21c5.93,15.87-6.6,25.96-7.12,52.95
				c-0.6,30.25,14.52,47.39,26.09,71.15c16.94,34.83,17.02,68.94,17.14,137.21c0.16,97.16-22.35,116.67-3.1,148.02
				c3.7,6.07,8.19,11.28,13.2,15.74c28.67,25.71,74.29,27.7,88.09,28.3c55.56,2.42,62.12-25.71,122.37-29.1
				c68.8-3.82,78.62,31.86,127.82,16.63c44.98-13.92,60.09-50.87,95.09-43.23c21.87,4.79,27.68,21.81,48.32,19.98
				c20.76-1.87,42.19-21.47,43.67-41.58c1.83-25.03-26.84-56.51-71.7-56.55c-17.86,6.66-47.41,14.42-80.3,5.81
				c-53.85-14.08-81.89-62.96-113.02-117.22c-14.12-24.61-35.99-62.79-49.48-111.71c-7.12-25.63-11.93-54.22-12.09-85.36
				c-0.2-37.33,6.44-48.24-3.1-68.18c-30.98-64.78-151.09-55.11-161.27-54.18C2453.01,1978.08,2382.53,2024.96,2386.63,2044.65z"/>
			
				<linearGradient id="SVGID_34_" gradientUnits="userSpaceOnUse" x1="4089.593" y1="2176.9519" x2="4346.1377" y2="2673.0886" gradientTransform="matrix(-1 0 0 1 7005.2852 0)">
				<stop  offset="0" style="stop-color:#FFC444"/>
				<stop  offset="0.9964" style="stop-color:#F36F56"/>
			</linearGradient>
			<path class="st43" d="M2500.41,2506.92c28.67,25.71,74.29,27.7,88.09,28.3c55.56,2.42,62.12-25.71,122.37-29.1
				c68.8-3.82,78.62,31.86,127.82,16.63c44.98-13.92,60.09-50.87,95.09-43.23c21.87,4.79,27.68,21.81,48.32,19.98
				c20.76-1.87,42.19-21.47,43.67-41.58c1.83-25.03-26.84-56.51-71.7-56.55c-17.86,6.66-47.41,14.42-80.3,5.81
				c-53.85-14.08-81.89-62.96-113.02-117.22c-14.12-24.61-35.99-62.79-49.48-111.71c-2.98,1.4-6.08,2.63-9.54,2.84
				c-21,1.23-30.82-4.24-30.07,22.1c0.36,11.63,5.69,30.38-8.55,34.96c-11.02,3.52-21.4-15.19-31.86-7.76
				c-14.2,10.14,3.34,34.41,9.9,43.74c11.34,16.08,22.47,31.69,23.35,52.69c2.31,53.24-57.83,79.34-47.28,114.93
				c9.15,30.89,59.41,28.68,59.41,45.23c0,19.69-71.19,51.34-132.15,27.11c-18.49-7.34-32.69-18.54-43.27-29.23
				C2500.13,2493.17,2499.65,2500.26,2500.41,2506.92z"/>
			
				<linearGradient id="SVGID_35_" gradientUnits="userSpaceOnUse" x1="1961.0212" y1="2069.498" x2="2064.9539" y2="1918.6282" gradientTransform="matrix(0.9787 -0.2054 0.2054 0.9787 181.5772 371.9818)">
				<stop  offset="0" style="stop-color:#FFFAD4"/>
				<stop  offset="1" style="stop-color:#311944"/>
			</linearGradient>
			<path class="st44" d="M2522.7,1910.81c0,0,13.58,42.11,30.49,48.67c16.91,6.55,43.65,14.08,47,17
				c3.36,2.91-89.85,35.2-142.11,20.34l0,0c14.89-6.95,18.87-9.17,18.87-9.17c3.98-2.22,11.39-6.36,18.35-12.93
				c4.74-4.47,12.15-12.8,17.73-26.63l-4.88-23.91L2522.7,1910.81z"/>
			
				<linearGradient id="SVGID_36_" gradientUnits="userSpaceOnUse" x1="1952.1086" y1="1992.9948" x2="2115.0522" y2="1894.896" gradientTransform="matrix(0.9787 -0.2054 0.2054 0.9787 181.5772 371.9818)">
				<stop  offset="0" style="stop-color:#FFFAD4"/>
				<stop  offset="1" style="stop-color:#311944"/>
			</linearGradient>
			<path class="st45" d="M2527.99,1925.62c0,0-6.95,16.47-23.41,13.94c-14.75-2.26-14-41.84-3.98-48.58
				c3.34-2.25,10.12-3.1,15.15-1.14c3.54,1.38,14.07,10.58,11.72,24.07c3.25-1.84,6.49-1.56,7.61,0.1c1.43,2.1-0.88,5.92-1.41,6.78
				C2531.86,1923.79,2529.22,1925.11,2527.99,1925.62z"/>
			<g>
				<g>
					<path class="st46" d="M2821.2,1889.66c3.31,0,5.99-2.86,5.99-6.39v-655.6c0-3.53-2.68-6.39-5.99-6.39
						c-3.31,0-5.99,2.86-5.99,6.39v655.6C2815.21,1886.8,2817.89,1889.66,2821.2,1889.66z"/>
				</g>
				<g>
					
						<linearGradient id="SVGID_37_" gradientUnits="userSpaceOnUse" x1="2590.9971" y1="785.9438" x2="1582.8818" y2="1902.6262" gradientTransform="matrix(1 0 0 1 796.3925 0)">
						<stop  offset="0" style="stop-color:#893976"/>
						<stop  offset="1" style="stop-color:#311944"/>
					</linearGradient>
					<path class="st47" d="M3125.97,1184.23v366.73c0,19.4-14.74,34.32-31.95,33.34l-466-26.99l-21.41-1.15
						c-13.42-0.81-25.82-15.16-25.82-32.09v-320.49c0-16.93,12.23-31.17,25.64-31.74l398.98-17.56l88.23-3.83
						C3110.86,1149.68,3125.97,1164.78,3125.97,1184.23z"/>
					<g>
						
							<linearGradient id="SVGID_38_" gradientUnits="userSpaceOnUse" x1="1999.4042" y1="1306.1149" x2="2056.7688" y2="1306.1149" gradientTransform="matrix(1 0 0 1 796.3925 0)">
							<stop  offset="0" style="stop-color:#893976"/>
							<stop  offset="1" style="stop-color:#311944"/>
						</linearGradient>
						<path class="st48" d="M2834.74,1407.14l-20.77-0.99c-5.72-0.27-10.43-6.3-10.73-13.29l-7.43-175.01
							c-0.15-3.59,0.9-6.64,2.92-9.22c2.02-2.59,4.83-3.58,7.77-3.54l35.76,0.43c2.98,0.04,5.84,1.02,7.89,3.68
							c2.06,2.66,3.14,5.96,2.98,9.58l-7.56,176.13C2845.28,1401.93,2840.51,1407.41,2834.74,1407.14z"/>
						
							<linearGradient id="SVGID_39_" gradientUnits="userSpaceOnUse" x1="1998.8311" y1="1476.6354" x2="2058.0361" y2="1476.6354" gradientTransform="matrix(1 0 0 1 796.3925 0)">
							<stop  offset="0" style="stop-color:#893976"/>
							<stop  offset="1" style="stop-color:#311944"/>
						</linearGradient>
						<path class="st49" d="M2802.85,1449.4c5.1-5.76,12.31-8.39,21.65-7.89c9.71,0.52,17.14,3.89,22.24,10.11
							c5.12,6.23,7.68,15.16,7.68,26.79c0,11.21-2.62,19.73-7.85,25.55c-5.22,5.81-12.59,8.4-22.07,7.77
							c-9.23-0.61-16.42-4.2-21.57-10.78c-5.14-6.56-7.71-15.25-7.71-26.07C2795.22,1463.64,2797.76,1455.15,2802.85,1449.4z"/>
					</g>
					
						<linearGradient id="SVGID_40_" gradientUnits="userSpaceOnUse" x1="2685.709" y1="888.9252" x2="1706.3906" y2="1973.7095" gradientTransform="matrix(1 0 0 1 796.3925 0)">
						<stop  offset="0" style="stop-color:#893976"/>
						<stop  offset="1" style="stop-color:#311944"/>
					</linearGradient>
					<path class="st50" d="M3125.97,1184.23v366.73c0,19.4-14.74,34.32-31.95,33.34l-466-26.99
						c18.08-41.39,75.42-24.5,126.36-113.07c14.99-26.04,31.77-40.87,49.14-49.48c14.16-7.02,28.58-9.89,42.6-11.25
						c50.98-5.05,94.99,9.88,90.99-81.23c-3.51-80.19,33.35-123.95,69.05-147.99l87.86-3.83
						C3111.23,1149.68,3125.97,1164.78,3125.97,1184.23z"/>
				</g>
				<g>
					
						<linearGradient id="SVGID_41_" gradientUnits="userSpaceOnUse" x1="2575.1174" y1="788.5877" x2="1571.5313" y2="1900.2531" gradientTransform="matrix(1 0 0 1 796.3925 0)">
						<stop  offset="0" style="stop-color:#AA80F9"/>
						<stop  offset="0.9964" style="stop-color:#6165D7"/>
					</linearGradient>
					<path class="st51" d="M3108.5,1184.23v366.73c0,19.4-11.97,34.32-29.18,33.34l-464.61-26.99l-19.99-1.15
						c-13.42-0.81-24.4-15.16-24.4-32.09v-320.49c0-16.93,11.51-31.17,24.92-31.74l398.61-17.56l85.28-3.83
						C3096.34,1149.68,3108.5,1164.78,3108.5,1184.23z"/>
					<g>
						<path class="st2" d="M2822.81,1407.14l-20.77-0.99c-5.72-0.27-10.43-6.3-10.73-13.29l-7.43-175.01
							c-0.15-3.59,0.9-6.64,2.92-9.22c2.02-2.59,4.83-3.58,7.77-3.54l35.76,0.43c2.98,0.04,5.84,1.02,7.89,3.68
							c2.06,2.66,3.14,5.96,2.98,9.58l-7.56,176.13C2833.35,1401.93,2828.58,1407.41,2822.81,1407.14z"/>
						<path class="st2" d="M2790.92,1449.4c5.1-5.76,12.31-8.39,21.65-7.89c9.71,0.52,17.14,3.89,22.24,10.11
							c5.12,6.23,7.68,15.16,7.68,26.79c0,11.21-2.62,19.73-7.85,25.55c-5.22,5.81-12.59,8.4-22.07,7.77
							c-9.23-0.61-16.42-4.2-21.57-10.78c-5.14-6.56-7.71-15.25-7.71-26.07C2783.29,1463.64,2785.83,1455.15,2790.92,1449.4z"/>
					</g>
					
						<linearGradient id="SVGID_42_" gradientUnits="userSpaceOnUse" x1="2669.6917" y1="890.3915" x2="1693.0298" y2="1972.2332" gradientTransform="matrix(1 0 0 1 796.3925 0)">
						<stop  offset="0" style="stop-color:#AA80F9"/>
						<stop  offset="0.9964" style="stop-color:#6165D7"/>
					</linearGradient>
					<path class="st52" d="M3108.5,1184.23v366.73c0,19.4-11.97,34.32-29.18,33.34l-464.61-26.99
						c18.08-41.39,76.12-24.5,127.05-113.07c14.99-26.04,32.12-40.87,49.49-49.48c14.16-7.02,28.76-9.89,42.77-11.25
						c50.98-5.05,95.08,9.88,91.08-81.23c-3.51-80.19,33.39-123.95,69.09-147.99l85.11-3.83
						C3096.51,1149.68,3108.5,1164.78,3108.5,1184.23z"/>
				</g>
			</g>
			
				<linearGradient id="SVGID_43_" gradientUnits="userSpaceOnUse" x1="2354.5464" y1="1854.337" x2="2442.7803" y2="1949.7738" gradientTransform="matrix(-1 0 0 1 5172.1963 0)">
				<stop  offset="0" style="stop-color:#FFFAD4"/>
				<stop  offset="1" style="stop-color:#311944"/>
			</linearGradient>
			<path class="st53" d="M2810.12,1856.64c0,0,11.06-28.37,14.54-18.03c3.48,10.34-1.38,23.33-7.96,30.63
				C2810.12,1876.53,2810.12,1856.64,2810.12,1856.64z"/>
		</g>
		<g>
			<g>
				<path class="st54" d="M926.29,3267.72c-135.4-18.56-307.08-67.32-376.03-204.82c-16.4-32.71-32.86-96.25,8.54-120.18
					c37.84-21.87,86.78,1.23,114.91,29.69c20.68,20.93,36.82,67.64,60.06,82.41c34.01,21.62,52.32-37.37,51.6-61.71
					c-1.6-54.43-64.36-76.71-106.07-88.53c-69.23-19.62-149.84-36.43-145.51-119.67c4.34-83.23,80.41-133.16,138.93-96.75
					c48.22,30.01,41.43,94.05,74.37,132.47c29.27,34.13,39.45-21.27,37.5-48.43c-4.25-59-52.88-101.68-88.66-141.21
					c-40.46-44.7-85.15-134.64-42.03-193.75c24.81-34.01,87.85-41.98,125.11-36.24c182.37,28.09,61.44,279.87,94.6,307.96
					c33.16,28.09,64.53-21.08,64.45-95.86c-0.08-74.77,10.65-129.91,83.79-105.98c73.14,23.93,87.07,219.23,3.55,294.29
					s5.24,156.94,27.66,103.16c16.19-38.84,30.42-140.55,77.2-151.71c77.95-18.55,76.8,151.25,54.36,190.77
					c-31.45,55.4-102.56,67.43-142.27,115.23c-11.54,13.89-37.58,48.27-27.46,68.57c14.11,28.31,53.48-1.98,67.94-15.09
					c32.52-29.49,77.53-129.72,123.34-63.16C1262.76,3131.37,1168.16,3253.21,926.29,3267.72z"/>
				<g class="st55">
					<path class="st2" d="M906.79,3254.04c3.18,0,5.79-3.16,5.85-6.57c0.05-2.95,3.82-299.26-117.39-651.42
						c-1.12-3.24-4.48-5-7.51-3.82c-3.03,1.19-4.59,4.72-3.48,7.96c120.46,349.98,116.73,644.15,116.68,647.07
						c-0.06,3.45,2.51,6.78,5.74,6.78C906.71,3254.04,906.75,3254.04,906.79,3254.04z"/>
				</g>
			</g>
			<path class="st56" d="M856.99,3141.05c21.95-19.92,68.58,11.23,87.94,23.09c11.23,6.87,26.59,17.42,40.1,11.3
				c14.19-6.43,13.19-22.31,4.61-33.57c-15.36-20.16-44.83-25.69-66.25-35.52c-23.01-10.55-44.13-24.92-55.48-49.69
				c-9.05-19.75-11.11-48.95-0.93-68.4c28.18-53.83,69.21-11.82,92.15,20.29c11.13,15.58,36.06,42.42,54.96,24.05
				c20.1-19.54,2.85-54.39-12.75-69.76c-20.38-20.08-45.06-34.04-67.25-51.5c-20.01-15.74-40.57-38.29-27.25-66.19
				c10.29-21.56,36.2-33.49,58.32-31.66c51.15,4.22,59.12,83.89,92.81,114.48c11.91,10.81,38.98,19.41,53.19,8.8
				c14.46-10.82,5.06-35.58-0.14-49.08c-15.42-40.03-126.07-174.25-34.37-191.11c23.08-4.24,54.89,3.51,73.02,19.16
				c34.21,29.53,52.37,88.02,61.38,132.41c14.18,69.82,13.37,147.37-2.45,216.81c-34.97,153.47-117.17,202.76-117.17,202.76
				c-35.55,12.48-80,18.64-116.85,10.32c-43.32-9.78-95.13-43.99-116.55-86.67C851.1,3177.55,843.39,3153.39,856.99,3141.05z"/>
		</g>
	</g>
</g>
</svg>
