<?xml version="1.0" encoding="utf-8"?>
<!-- Generator: Adobe Illustrator 24.0.0, SVG Export Plug-In . SVG Version: 6.00 Build 0)  -->
<svg version="1.1" id="Layer_1" xmlns="http://www.w3.org/2000/svg" xmlns:xlink="http://www.w3.org/1999/xlink" x="0px" y="0px"
	 viewBox="0 0 450 450" style="enable-background:new 0 0 450 450;" xml:space="preserve">
<style type="text/css">
	.st0{fill:#0F303F;}
	.st1{fill:#03A9F4;}
	.st2{fill:#4759BB;}
	.st3{fill:#FDC63A;}
	.st4{fill:#16C1D1;}
	.st5{fill:#FD9800;}
	.st6{fill:#FFFFFF;}
	.st7{fill:#E6E6E6;}
	.st8{fill:#2C5871;}
	.st9{fill:#C1D64B;}
	.st10{fill:#FD692B;}
	.st11{fill:#129DAB;}
	.st12{fill:#9FB603;}
	.st13{fill:#FDA014;}
	.st14{fill:#F2F2F2;}
	.st15{fill:#ADADAD;}
	.st16{fill:#DBDBDB;}
	.st17{fill:#FDA611;}
	.st18{fill:#CDDD00;}
	.st19{fill:#3C2415;}
	.st20{fill:#896956;}
	.st21{fill:#D8D8D8;}
	.st22{fill:#A0887C;}
	.st23{fill:#DBB8A5;}
	.st24{fill:#EDD0B9;}
	.st25{fill:#FDF3D7;}
</style>
<g>
	<g>
		<rect x="55.49" y="259.23" transform="matrix(1 -5.899897e-03 5.899897e-03 1 -1.5314 0.3334)" width="0.5" height="1"/>
	</g>
	<g>
		<path d="M58,260.22l0-1l1,0l0,1L58,260.22z M60.99,260.21l-0.01-1l1-0.01l0.01,1L60.99,260.21z M63.99,260.19l-0.01-1l1-0.01
			l0.01,1L63.99,260.19z M66.99,260.17l0-1l1,0l0,1L66.99,260.17z M69.99,260.16l0-1l1,0l0,1L69.99,260.16z M72.98,260.14l0-1l1,0
			l0,1L72.98,260.14z M75.98,260.13l-0.01-1l1-0.01l0.01,1L75.98,260.13z M78.98,260.11l-0.01-1l1-0.01l0.01,1L78.98,260.11z
			 M81.98,260.09l0-1l1,0l0,1L81.98,260.09z M84.98,260.08l0-1l1,0l0,1L84.98,260.08z M87.97,260.06l0-1l1,0l0,1L87.97,260.06z
			 M90.97,260.05l0-1l1,0l0,1L90.97,260.05z M93.97,260.03l-0.01-1l1-0.01l0.01,1L93.97,260.03z M96.97,260.02l-0.01-1l1-0.01
			l0.01,1L96.97,260.02z M99.97,260l0-1l1,0l0,1L99.97,260z M102.96,259.98l0-1l1,0l0,1L102.96,259.98z M105.96,259.97l0-1l1,0l0,1
			L105.96,259.97z M108.96,259.95l-0.01-1l1-0.01l0.01,1L108.96,259.95z M111.96,259.94l-0.01-1l1-0.01l0.01,1L111.96,259.94z
			 M114.95,259.92l0-1l1,0l0,1L114.95,259.92z M117.95,259.9l0-1l1,0l0,1L117.95,259.9z M120.95,259.89l0-1l1,0l0,1L120.95,259.89z
			 M123.95,259.87l-0.01-1l1-0.01l0.01,1L123.95,259.87z"/>
	</g>
	<g>
		<polygon points="127.65,260.03 127.32,259.86 126.95,259.86 126.95,259.65 126.77,259.56 126.94,259.23 126.94,258.86 
			128.28,258.85 		"/>
	</g>
	<g>
		<path d="M89.31,331.68l-0.88-0.47l0.47-0.88l0.88,0.47L89.31,331.68z M90.73,329.03l-0.88-0.47l0.47-0.88l0.88,0.47L90.73,329.03z
			 M92.15,326.38l-0.88-0.47l0.47-0.88l0.88,0.47L92.15,326.38z M93.57,323.72l-0.88-0.47l0.47-0.88l0.88,0.47L93.57,323.72z
			 M94.99,321.07l-0.88-0.47l0.47-0.88l0.88,0.47L94.99,321.07z M96.41,318.41l-0.88-0.47l0.47-0.88l0.88,0.47L96.41,318.41z
			 M97.83,315.76l-0.88-0.47l0.47-0.88l0.88,0.47L97.83,315.76z M99.25,313.11l-0.88-0.47l0.47-0.88l0.88,0.47L99.25,313.11z
			 M100.67,310.45l-0.88-0.47l0.47-0.88l0.88,0.47L100.67,310.45z M102.09,307.8l-0.88-0.47l0.47-0.88l0.88,0.47L102.09,307.8z
			 M103.51,305.14l-0.88-0.47l0.47-0.88l0.88,0.47L103.51,305.14z M104.93,302.49l-0.88-0.47l0.47-0.88l0.88,0.47L104.93,302.49z
			 M106.35,299.84l-0.88-0.47l0.47-0.88l0.88,0.47L106.35,299.84z M107.77,297.18l-0.88-0.47l0.47-0.88l0.88,0.47L107.77,297.18z
			 M109.19,294.53l-0.88-0.47l0.47-0.88l0.88,0.47L109.19,294.53z M110.61,291.88l-0.88-0.47l0.47-0.88l0.88,0.47L110.61,291.88z
			 M112.03,289.22l-0.88-0.47l0.47-0.88l0.88,0.47L112.03,289.22z M113.45,286.57l-0.88-0.47l0.47-0.88l0.88,0.47L113.45,286.57z
			 M114.87,283.91l-0.88-0.47l0.47-0.88l0.88,0.47L114.87,283.91z M116.29,281.26l-0.88-0.47l0.47-0.88l0.88,0.47L116.29,281.26z
			 M117.71,278.61l-0.88-0.47l0.47-0.88l0.88,0.47L117.71,278.61z M119.13,275.95l-0.88-0.47l0.47-0.88l0.88,0.47L119.13,275.95z
			 M120.55,273.3l-0.88-0.47l0.47-0.88l0.88,0.47L120.55,273.3z M121.97,270.65l-0.88-0.47l0.47-0.88l0.88,0.47L121.97,270.65z
			 M123.39,267.99l-0.88-0.47l0.47-0.88l0.88,0.47L123.39,267.99z M124.81,265.34l-0.88-0.47l0.47-0.88l0.88,0.47L124.81,265.34z
			 M126.23,262.68l-0.88-0.47l0.47-0.88l0.88,0.47L126.23,262.68z"/>
	</g>
	<g>
		<polygon points="86.71,334.42 87.48,332.98 87.75,333.12 88.04,333.05 88.11,333.32 88.36,333.45 88.21,333.72 88.29,334.02 		"/>
	</g>
	<g>
		<path d="M228.47,342.85l-0.93-0.39l0.38-0.92l0.93,0.39L228.47,342.85z M225.67,341.69l-0.93-0.39l0.38-0.92l0.93,0.39
			L225.67,341.69z M222.88,340.53l-0.93-0.39l0.38-0.92l0.93,0.39L222.88,340.53z M220.08,339.37l-0.93-0.39l0.38-0.92l0.93,0.39
			L220.08,339.37z M217.28,338.21l-0.93-0.39l0.38-0.92l0.93,0.39L217.28,338.21z M214.49,337.05l-0.93-0.39l0.38-0.92l0.93,0.39
			L214.49,337.05z M211.69,335.89l-0.93-0.39l0.38-0.92l0.93,0.39L211.69,335.89z M208.9,334.73l-0.93-0.39l0.38-0.92l0.93,0.39
			L208.9,334.73z M206.1,333.57l-0.93-0.39l0.38-0.92l0.93,0.39L206.1,333.57z M90.25,333.52L90,332.55l0.98-0.25l0.25,0.97
			L90.25,333.52z M93.18,332.78l-0.25-0.97l0.98-0.25l0.25,0.97L93.18,332.78z M203.3,332.41l-0.93-0.39l0.38-0.92l0.93,0.39
			L203.3,332.41z M96.11,332.04l-0.25-0.97l0.98-0.25l0.25,0.97L96.11,332.04z M99.05,331.3l-0.25-0.97l0.98-0.25l0.25,0.97
			L99.05,331.3z M200.51,331.25l-0.93-0.39l0.38-0.92l0.93,0.39L200.51,331.25z M101.98,330.56l-0.25-0.97l0.98-0.25l0.25,0.97
			L101.98,330.56z M197.71,330.09l-0.93-0.39l0.38-0.92l0.93,0.39L197.71,330.09z M104.92,329.81l-0.25-0.97l0.98-0.25l0.25,0.97
			L104.92,329.81z M107.85,329.07l-0.25-0.97l0.98-0.25l0.25,0.97L107.85,329.07z M194.92,328.94l-0.93-0.39l0.38-0.92l0.93,0.39
			L194.92,328.94z M110.79,328.33l-0.25-0.97l0.98-0.25l0.25,0.97L110.79,328.33z M192.12,327.78l-0.93-0.39l0.38-0.92l0.93,0.39
			L192.12,327.78z M113.72,327.59l-0.25-0.97l0.98-0.25l0.25,0.97L113.72,327.59z M116.66,326.85l-0.25-0.97l0.98-0.25l0.25,0.97
			L116.66,326.85z M189.33,326.62l-0.93-0.39l0.38-0.92l0.93,0.39L189.33,326.62z M119.59,326.11l-0.25-0.97l0.98-0.25l0.25,0.97
			L119.59,326.11z M186.53,325.46l-0.93-0.39l0.38-0.92l0.93,0.39L186.53,325.46z M122.52,325.36l-0.25-0.97l0.98-0.25l0.25,0.97
			L122.52,325.36z M125.46,324.62l-0.25-0.97l0.98-0.25l0.25,0.97L125.46,324.62z M183.73,324.3l-0.93-0.39l0.38-0.92l0.93,0.39
			L183.73,324.3z M128.39,323.88l-0.25-0.97l0.98-0.25l0.25,0.97L128.39,323.88z M131.33,323.14l-0.25-0.97l0.98-0.25l0.25,0.97
			L131.33,323.14z M180.94,323.14l-0.93-0.39l0.38-0.92l0.93,0.39L180.94,323.14z M134.26,322.4l-0.25-0.97l0.98-0.25l0.25,0.97
			L134.26,322.4z M178.14,321.98l-0.93-0.39l0.38-0.92l0.93,0.39L178.14,321.98z M137.2,321.66l-0.25-0.97l0.98-0.25l0.25,0.97
			L137.2,321.66z M140.13,320.91l-0.25-0.97l0.98-0.25l0.25,0.97L140.13,320.91z M175.35,320.82l-0.93-0.39l0.38-0.92l0.93,0.39
			L175.35,320.82z M143.07,320.17l-0.25-0.97l0.98-0.25l0.25,0.97L143.07,320.17z M172.55,319.66l-0.93-0.39l0.38-0.92l0.93,0.39
			L172.55,319.66z M146,319.43l-0.25-0.97l0.98-0.25l0.25,0.97L146,319.43z M148.94,318.69l-0.25-0.97l0.98-0.25l0.25,0.97
			L148.94,318.69z M169.76,318.5l-0.93-0.39l0.38-0.92l0.93,0.39L169.76,318.5z M151.87,317.95l-0.25-0.97l0.98-0.25l0.25,0.97
			L151.87,317.95z M166.96,317.34l-0.93-0.39l0.38-0.92l0.93,0.39L166.96,317.34z M154.8,317.21l-0.25-0.97l0.98-0.25l0.25,0.97
			L154.8,317.21z M157.74,316.46l-0.25-0.97l0.98-0.25l0.25,0.97L157.74,316.46z M164.16,316.18l-0.93-0.39l0.38-0.92l0.93,0.39
			L164.16,316.18z M160.67,315.72l-0.25-0.97l0.98-0.25l0.25,0.97L160.67,315.72z"/>
	</g>
	<g>
		<polygon points="231.02,343.91 230.33,343.63 230.71,342.7 230.94,342.8 231.16,342.67 231.67,343.53 		"/>
	</g>
	<g>
		<path d="M233.36,342.52l-0.51-0.86l0.85-0.5l0.51,0.86L233.36,342.52z M235.9,341.01l-0.51-0.86l0.85-0.5l0.51,0.86L235.9,341.01z
			 M238.44,339.5l-0.51-0.86l0.85-0.5l0.51,0.86L238.44,339.5z M240.98,338l-0.51-0.86l0.85-0.5l0.51,0.86L240.98,338z
			 M243.52,336.49l-0.51-0.86l0.85-0.5l0.51,0.86L243.52,336.49z M246.05,334.98l-0.51-0.86l0.85-0.5l0.51,0.86L246.05,334.98z
			 M248.59,333.47l-0.51-0.86l0.85-0.5l0.51,0.86L248.59,333.47z M251.13,331.96l-0.51-0.86l0.85-0.5l0.51,0.86L251.13,331.96z
			 M253.67,330.45l-0.51-0.86l0.85-0.5l0.51,0.86L253.67,330.45z M256.21,328.94l-0.51-0.86l0.85-0.5l0.51,0.86L256.21,328.94z
			 M258.75,327.43l-0.51-0.86l0.85-0.5l0.51,0.86L258.75,327.43z M261.28,325.92l-0.51-0.86l0.85-0.5l0.51,0.86L261.28,325.92z
			 M263.82,324.41l-0.51-0.86l0.85-0.5l0.51,0.86L263.82,324.41z M266.36,322.9l-0.51-0.86l0.85-0.5l0.51,0.86L266.36,322.9z
			 M268.9,321.39l-0.51-0.86l0.85-0.5l0.51,0.86L268.9,321.39z M271.44,319.88l-0.51-0.86l0.85-0.5l0.51,0.86L271.44,319.88z
			 M273.97,318.38l-0.51-0.86l0.85-0.5l0.51,0.86L273.97,318.38z M276.51,316.87l-0.51-0.86l0.85-0.5l0.51,0.86L276.51,316.87z
			 M279.05,315.36l-0.51-0.86l0.85-0.5l0.51,0.86L279.05,315.36z M281.59,313.85l-0.51-0.86l0.85-0.5l0.51,0.86L281.59,313.85z
			 M284.13,312.34l-0.51-0.86l0.85-0.5l0.51,0.86L284.13,312.34z M286.67,310.83l-0.51-0.86l0.85-0.5l0.51,0.86L286.67,310.83z
			 M289.2,309.32l-0.51-0.86l0.85-0.5l0.51,0.86L289.2,309.32z M291.74,307.81l-0.51-0.86l0.85-0.5l0.51,0.86L291.74,307.81z
			 M294.28,306.3l-0.51-0.86l0.85-0.5l0.51,0.86L294.28,306.3z M296.82,304.79l-0.51-0.86l0.85-0.5l0.51,0.86L296.82,304.79z
			 M299.36,303.28l-0.51-0.86l0.85-0.5l0.51,0.86L299.36,303.28z M301.9,301.77l-0.51-0.86l0.85-0.5l0.51,0.86L301.9,301.77z
			 M304.43,300.27l-0.51-0.86l0.85-0.5l0.51,0.86L304.43,300.27z M306.97,298.76l-0.51-0.86l0.85-0.5l0.51,0.86L306.97,298.76z"/>
	</g>
	<g>
		<polygon points="309.51,297.25 309,296.39 309,296.39 309,296.39 309.86,295.88 310.37,296.74 		"/>
	</g>
	<g>
		<path d="M307.98,294.66l-0.51-0.86l0.86-0.51l0.51,0.86L307.98,294.66z M306.45,292.08l-0.51-0.86l0.86-0.51l0.51,0.86
			L306.45,292.08z M304.92,289.49l-0.51-0.86l0.86-0.51l0.51,0.86L304.92,289.49z M303.4,286.91l-0.51-0.86l0.86-0.51l0.51,0.86
			L303.4,286.91z M301.87,284.33l-0.51-0.86l0.86-0.51l0.51,0.86L301.87,284.33z M300.34,281.74l-0.51-0.86l0.86-0.51l0.51,0.86
			L300.34,281.74z M298.81,279.16l-0.51-0.86l0.86-0.51l0.51,0.86L298.81,279.16z M297.28,276.57l-0.51-0.86l0.86-0.51l0.51,0.86
			L297.28,276.57z M295.76,273.99l-0.51-0.86l0.86-0.51l0.51,0.86L295.76,273.99z M294.23,271.4l-0.51-0.86l0.86-0.51l0.51,0.86
			L294.23,271.4z M292.7,268.82l-0.51-0.86l0.86-0.51l0.51,0.86L292.7,268.82z M291.17,266.24l-0.51-0.86l0.86-0.51l0.51,0.86
			L291.17,266.24z M289.64,263.65l-0.51-0.86l0.86-0.51l0.51,0.86L289.64,263.65z M288.12,261.07l-0.51-0.86l0.86-0.51l0.51,0.86
			L288.12,261.07z M286.59,258.48l-0.51-0.86l0.86-0.51l0.51,0.86L286.59,258.48z M285.06,255.9l-0.51-0.86l0.86-0.51l0.51,0.86
			L285.06,255.9z M283.53,253.31l-0.51-0.86l0.86-0.51l0.51,0.86L283.53,253.31z M282,250.73l-0.51-0.86l0.86-0.51l0.51,0.86
			L282,250.73z M280.48,248.15l-0.51-0.86l0.86-0.51l0.51,0.86L280.48,248.15z M278.95,245.56l-0.51-0.86l0.86-0.51l0.51,0.86
			L278.95,245.56z M277.42,242.98l-0.51-0.86l0.86-0.51l0.51,0.86L277.42,242.98z M275.89,240.39l-0.51-0.86l0.86-0.51l0.51,0.86
			L275.89,240.39z M274.36,237.81l-0.51-0.86l0.86-0.51l0.51,0.86L274.36,237.81z M272.84,235.22l-0.51-0.86l0.86-0.51l0.51,0.86
			L272.84,235.22z M271.31,232.64l-0.51-0.86l0.86-0.51l0.51,0.86L271.31,232.64z M269.78,230.05l-0.51-0.86l0.86-0.51l0.51,0.86
			L269.78,230.05z M268.25,227.47l-0.51-0.86l0.86-0.51l0.51,0.86L268.25,227.47z M266.72,224.89l-0.51-0.86l0.86-0.51l0.51,0.86
			L266.72,224.89z"/>
	</g>
	<g>
		<polygon points="265.2,222.3 264.67,221.41 265.6,220.95 266.06,221.79 266.03,221.81 266.04,221.84 		"/>
	</g>
	<g>
		<path d="M267.86,220.93l-0.45-0.89l0.91-0.46l0.45,0.89L267.86,220.93z M270.58,219.57l-0.45-0.89l0.91-0.46l0.45,0.89
			L270.58,219.57z M273.31,218.2l-0.45-0.89l0.91-0.45l0.45,0.89L273.31,218.2z M276.04,216.84l-0.45-0.89l0.91-0.46l0.45,0.89
			L276.04,216.84z M278.76,215.47l-0.45-0.89l0.91-0.46l0.45,0.89L278.76,215.47z M281.49,214.11l-0.45-0.89l0.91-0.45l0.45,0.89
			L281.49,214.11z M284.21,212.74l-0.45-0.89l0.91-0.46l0.45,0.89L284.21,212.74z M286.93,211.38l-0.45-0.89l0.91-0.46l0.45,0.89
			L286.93,211.38z M289.66,210.01l-0.45-0.89l0.91-0.45l0.45,0.89L289.66,210.01z M292.38,208.65l-0.45-0.89l0.91-0.46l0.45,0.89
			L292.38,208.65z M295.11,207.28l-0.45-0.89l0.91-0.46l0.45,0.89L295.11,207.28z M297.83,205.92l-0.45-0.89l0.91-0.45l0.45,0.89
			L297.83,205.92z M300.56,204.55l-0.45-0.89l0.91-0.46l0.45,0.89L300.56,204.55z M303.28,203.19l-0.45-0.89l0.91-0.46l0.45,0.89
			L303.28,203.19z M306.01,201.82l-0.45-0.89l0.91-0.46l0.45,0.89L306.01,201.82z M308.73,200.46l-0.45-0.89l0.91-0.46l0.45,0.89
			L308.73,200.46z M311.46,199.09l-0.45-0.89l0.91-0.46l0.45,0.89L311.46,199.09z M314.18,197.73l-0.45-0.89l0.91-0.46l0.45,0.89
			L314.18,197.73z M316.91,196.36l-0.45-0.89l0.91-0.46l0.45,0.89L316.91,196.36z M319.63,195l-0.45-0.89l0.91-0.46l0.45,0.89
			L319.63,195z M322.36,193.63l-0.45-0.89l0.91-0.46l0.45,0.89L322.36,193.63z M325.08,192.27l-0.45-0.89l0.91-0.46l0.45,0.89
			L325.08,192.27z M327.81,190.9l-0.45-0.89l0.91-0.46l0.45,0.89L327.81,190.9z M330.53,189.54l-0.45-0.89l0.91-0.46l0.45,0.89
			L330.53,189.54z M333.26,188.17l-0.45-0.89l0.91-0.46l0.45,0.89L333.26,188.17z M335.98,186.81l-0.45-0.89l0.91-0.46l0.45,0.89
			L335.98,186.81z M338.71,185.44l-0.45-0.89l0.91-0.45l0.45,0.89L338.71,185.44z M341.43,184.08l-0.45-0.89l0.91-0.46l0.45,0.89
			L341.43,184.08z M344.16,182.71l-0.45-0.89l0.91-0.46l0.45,0.89L344.16,182.71z"/>
	</g>
	<g>
		<polygon points="346.88,181.35 346.43,180.47 346.44,180.46 346.44,180.46 347.32,180 347.79,180.9 		"/>
	</g>
	<g>
		<path d="M345.47,178.66l-0.48-0.9l0.88-0.47l0.48,0.9L345.47,178.66z M344.04,175.95l-0.48-0.9l0.88-0.47l0.48,0.9L344.04,175.95z
			 M342.61,173.24l-0.48-0.9l0.88-0.47l0.48,0.9L342.61,173.24z M341.17,170.53l-0.48-0.9l0.88-0.47l0.48,0.9L341.17,170.53z
			 M339.74,167.82l-0.48-0.9l0.88-0.47l0.48,0.9L339.74,167.82z M338.3,165.11l-0.48-0.9l0.88-0.47l0.48,0.9L338.3,165.11z
			 M336.87,162.4l-0.48-0.9l0.88-0.47l0.48,0.9L336.87,162.4z M335.43,159.69l-0.48-0.9l0.88-0.47l0.48,0.9L335.43,159.69z
			 M334,156.98l-0.48-0.9l0.88-0.47l0.48,0.9L334,156.98z M332.57,154.27l-0.48-0.9l0.88-0.47l0.48,0.9L332.57,154.27z
			 M331.13,151.56l-0.48-0.9l0.88-0.47l0.48,0.9L331.13,151.56z M329.7,148.85l-0.48-0.9l0.88-0.47l0.48,0.9L329.7,148.85z
			 M328.27,146.14l-0.48-0.9l0.88-0.47l0.48,0.9L328.27,146.14z M326.83,143.43l-0.48-0.9l0.88-0.47l0.48,0.9L326.83,143.43z
			 M325.4,140.72l-0.48-0.9l0.88-0.47l0.48,0.9L325.4,140.72z M323.96,138.01l-0.48-0.9l0.88-0.47l0.48,0.9L323.96,138.01z
			 M322.53,135.3l-0.48-0.9l0.88-0.47l0.48,0.9L322.53,135.3z M321.09,132.59l-0.48-0.9l0.88-0.47l0.48,0.9L321.09,132.59z
			 M319.66,129.88l-0.48-0.9l0.88-0.47l0.48,0.9L319.66,129.88z M318.23,127.17l-0.48-0.9l0.88-0.47l0.48,0.9L318.23,127.17z
			 M316.79,124.46l-0.48-0.9l0.88-0.47l0.48,0.9L316.79,124.46z"/>
	</g>
	<g>
		<polygon points="315.36,121.75 314.86,120.81 315.85,120.43 316.02,120.87 316.24,121.29 316.19,121.31 316.21,121.37 
			315.77,121.53 		"/>
	</g>
	<g>
		<path d="M318.1,120.64l-0.36-0.93l0.94-0.36l0.36,0.93L318.1,120.64z M320.92,119.56l-0.36-0.93l0.94-0.36l0.36,0.93
			L320.92,119.56z M323.75,118.48l-0.36-0.93l0.94-0.36l0.36,0.93L323.75,118.48z M326.58,117.4l-0.36-0.93l0.94-0.36l0.36,0.93
			L326.58,117.4z M329.41,116.31l-0.36-0.93l0.94-0.36l0.36,0.93L329.41,116.31z M332.23,115.23l-0.36-0.93l0.94-0.36l0.36,0.93
			L332.23,115.23z M335.06,114.15l-0.36-0.93l0.94-0.36l0.36,0.93L335.06,114.15z M337.89,113.07l-0.36-0.93l0.94-0.36l0.36,0.93
			L337.89,113.07z M340.72,111.99l-0.36-0.93l0.94-0.36l0.36,0.93L340.72,111.99z M343.54,110.9l-0.36-0.93l0.94-0.36l0.36,0.93
			L343.54,110.9z M346.37,109.82l-0.36-0.93l0.94-0.36l0.36,0.93L346.37,109.82z M349.2,108.74l-0.36-0.93l0.94-0.36l0.36,0.93
			L349.2,108.74z M352.03,107.66l-0.36-0.93l0.94-0.36l0.36,0.93L352.03,107.66z M354.85,106.57l-0.36-0.93l0.94-0.36l0.36,0.93
			L354.85,106.57z M357.68,105.49l-0.36-0.93l0.94-0.36l0.36,0.93L357.68,105.49z M360.51,104.41l-0.36-0.93l0.94-0.36l0.36,0.93
			L360.51,104.41z M363.34,103.33l-0.36-0.93l0.94-0.36l0.36,0.93L363.34,103.33z M366.16,102.24l-0.36-0.93l0.94-0.36l0.36,0.93
			L366.16,102.24z M368.99,101.16l-0.36-0.93l0.94-0.36l0.36,0.93L368.99,101.16z M371.82,100.08l-0.36-0.93l0.94-0.36l0.36,0.93
			L371.82,100.08z M374.65,99l-0.36-0.93l0.94-0.36l0.36,0.93L374.65,99z M377.47,97.92l-0.36-0.93l0.94-0.36l0.36,0.93
			L377.47,97.92z M380.3,96.83l-0.36-0.93l0.94-0.36l0.36,0.93L380.3,96.83z M383.13,95.75l-0.36-0.93l0.94-0.36l0.36,0.93
			L383.13,95.75z M385.96,94.67l-0.36-0.93l0.94-0.36l0.36,0.93L385.96,94.67z"/>
	</g>
	<g>
		<polygon points="388.78,93.59 388.63,93.18 388.38,92.82 388.47,92.75 388.43,92.65 388.84,92.5 389.19,92.24 389.85,93.18 		"/>
	</g>
	<g>
		<path d="M387.21,91.16l-0.58-0.83l0.82-0.58l0.58,0.83L387.21,91.16z M385.47,88.68l-0.58-0.83l0.82-0.57l0.58,0.83L385.47,88.68z
			 M383.73,86.2l-0.58-0.83l0.82-0.58l0.58,0.83L383.73,86.2z M381.98,83.72l-0.58-0.83l0.82-0.58l0.58,0.83L381.98,83.72z
			 M380.24,81.24l-0.58-0.83l0.82-0.58l0.58,0.83L380.24,81.24z M378.5,78.75l-0.58-0.83l0.82-0.57l0.58,0.83L378.5,78.75z
			 M376.75,76.27l-0.58-0.83l0.82-0.58l0.58,0.83L376.75,76.27z M375.01,73.79l-0.58-0.83l0.82-0.58l0.58,0.83L375.01,73.79z
			 M373.26,71.31l-0.58-0.83l0.82-0.58l0.58,0.83L373.26,71.31z M371.52,68.83L370.94,68l0.82-0.57l0.58,0.83L371.52,68.83z
			 M369.78,66.34l-0.58-0.83l0.82-0.58l0.58,0.83L369.78,66.34z M368.03,63.86l-0.58-0.83l0.82-0.58l0.58,0.83L368.03,63.86z
			 M366.29,61.38l-0.58-0.83l0.82-0.58l0.58,0.83L366.29,61.38z M364.55,58.9l-0.58-0.83l0.82-0.57l0.58,0.83L364.55,58.9z
			 M362.8,56.42l-0.58-0.83l0.82-0.58l0.58,0.83L362.8,56.42z M361.06,53.93l-0.58-0.83l0.82-0.58l0.58,0.83L361.06,53.93z
			 M359.32,51.45l-0.58-0.83l0.82-0.57l0.58,0.83L359.32,51.45z"/>
	</g>
	<g>
		<polygon points="357.57,48.97 357.46,48.81 357.28,48.84 357.13,47.85 357.93,47.73 358.39,48.39 		"/>
	</g>
	<g>
		<path d="M278.35,60.69l-0.15-0.99l0.97-0.15l0.15,0.99L278.35,60.69z M281.27,60.25l-0.15-0.99l0.97-0.15l0.15,0.99L281.27,60.25z
			 M284.2,59.81l-0.15-0.99l0.97-0.15l0.15,0.99L284.2,59.81z M287.12,59.37l-0.15-0.99l0.97-0.15l0.15,0.99L287.12,59.37z
			 M290.04,58.93l-0.15-0.99l0.97-0.15l0.15,0.99L290.04,58.93z M292.96,58.49l-0.15-0.99l0.97-0.15l0.15,0.99L292.96,58.49z
			 M295.89,58.06l-0.15-0.99l0.97-0.15l0.15,0.99L295.89,58.06z M298.81,57.62l-0.15-0.99l0.97-0.15l0.15,0.99L298.81,57.62z
			 M301.73,57.18l-0.15-0.99l0.97-0.15l0.15,0.99L301.73,57.18z M304.66,56.74l-0.15-0.99l0.97-0.15l0.15,0.99L304.66,56.74z
			 M307.58,56.3l-0.15-0.99l0.97-0.15l0.15,0.99L307.58,56.3z M310.5,55.86l-0.15-0.99l0.97-0.15l0.15,0.99L310.5,55.86z
			 M313.43,55.42l-0.15-0.99l0.97-0.15l0.15,0.99L313.43,55.42z M316.35,54.98L316.2,54l0.97-0.15l0.15,0.99L316.35,54.98z
			 M319.27,54.55l-0.15-0.99l0.97-0.15l0.15,0.99L319.27,54.55z M322.2,54.11l-0.15-0.99l0.97-0.15l0.15,0.99L322.2,54.11z
			 M325.12,53.67l-0.15-0.99l0.97-0.15l0.15,0.99L325.12,53.67z M328.04,53.23l-0.15-0.99l0.97-0.15l0.15,0.99L328.04,53.23z
			 M330.97,52.79l-0.15-0.99l0.97-0.15l0.15,0.99L330.97,52.79z M333.89,52.35l-0.15-0.99l0.97-0.15l0.15,0.99L333.89,52.35z
			 M336.81,51.91l-0.15-0.99l0.97-0.15l0.15,0.99L336.81,51.91z M339.74,51.47l-0.15-0.99l0.97-0.15l0.15,0.99L339.74,51.47z
			 M342.66,51.04l-0.15-0.99l0.97-0.15l0.15,0.99L342.66,51.04z M345.58,50.6l-0.15-0.99l0.97-0.15l0.15,0.99L345.58,50.6z
			 M348.5,50.16l-0.15-0.99l0.97-0.15l0.15,0.99L348.5,50.16z M351.43,49.72l-0.15-0.99l0.97-0.15l0.15,0.99L351.43,49.72z
			 M354.35,49.28l-0.15-0.99l0.97-0.15l0.15,0.99L354.35,49.28z"/>
	</g>
	<g>
		<polygon points="275.95,61.26 275.13,60.68 275.55,60.1 276.25,59.99 276.4,60.98 276.11,61.02 		"/>
	</g>
	<g>
		<path d="M229.31,126.52l-0.81-0.58l0.58-0.81l0.81,0.58L229.31,126.52z M231.04,124.1l-0.81-0.58l0.58-0.81l0.81,0.58
			L231.04,124.1z M232.77,121.68l-0.81-0.58l0.58-0.81l0.81,0.58L232.77,121.68z M234.49,119.27l-0.81-0.58l0.58-0.81l0.81,0.58
			L234.49,119.27z M236.22,116.85l-0.81-0.58l0.58-0.81l0.81,0.58L236.22,116.85z M237.95,114.43l-0.81-0.58l0.58-0.81l0.81,0.58
			L237.95,114.43z M239.68,112.02l-0.81-0.58l0.58-0.81l0.81,0.58L239.68,112.02z M241.4,109.6l-0.81-0.58l0.58-0.81l0.81,0.58
			L241.4,109.6z M243.13,107.18l-0.81-0.58l0.58-0.81l0.81,0.58L243.13,107.18z M244.86,104.77l-0.81-0.58l0.58-0.81l0.81,0.58
			L244.86,104.77z M246.59,102.35l-0.81-0.58l0.58-0.81l0.81,0.58L246.59,102.35z M248.31,99.93l-0.81-0.58l0.58-0.81l0.81,0.58
			L248.31,99.93z M250.04,97.51l-0.81-0.58l0.58-0.81l0.81,0.58L250.04,97.51z M251.77,95.1l-0.81-0.58l0.58-0.81l0.81,0.58
			L251.77,95.1z M253.49,92.68l-0.81-0.58l0.58-0.81l0.81,0.58L253.49,92.68z M255.22,90.26l-0.81-0.58l0.58-0.81l0.81,0.58
			L255.22,90.26z M256.95,87.85l-0.81-0.58l0.58-0.81l0.81,0.58L256.95,87.85z M258.67,85.43l-0.81-0.58l0.58-0.81l0.81,0.58
			L258.67,85.43z M260.4,83.01l-0.81-0.58l0.58-0.81l0.81,0.58L260.4,83.01z M262.13,80.59l-0.81-0.58l0.58-0.81l0.81,0.58
			L262.13,80.59z M263.86,78.18l-0.81-0.58l0.58-0.81l0.81,0.58L263.86,78.18z M265.58,75.76l-0.81-0.58l0.58-0.81l0.81,0.58
			L265.58,75.76z M267.31,73.34l-0.81-0.58l0.58-0.81l0.81,0.58L267.31,73.34z M269.04,70.93l-0.81-0.58l0.58-0.81l0.81,0.58
			L269.04,70.93z M270.76,68.51l-0.81-0.58l0.58-0.81l0.81,0.58L270.76,68.51z M272.49,66.09l-0.81-0.58l0.58-0.81l0.81,0.58
			L272.49,66.09z M274.22,63.68l-0.81-0.58l0.58-0.81l0.81,0.58L274.22,63.68z"/>
	</g>
	<g>
		<polygon points="227.31,129.33 226.83,127.93 227.15,127.82 227.35,127.55 227.55,127.69 227.78,127.61 227.89,127.93 
			228.16,128.13 		"/>
	</g>
	<g>
		<path d="M226.19,126.05l-0.32-0.94l0.95-0.32l0.32,0.94L226.19,126.05z M225.23,123.22l-0.32-0.94l0.95-0.32l0.32,0.94
			L225.23,123.22z M224.26,120.39l-0.32-0.94l0.95-0.32l0.32,0.94L224.26,120.39z M223.3,117.56l-0.32-0.94l0.95-0.32l0.32,0.94
			L223.3,117.56z M222.34,114.73l-0.32-0.94l0.95-0.32l0.32,0.94L222.34,114.73z M221.38,111.9l-0.32-0.94l0.95-0.32l0.32,0.94
			L221.38,111.9z M220.41,109.07l-0.32-0.94l0.95-0.32l0.32,0.94L220.41,109.07z M219.45,106.24l-0.32-0.94l0.95-0.32l0.32,0.94
			L219.45,106.24z M218.49,103.41l-0.32-0.94l0.95-0.32l0.32,0.94L218.49,103.41z M217.53,100.58l-0.32-0.94l0.95-0.32l0.32,0.94
			L217.53,100.58z M216.57,97.75l-0.32-0.94l0.95-0.32l0.32,0.94L216.57,97.75z M215.6,94.92l-0.32-0.94l0.95-0.32l0.32,0.94
			L215.6,94.92z M214.64,92.09l-0.32-0.94l0.95-0.32l0.32,0.94L214.64,92.09z M213.68,89.26l-0.32-0.94L214.3,88l0.32,0.94
			L213.68,89.26z M212.72,86.43l-0.32-0.94l0.95-0.32l0.32,0.94L212.72,86.43z M211.75,83.6l-0.32-0.94l0.95-0.32l0.32,0.94
			L211.75,83.6z M210.79,80.77l-0.32-0.94l0.95-0.32l0.32,0.94L210.79,80.77z M209.83,77.94L209.51,77l0.95-0.32l0.32,0.94
			L209.83,77.94z M208.87,75.11l-0.32-0.94l0.95-0.32l0.32,0.94L208.87,75.11z M207.9,72.28l-0.32-0.94l0.95-0.32l0.32,0.94
			L207.9,72.28z M206.94,69.45l-0.32-0.94l0.95-0.32l0.32,0.94L206.94,69.45z M205.98,66.63l-0.32-0.94l0.95-0.32l0.32,0.94
			L205.98,66.63z M205.02,63.8l-0.32-0.94l0.95-0.32l0.32,0.94L205.02,63.8z M204.05,60.97l-0.32-0.94l0.95-0.32l0.32,0.94
			L204.05,60.97z"/>
	</g>
	<g>
		<polygon points="203.29,58.2 203.22,58.09 203.09,58.14 202.96,57.74 202.71,57.39 203.66,56.7 204.04,57.81 203.64,57.95 		"/>
	</g>
	<g>
		<path d="M64.13,247.37l-0.89-0.46l0.46-0.89l0.89,0.46L64.13,247.37z M65.51,244.69l-0.89-0.46l0.46-0.89l0.89,0.46L65.51,244.69z
			 M66.89,242.01L66,241.55l0.46-0.89l0.89,0.46L66.89,242.01z M68.26,239.33l-0.89-0.46l0.46-0.89l0.89,0.46L68.26,239.33z
			 M69.64,236.65l-0.89-0.46l0.46-0.89l0.89,0.46L69.64,236.65z M71.01,233.97l-0.89-0.46l0.46-0.89l0.89,0.46L71.01,233.97z
			 M72.39,231.29l-0.89-0.46l0.46-0.89l0.89,0.46L72.39,231.29z M73.77,228.61l-0.89-0.46l0.46-0.89l0.89,0.46L73.77,228.61z
			 M75.14,225.93l-0.89-0.46l0.46-0.89l0.89,0.46L75.14,225.93z M76.52,223.25l-0.89-0.46l0.46-0.89l0.89,0.46L76.52,223.25z
			 M77.9,220.57l-0.89-0.46l0.46-0.89l0.89,0.46L77.9,220.57z M79.27,217.89l-0.89-0.46l0.46-0.89l0.89,0.46L79.27,217.89z
			 M80.65,215.21l-0.89-0.46l0.46-0.89l0.89,0.46L80.65,215.21z M82.02,212.53l-0.89-0.46l0.46-0.89l0.89,0.46L82.02,212.53z
			 M83.4,209.85l-0.89-0.46l0.46-0.89l0.89,0.46L83.4,209.85z M84.78,207.17l-0.89-0.46l0.46-0.89l0.89,0.46L84.78,207.17z
			 M86.15,204.5l-0.89-0.46l0.46-0.89l0.89,0.46L86.15,204.5z M87.53,201.82l-0.89-0.46l0.46-0.89l0.89,0.46L87.53,201.82z
			 M88.91,199.14l-0.89-0.46l0.46-0.89l0.89,0.46L88.91,199.14z M90.28,196.46L89.39,196l0.46-0.89l0.89,0.46L90.28,196.46z
			 M91.66,193.78l-0.89-0.46l0.46-0.89l0.89,0.46L91.66,193.78z M93.03,191.1l-0.89-0.46l0.46-0.89l0.89,0.46L93.03,191.1z
			 M94.41,188.42l-0.89-0.46l0.46-0.89l0.89,0.46L94.41,188.42z M95.79,185.74l-0.89-0.46l0.46-0.89l0.89,0.46L95.79,185.74z
			 M97.16,183.06l-0.89-0.46l0.46-0.89l0.89,0.46L97.16,183.06z M98.54,180.38l-0.89-0.46l0.46-0.89l0.89,0.46L98.54,180.38z
			 M99.92,177.7l-0.89-0.46l0.46-0.89l0.89,0.46L99.92,177.7z M101.29,175.02l-0.89-0.46l0.46-0.89l0.89,0.46L101.29,175.02z
			 M102.67,172.34l-0.89-0.46l0.46-0.89l0.89,0.46L102.67,172.34z M104.04,169.66l-0.89-0.46l0.46-0.89l0.89,0.46L104.04,169.66z
			 M105.42,166.98l-0.89-0.46l0.46-0.89l0.89,0.46L105.42,166.98z M106.8,164.3l-0.89-0.46l0.46-0.89l0.89,0.46L106.8,164.3z
			 M108.17,161.62l-0.89-0.46l0.46-0.89l0.89,0.46L108.17,161.62z M109.55,158.95l-0.89-0.46l0.46-0.89l0.89,0.46L109.55,158.95z
			 M110.93,156.27l-0.89-0.46l0.46-0.89l0.89,0.46L110.93,156.27z M112.3,153.59l-0.89-0.46l0.46-0.89l0.89,0.46L112.3,153.59z
			 M113.68,150.91l-0.89-0.46l0.46-0.89l0.89,0.46L113.68,150.91z M115.05,148.23l-0.89-0.46l0.46-0.89l0.89,0.46L115.05,148.23z
			 M116.43,145.55l-0.89-0.46l0.46-0.89l0.89,0.46L116.43,145.55z M117.81,142.87l-0.89-0.46l0.46-0.89l0.89,0.46L117.81,142.87z
			 M119.18,140.19l-0.89-0.46l0.46-0.89l0.89,0.46L119.18,140.19z M120.56,137.51l-0.89-0.46l0.46-0.89l0.89,0.46L120.56,137.51z
			 M121.94,134.83l-0.89-0.46l0.46-0.89l0.89,0.46L121.94,134.83z M123.31,132.15l-0.89-0.46l0.46-0.89l0.89,0.46L123.31,132.15z
			 M124.69,129.47l-0.89-0.46l0.46-0.89l0.89,0.46L124.69,129.47z M126.06,126.79l-0.89-0.46l0.46-0.89l0.89,0.46L126.06,126.79z
			 M127.44,124.11l-0.89-0.46l0.46-0.89l0.89,0.46L127.44,124.11z M128.82,121.43l-0.89-0.46l0.46-0.89l0.89,0.46L128.82,121.43z
			 M130.19,118.75l-0.89-0.46l0.46-0.89l0.89,0.46L130.19,118.75z M131.57,116.07l-0.89-0.46l0.46-0.89l0.89,0.46L131.57,116.07z
			 M132.94,113.4l-0.89-0.46l0.46-0.89l0.89,0.46L132.94,113.4z M134.32,110.72l-0.89-0.46l0.46-0.89l0.89,0.46L134.32,110.72z
			 M135.7,108.04l-0.89-0.46l0.46-0.89l0.89,0.46L135.7,108.04z M137.54,106.06l-0.59-0.81l0.81-0.59l0.59,0.81L137.54,106.06z
			 M139.97,104.29l-0.59-0.81l0.81-0.59l0.59,0.81L139.97,104.29z M142.41,102.52l-0.59-0.81l0.81-0.59l0.59,0.81L142.41,102.52z
			 M144.85,100.74l-0.59-0.81l0.81-0.59l0.59,0.81L144.85,100.74z M147.28,98.97l-0.59-0.81l0.81-0.59l0.59,0.81L147.28,98.97z
			 M149.72,97.2l-0.59-0.81l0.81-0.59l0.59,0.81L149.72,97.2z M152.15,95.42l-0.59-0.81l0.81-0.59l0.59,0.81L152.15,95.42z
			 M154.59,93.65L154,92.84l0.81-0.59l0.59,0.81L154.59,93.65z M157.02,91.88l-0.59-0.81l0.81-0.59l0.59,0.81L157.02,91.88z
			 M159.46,90.11l-0.59-0.81l0.81-0.59l0.59,0.81L159.46,90.11z M161.89,88.33l-0.59-0.81l0.81-0.59l0.59,0.81L161.89,88.33z
			 M164.33,86.56l-0.59-0.81l0.81-0.59l0.59,0.81L164.33,86.56z M166.76,84.79l-0.59-0.81l0.81-0.59l0.59,0.81L166.76,84.79z
			 M169.2,83.02l-0.59-0.81l0.81-0.59l0.59,0.81L169.2,83.02z M171.63,81.24l-0.59-0.81l0.81-0.59l0.59,0.81L171.63,81.24z
			 M174.07,79.47l-0.59-0.81l0.81-0.59l0.59,0.81L174.07,79.47z M176.51,77.7l-0.59-0.81l0.81-0.59l0.59,0.81L176.51,77.7z
			 M178.94,75.93l-0.59-0.81l0.81-0.59l0.59,0.81L178.94,75.93z M181.38,74.15l-0.59-0.81l0.81-0.59l0.59,0.81L181.38,74.15z
			 M183.81,72.38l-0.59-0.81l0.81-0.59l0.59,0.81L183.81,72.38z M186.25,70.61l-0.59-0.81l0.81-0.59l0.59,0.81L186.25,70.61z
			 M188.68,68.84l-0.59-0.81l0.81-0.59l0.59,0.81L188.68,68.84z M191.12,67.06l-0.59-0.81l0.81-0.59l0.59,0.81L191.12,67.06z
			 M193.55,65.29l-0.59-0.81l0.81-0.59l0.59,0.81L193.55,65.29z M195.99,63.52l-0.59-0.81l0.81-0.59l0.59,0.81L195.99,63.52z
			 M198.42,61.75l-0.59-0.81l0.81-0.59l0.59,0.81L198.42,61.75z M200.86,59.97l-0.59-0.81l0.81-0.59l0.59,0.81L200.86,59.97z"/>
	</g>
	<g>
		<rect x="62.41" y="248.65" transform="matrix(0.457 -0.8895 0.8895 0.457 -187.5852 191.0222)" width="0.5" height="1"/>
	</g>
</g>
<g>
	<g>
		<g>
			<path class="st0" d="M113.06,168.85H95.94c-0.87,0-1.58-0.71-1.58-1.58v-12.95c0-0.41,0.16-0.81,0.45-1.11l1.91-1.95
				c0.3-0.3,0.7-0.47,1.12-0.47h13.1c0.37,0,0.74,0.13,1.02,0.38l2.11,1.79c0.35,0.3,0.55,0.74,0.55,1.2v13.1
				C114.64,168.15,113.94,168.85,113.06,168.85z M97.52,165.7h13.97V154.9l-1.11-0.95H98.51l-0.99,1.01V165.7z"/>
		</g>
		<g>
			<path class="st1" d="M75.96,158.93c-2.49,0-4.51,2.02-4.51,4.5v34.71c0,2.49,2.02,4.51,4.51,4.51h28.54v-43.72H75.96z"/>
			<path class="st2" d="M133.04,158.93H104.5v43.72h28.54c2.49,0,4.51-2.02,4.51-4.51v-34.71
				C137.55,160.94,135.53,158.93,133.04,158.93z"/>
		</g>
		<g>
			<g>
				<rect x="79.62" y="169.83" class="st3" width="49.77" height="1.8"/>
			</g>
		</g>
		<g>
			<g>
				<rect x="79.62" y="176.69" class="st3" width="49.77" height="1.8"/>
			</g>
		</g>
		<g>
			<g>
				<rect x="79.62" y="183.56" class="st3" width="49.77" height="1.8"/>
			</g>
		</g>
		<rect x="122.71" y="158.93" class="st0" width="6.68" height="43.72"/>
		<rect x="79.62" y="158.93" class="st0" width="6.68" height="43.72"/>
		<rect x="91.67" y="202.64" class="st0" width="8.36" height="1.95"/>
		<rect x="109.23" y="202.64" class="st0" width="8.36" height="1.95"/>
	</g>
</g>
<g>
	<g>
		<g>
			<polygon class="st4" points="193.21,341.53 225,316.15 256.79,341.53 225,358.3 			"/>
			<polygon class="st2" points="225,356.67 195.79,341.29 225,317.95 254.21,341.29 			"/>
		</g>
		<g>
			<g>
				<g>
					<path class="st3" d="M225.32,301.85c-7.78-0.03-14.12,6.52-14.14,14.63c-0.02,5.61,3.6,8.29,6.17,12.8
						c1.31,2.3,1.21,10.88,1.21,10.88c-0.01,1.72,1.32,3.11,2.97,3.12l3.65,0.01L225.32,301.85L225.32,301.85z"/>
					<path class="st5" d="M239.36,316.58c0.03-8.11-6.26-14.7-14.04-14.73l-0.14,41.45l3.65,0.01c1.65,0.01,2.99-1.38,2.99-3.1
						c0,0-0.05-8.67,1.28-10.96C235.71,324.76,239.34,322.19,239.36,316.58z"/>
				</g>
				<g>
					<path class="st6" d="M222.67,337.14c1.4-1.39,3.66-1.38,5.06,0.02l1.96,1.97c1.39,1.4,1.38,3.67-0.02,5.06l-1.97,1.96
						c-1.4,1.39-3.66,1.38-5.05-0.02l-1.96-1.97c-1.39-1.4-1.38-3.67,0.02-5.06L222.67,337.14z"/>
					<path class="st7" d="M233.31,341.83c0,0.84-1.04,1.52-2.33,1.52l-11.62-0.04c-1.28,0-2.32-0.69-2.32-1.54l0,0
						c0-0.84,1.04-1.52,2.33-1.52L231,340.3C232.28,340.3,233.32,340.99,233.31,341.83L233.31,341.83z"/>
					<path class="st6" d="M233.32,338.97c0,0.84-1.04,1.53-2.33,1.52l-11.62-0.04c-1.28,0-2.32-0.69-2.32-1.54l0,0
						c0-0.84,1.04-1.52,2.33-1.52l11.62,0.04C232.29,337.44,233.33,338.13,233.32,338.97L233.32,338.97z"/>
					<path class="st7" d="M233.33,336.11c0,0.84-1.04,1.52-2.33,1.52l-11.62-0.04c-1.28,0-2.32-0.69-2.32-1.53l0,0
						c0-0.84,1.04-1.53,2.33-1.52l11.62,0.04C232.3,334.58,233.34,335.27,233.33,336.11L233.33,336.11z"/>
					<path class="st6" d="M233.35,333.25c0,0.84-1.05,1.53-2.33,1.52l-11.62-0.04c-1.28,0-2.32-0.69-2.32-1.54l0,0
						c0-0.84,1.04-1.52,2.33-1.52l11.62,0.04C232.31,331.72,233.35,332.41,233.35,333.25L233.35,333.25z"/>
				</g>
			</g>
		</g>
	</g>
</g>
<g>
	<path class="st0" d="M282.54,97.17v44.82h66.5V97.17H282.54z M346.04,138.9h-60.5v-38.64h60.5V138.9z"/>
	<rect x="285.54" y="100.26" class="st8" width="60.5" height="6.3"/>
	<rect x="332.53" y="102.02" class="st3" width="2.78" height="2.78"/>
	<rect x="336.65" y="102.02" class="st9" width="2.78" height="2.78"/>
	<rect x="340.76" y="102.02" class="st10" width="2.78" height="2.78"/>
	<rect x="285.54" y="106.56" class="st1" width="30.25" height="32.34"/>
	<rect x="315.79" y="106.56" class="st2" width="30.25" height="32.34"/>
	<g>
		<path class="st6" d="M302.13,123.56v0.07l7.06,2.48v3.33l-10.54-4.49v-2.78l10.54-4.48v3.33L302.13,123.56z"/>
		<path class="st6" d="M314.04,131.81h-3.47l6.53-19.33h3.47L314.04,131.81z"/>
		<path class="st6" d="M329.45,123.69v-0.07l-7.17-2.52v-3.29l10.66,4.48v2.78l-10.66,4.49v-3.3L329.45,123.69z"/>
	</g>
</g>
<g>
	<g>
		<g>
			<path class="st0" d="M173.73,88.73h-8.79v44.61h8.79c1.78,0,3.22-1.44,3.22-3.22V91.94C176.95,90.17,175.51,88.73,173.73,88.73z"
				/>
			<path class="st8" d="M156.15,88.73c-1.78,0-3.22,1.44-3.22,3.22v38.18c0,1.78,1.44,3.22,3.22,3.22h8.79V88.73H156.15z"/>
		</g>
		<rect x="160.06" y="90.51" class="st6" width="9.77" height="0.8"/>
		<g>
			<path class="st6" d="M164.94,132.09c-1.46,0-2.65-1.19-2.65-2.65c0-1.46,1.19-2.65,2.65-2.65c1.46,0,2.65,1.19,2.65,2.65
				C167.59,130.9,166.4,132.09,164.94,132.09z M164.94,127.37c-1.14,0-2.08,0.93-2.08,2.08c0,1.14,0.93,2.08,2.08,2.08
				s2.08-0.93,2.08-2.08C167.02,128.29,166.09,127.37,164.94,127.37z"/>
		</g>
		<g>
			<rect x="154.1" y="93.56" class="st4" width="10.96" height="31.62"/>
			<rect x="165.06" y="93.56" class="st11" width="10.73" height="31.62"/>
		</g>
	</g>
	<g>
		<g>
			<g>
				<g>
					<path class="st8" d="M113.21,77c-2.39,0-4.33,1.94-4.33,4.33v47.63c0,2.39,1.94,4.33,4.33,4.33h17.03V77H113.21z"/>
					<path class="st0" d="M147.28,77h-17.03v56.29h17.03c2.39,0,4.33-1.94,4.33-4.33V81.33C151.6,78.94,149.67,77,147.28,77z"/>
				</g>
				<path class="st6" d="M132.63,130c0,1.32-1.07,2.38-2.38,2.38c-1.32,0-2.38-1.07-2.38-2.38c0-1.32,1.07-2.38,2.38-2.38
					C131.56,127.61,132.63,128.68,132.63,130z"/>
				<path class="st6" d="M142.1,79.29c0,0.45-0.37,0.82-0.82,0.82c-0.45,0-0.82-0.37-0.82-0.82c0-0.45,0.37-0.82,0.82-0.82
					C141.73,78.46,142.1,78.83,142.1,79.29z"/>
			</g>
			<g>
				<rect x="110.77" y="81.67" class="st1" width="19.38" height="44.43"/>
				<rect x="130.15" y="81.67" class="st2" width="19.57" height="44.43"/>
			</g>
		</g>
	</g>
	<g>
		<path class="st6" d="M120.23,116.63c-2.21,0-4-1.79-4-4v-8.39c0-2.21,1.79-4,4-4h45.6c2.21,0,4,1.79,4,4v8.39c0,2.21-1.79,4-4,4
			H120.23z"/>
		<path class="st12" d="M165.83,115.63h-45.6c-1.66,0-3-1.34-3-3v-8.39c0-1.66,1.34-3,3-3h45.6c1.66,0,3,1.34,3,3v8.39
			C168.83,114.29,167.48,115.63,165.83,115.63z"/>
	</g>
	<g>
		<path class="st6" d="M128.47,109.84h-1.63l-0.34,1.08h-1.05l1.69-5.01h1.03l1.68,5.01h-1.05L128.47,109.84z M127.09,109.06h1.13
			l-0.55-1.77h-0.02L127.09,109.06z"/>
		<path class="st6" d="M131.34,109.11v1.82h-1.01v-5.01h1.92c0.58,0,1.03,0.15,1.36,0.44s0.5,0.68,0.5,1.16
			c0,0.48-0.17,0.87-0.5,1.16c-0.33,0.29-0.79,0.44-1.36,0.44H131.34z M131.34,108.33h0.91c0.28,0,0.49-0.08,0.64-0.23
			c0.14-0.15,0.22-0.35,0.22-0.58c0-0.24-0.07-0.44-0.21-0.6c-0.14-0.16-0.36-0.24-0.64-0.24h-0.91V108.33z"/>
		<path class="st6" d="M135.83,109.11v1.82h-1.01v-5.01h1.92c0.58,0,1.03,0.15,1.36,0.44c0.33,0.29,0.5,0.68,0.5,1.16
			c0,0.48-0.17,0.87-0.5,1.16c-0.33,0.29-0.79,0.44-1.36,0.44H135.83z M135.83,108.33h0.91c0.28,0,0.49-0.08,0.64-0.23
			c0.14-0.15,0.22-0.35,0.22-0.58c0-0.24-0.07-0.44-0.21-0.6c-0.14-0.16-0.36-0.24-0.64-0.24h-0.91V108.33z"/>
		<path class="st6" d="M140.32,108.92v2h-1.01v-5.01h1.75c0.57,0,1.02,0.13,1.34,0.39c0.32,0.26,0.49,0.62,0.49,1.09
			c0,0.26-0.07,0.48-0.21,0.67c-0.14,0.19-0.34,0.34-0.6,0.45c0.3,0.09,0.51,0.23,0.64,0.44c0.13,0.2,0.19,0.46,0.19,0.76v0.37
			c0,0.14,0.02,0.29,0.06,0.44c0.04,0.15,0.1,0.27,0.19,0.34v0.07h-1.04c-0.09-0.07-0.15-0.2-0.18-0.37
			c-0.03-0.17-0.04-0.33-0.04-0.49v-0.35c0-0.25-0.07-0.44-0.21-0.58c-0.14-0.14-0.33-0.21-0.58-0.21H140.32z M140.32,108.15h0.73
			c0.28,0,0.49-0.06,0.63-0.18c0.14-0.12,0.21-0.3,0.21-0.53c0-0.23-0.07-0.41-0.21-0.55c-0.14-0.14-0.34-0.2-0.62-0.2h-0.74V108.15
			z"/>
		<path class="st6" d="M147.81,108.87c0,0.62-0.19,1.13-0.58,1.53c-0.39,0.4-0.89,0.6-1.51,0.6c-0.62,0-1.12-0.2-1.51-0.6
			c-0.38-0.4-0.58-0.91-0.58-1.53v-0.9c0-0.61,0.19-1.12,0.58-1.52c0.38-0.4,0.88-0.6,1.5-0.6c0.62,0,1.13,0.2,1.52,0.6
			c0.39,0.4,0.58,0.91,0.58,1.52V108.87z M146.81,107.96c0-0.39-0.1-0.71-0.29-0.96c-0.19-0.25-0.46-0.38-0.81-0.38
			c-0.34,0-0.6,0.13-0.79,0.38c-0.19,0.25-0.28,0.57-0.28,0.96v0.91c0,0.4,0.1,0.72,0.29,0.97c0.19,0.25,0.46,0.38,0.8,0.38
			c0.34,0,0.61-0.13,0.81-0.38c0.19-0.25,0.29-0.57,0.29-0.97V107.96z"/>
		<path class="st6" d="M150.16,109.57l0.06,0.28h0.02l0.06-0.27l1.09-3.66h1.06l-1.71,5.01h-1.03l-1.7-5.01h1.06L150.16,109.57z"/>
		<path class="st6" d="M155.8,108.72h-1.86v1.43h2.21v0.77h-3.22v-5.01h3.21v0.77h-2.2v1.26h1.86V108.72z"/>
		<path class="st6" d="M156.85,110.93v-5.01h1.75c0.61,0,1.11,0.2,1.51,0.59c0.4,0.39,0.6,0.89,0.6,1.51v0.83
			c0,0.62-0.2,1.12-0.6,1.51c-0.4,0.39-0.9,0.58-1.51,0.58H156.85z M157.86,106.69v3.47h0.74c0.33,0,0.59-0.12,0.8-0.37
			c0.2-0.25,0.3-0.56,0.3-0.95V108c0-0.38-0.1-0.7-0.3-0.94c-0.2-0.25-0.47-0.37-0.8-0.37H157.86z"/>
	</g>
</g>
<g>
	<g>
		<g>
			<path class="st1" d="M283.34,55.8c0-0.93-0.63-2.09-1.41-2.6l-7.54-4.91c-0.39-0.25-0.89-0.38-1.4-0.38v3.38
				c1.02,0,1.85,0.83,1.85,1.85c0,1.02-0.83,1.85-1.85,1.85v26.5h8.68c0.93,0,1.68-0.75,1.68-1.68
				C283.34,74.92,283.34,60.7,283.34,55.8z"/>
			<path class="st2" d="M271.14,53.15c0-1.02,0.83-1.85,1.85-1.85v-3.38c-0.51,0-1.02,0.13-1.41,0.38l-7.54,4.91
				c-0.78,0.51-1.41,1.67-1.41,2.6v24.01c0,0.93,0.75,1.68,1.68,1.68h8.68v-26.5C271.97,54.99,271.14,54.17,271.14,53.15z"/>
		</g>
		<g>
			<path class="st6" d="M281.66,80.09h-17.64V55.8c0-0.46,0.39-1.17,0.77-1.42l7.54-4.91c0.11-0.07,0.34-0.15,0.64-0.15
				c0.3,0,0.53,0.08,0.64,0.15l7.54,4.91c0.38,0.25,0.77,0.97,0.77,1.42c0,4.9,0.01,19.11,0.01,24.01v0.28H281.66z M264.59,79.53
				h16.8c0-5.14,0-18.92-0.01-23.73c0-0.27-0.3-0.81-0.52-0.96l-7.54-4.91c-0.03-0.02-0.15-0.06-0.34-0.06
				c-0.19,0-0.31,0.05-0.34,0.06l-7.54,4.91c-0.22,0.15-0.52,0.69-0.52,0.95V79.53z"/>
		</g>
		<g>
			<path class="st6" d="M271.14,62.46c0.3,0,0.53-0.1,0.71-0.31c0.17-0.21,0.34-0.58,0.5-1.12c0.27-0.91,0.59-1.59,0.96-2.06
				c0.37-0.47,0.88-0.7,1.52-0.7c0.64,0,1.17,0.26,1.58,0.79c0.41,0.52,0.61,1.2,0.61,2.02c0,0.87-0.22,1.57-0.66,2.11
				c-0.44,0.53-1.02,0.79-1.73,0.77l-0.03-0.01v-1.52c0.39,0,0.7-0.12,0.91-0.36c0.21-0.24,0.32-0.57,0.32-1
				c0-0.39-0.09-0.69-0.28-0.9c-0.19-0.21-0.43-0.31-0.72-0.31c-0.27,0-0.49,0.11-0.66,0.34c-0.17,0.23-0.35,0.62-0.54,1.19
				c-0.25,0.87-0.56,1.54-0.94,1.99c-0.38,0.45-0.9,0.68-1.54,0.68c-0.68,0-1.22-0.26-1.62-0.79c-0.4-0.53-0.6-1.23-0.6-2.09
				c0-0.84,0.21-1.57,0.63-2.18c0.42-0.61,1.05-0.9,1.89-0.88l0.03,0.01v1.53c-0.46,0-0.81,0.14-1.03,0.41
				c-0.22,0.27-0.33,0.64-0.33,1.11c0,0.42,0.09,0.74,0.28,0.97C270.6,62.35,270.84,62.46,271.14,62.46z"/>
			<path class="st6" d="M272.51,69.68v-2.92h-2.25v3.48h-1.21v-5.05h7.87v5.04h-1.22v-3.46h-1.98v2.92H272.51z"/>
			<path class="st6" d="M272.27,77.7c-0.97,0-1.77-0.3-2.4-0.91c-0.63-0.61-0.94-1.4-0.94-2.38c0-0.97,0.32-1.76,0.95-2.37
				c0.63-0.61,1.43-0.91,2.39-0.91h1.42c0.96,0,1.76,0.3,2.39,0.91c0.63,0.6,0.95,1.39,0.95,2.36c0,0.98-0.32,1.77-0.95,2.38
				c-0.63,0.61-1.43,0.92-2.39,0.92H272.27z M273.7,76.13c0.61,0,1.12-0.15,1.51-0.46c0.39-0.31,0.59-0.73,0.59-1.27
				c0-0.53-0.2-0.95-0.59-1.25c-0.39-0.3-0.9-0.45-1.51-0.45h-1.43c-0.62,0-1.13,0.15-1.52,0.45c-0.39,0.3-0.59,0.72-0.59,1.25
				c0,0.54,0.2,0.96,0.59,1.27c0.39,0.3,0.9,0.45,1.52,0.45H273.7z"/>
		</g>
	</g>
	<path class="st13" d="M273.54,52.93c0,0-0.05,0.1-0.14,0.28c-0.09,0.17-0.23,0.42-0.43,0.72c-0.39,0.6-1.01,1.42-1.94,2.25
		c-0.92,0.83-2.18,1.64-3.69,2.13c-0.75,0.25-1.56,0.42-2.39,0.49l-0.62,0.04c-0.01,0.01-0.21,0.01-0.19,0.02L264,58.91
		c-0.19,0.06-0.37,0.18-0.56,0.34c-0.37,0.34-0.7,0.89-0.95,1.49c-0.26,0.6-0.46,1.25-0.61,1.9c-0.31,1.3-0.47,2.58-0.56,3.67
		c-0.09,1.1-0.11,2.02-0.11,2.65c0,0.64,0.02,0.98,0.02,0.98c0.06,0.93-0.65,1.72-1.58,1.78c-0.93,0.06-1.72-0.65-1.78-1.58
		c0-0.05,0-0.1,0-0.15l0-0.05c0,0,0.01-0.42,0.07-1.13c0.06-0.71,0.17-1.71,0.38-2.89c0.21-1.19,0.5-2.57,0.99-4.04
		c0.25-0.73,0.55-1.49,0.96-2.25c0.41-0.75,0.92-1.53,1.75-2.17c0.42-0.31,0.92-0.57,1.48-0.69c0.14-0.03,0.27-0.05,0.44-0.06
		c0.21-0.02,0.2-0.01,0.38-0.01l0.51,0.01c0.68-0.01,1.35-0.09,1.98-0.24c1.27-0.29,2.37-0.87,3.22-1.51
		c0.86-0.64,1.46-1.32,1.85-1.81c0.19-0.25,0.33-0.45,0.42-0.59c0.08-0.13,0.13-0.2,0.13-0.2l0.03-0.05
		c0.18-0.29,0.56-0.38,0.85-0.2C273.58,52.3,273.68,52.65,273.54,52.93z"/>
</g>
<g>
	<path class="st0" d="M337.97,33.44v24.9h36.95v-24.9H337.97z M373.25,56.63h-33.61V35.15h33.61V56.63z"/>
	<rect x="339.63" y="35.15" class="st1" width="33.61" height="3.5"/>
	<rect x="365.74" y="36.13" class="st3" width="1.54" height="1.54"/>
	<rect x="368.03" y="36.13" class="st9" width="1.54" height="1.54"/>
	<rect x="370.32" y="36.13" class="st10" width="1.54" height="1.54"/>
	<rect x="339.63" y="38.65" class="st1" width="16.81" height="17.97"/>
	<rect x="356.44" y="38.65" class="st2" width="16.81" height="17.97"/>
	<g>
		<g>
			<g>
				<path class="st8" d="M357.7,48.27l-0.42-3.05l-1.54,0.07c-0.11-0.23-0.24-0.45-0.38-0.65l0.82-1.31l-2.45-1.86l-1.04,1.14
					c-0.24-0.08-0.48-0.15-0.73-0.19l-0.35-1.51l-3.05,0.42l0.07,1.55c-0.23,0.11-0.44,0.24-0.65,0.38l-1.31-0.82l-1.86,2.45
					l1.14,1.04c-0.08,0.24-0.14,0.48-0.19,0.73l-1.51,0.35l0.42,3.05l1.54-0.07c0.11,0.23,0.24,0.44,0.38,0.65l-0.82,1.31l2.45,1.86
					l1.04-1.14c0.24,0.08,0.48,0.15,0.73,0.19l0.35,1.51l3.05-0.42l-0.07-1.54c0.23-0.11,0.44-0.24,0.65-0.38l1.31,0.82l1.86-2.45
					L356,49.35c0.08-0.24,0.14-0.48,0.19-0.73L357.7,48.27z M351.38,50.69c-1.69,0.23-3.24-0.95-3.47-2.63
					c-0.23-1.68,0.95-3.24,2.63-3.47c1.69-0.23,3.24,0.95,3.47,2.63C354.25,48.91,353.07,50.46,351.38,50.69z"/>
			</g>
			<g>
				<path class="st6" d="M350.96,52.11c-2.46,0-4.47-2.01-4.47-4.47c0-2.46,2.01-4.47,4.47-4.47c2.46,0,4.47,2.01,4.47,4.47
					C355.43,50.1,353.43,52.11,350.96,52.11z M350.96,43.91c-2.06,0-3.73,1.67-3.73,3.73c0,2.06,1.67,3.73,3.73,3.73
					c2.06,0,3.73-1.67,3.73-3.73C354.7,45.58,353.02,43.91,350.96,43.91z"/>
			</g>
		</g>
		<g>
			<path class="st0" d="M363.86,45.02L363.86,45.02l0.78-2.3l-2.36-1.75l0.77,2.24l-0.53,0.18l-1.43,0.49l-0.77-2.24l-0.74,2.82
				l2,1.35l0.01,0l2.33,6.81c-0.16,0.36-0.2,0.78-0.06,1.18c0.29,0.84,1.2,1.28,2.03,1c0.83-0.29,1.28-1.2,0.99-2.03
				c-0.12-0.36-0.36-0.64-0.65-0.83L363.86,45.02z M365.65,54.02c-0.41,0.14-0.86-0.08-1-0.49c-0.14-0.41,0.08-0.86,0.49-1
				c0.41-0.14,0.86,0.08,1,0.49C366.28,53.43,366.06,53.88,365.65,54.02z"/>
		</g>
		<polygon class="st8" points="365.74,51.47 364.48,50.69 363.27,44.5 		"/>
	</g>
</g>
<g>
	<g>
		<g>
			<path class="st0" d="M227.09,102.2L227.09,102.2v0.49l0,0c13.74,0,24.92,11.18,24.92,24.92c0,13.74-11.18,24.92-24.92,24.92l0,0
				v0.49l0,0c14.01,0,25.41-11.4,25.41-25.41C252.5,113.6,241.1,102.2,227.09,102.2z"/>
			<path class="st8" d="M202.16,127.61c0-13.74,11.18-24.92,24.92-24.92v-0.49c-14.01,0-25.41,11.4-25.41,25.41
				c0,14.01,11.4,25.41,25.41,25.41v-0.49C213.34,152.54,202.16,141.36,202.16,127.61z"/>
			<path class="st13" d="M246.7,127.61c0-10.83-8.78-19.61-19.61-19.61l0,0v5.64l0,0c7.71,0,13.97,6.27,13.97,13.97
				c0,7.71-6.27,13.97-13.97,13.97l0,0v5.64l0,0C237.92,147.23,246.7,138.45,246.7,127.61z"/>
			<path class="st3" d="M213.11,127.61c0-7.71,6.27-13.97,13.97-13.97V108c-10.83,0-19.61,8.78-19.61,19.61
				c0,10.83,8.78,19.61,19.61,19.61v-5.64C219.38,141.59,213.11,135.32,213.11,127.61z"/>
			<path class="st14" d="M227.09,121.08c3.61,0,6.54,2.93,6.54,6.54c0,3.61-2.93,6.54-6.54,6.54l0,0v6.95l0,0
				c7.43,0,13.48-6.05,13.48-13.48c0-7.43-6.05-13.48-13.48-13.48l0,0V121.08L227.09,121.08z"/>
			<path class="st14" d="M213.6,127.61c0,7.44,6.05,13.48,13.48,13.48v-6.95c-3.61,0-6.54-2.93-6.54-6.54
				c0-3.61,2.93-6.54,6.54-6.54v-6.95C219.65,114.13,213.6,120.18,213.6,127.61z"/>
			<path class="st8" d="M213.11,127.61c0,7.71,6.27,13.97,13.97,13.97v-0.25v-0.25c-7.44,0-13.48-6.05-13.48-13.48
				c0-7.43,6.05-13.48,13.48-13.48v-0.24v-0.25C219.38,113.64,213.11,119.91,213.11,127.61z"/>
			<path class="st0" d="M227.09,113.64L227.09,113.64v0.25v0.24l0,0c7.43,0,13.48,6.05,13.48,13.48c0,7.44-6.05,13.48-13.48,13.48
				l0,0v0.25v0.25l0,0c7.71,0,13.97-6.27,13.97-13.97C241.06,119.91,234.79,113.64,227.09,113.64z"/>
			<path class="st3" d="M220.55,127.61c0,3.61,2.93,6.54,6.54,6.54v-13.08C223.48,121.08,220.55,124,220.55,127.61z"/>
			<path class="st13" d="M233.63,127.61c0-3.61-2.93-6.54-6.54-6.54l0,0v13.08l0,0C230.7,134.15,233.63,131.23,233.63,127.61z"/>
		</g>
		<path class="st0" d="M256.5,113.66l-4.34-1.08l1.08-4.34l-4.9,2.94l-2.2,4.15l-19.43,11.66c-0.35,0.21-0.46,0.66-0.25,1.01
			c0.14,0.23,0.38,0.36,0.63,0.36c0.13,0,0.26-0.03,0.38-0.11l19.43-11.66l4.7,0.01L256.5,113.66z"/>
	</g>
</g>
<g>
	<g>
		<rect x="36.62" y="241.9" width="39.18" height="25.17"/>
		<polygon class="st15" points="64.25,275.1 49.38,275.1 53.42,269.7 60.21,269.7 		"/>
		<path class="st16" d="M72.93,272.32H39.49c-1.59,0-2.87-1.17-2.87-2.62v-2.62H75.8c0,0,0,1.17,0,2.62
			C75.8,271.14,74.51,272.32,72.93,272.32z"/>
		<rect x="48.83" y="275.1" width="15.96" height="1.7"/>
		<g>
			<rect x="37.77" y="243.05" class="st17" width="19.05" height="22.88"/>
			<rect x="56.81" y="243.05" class="st18" width="17.83" height="22.88"/>
		</g>
	</g>
	<g>
		<g>
			<path class="st2" d="M67.97,257.46c0-0.38-0.11-0.69-0.33-0.92c-0.22-0.23-0.61-0.46-1.17-0.67c-1.06-0.36-1.85-0.77-2.36-1.24
				c-0.51-0.47-0.77-1.14-0.77-2c0-0.79,0.26-1.44,0.77-1.94c0.51-0.5,1.2-0.8,2.08-0.89v-1.5h1.12v1.53
				c0.84,0.12,1.51,0.45,1.98,0.99c0.48,0.54,0.71,1.25,0.7,2.11l-0.01,0.04h-2c0-0.51-0.12-0.9-0.35-1.18
				c-0.23-0.27-0.56-0.41-0.97-0.41c-0.44,0-0.76,0.12-0.96,0.34c-0.2,0.23-0.29,0.54-0.29,0.93c0,0.36,0.1,0.65,0.31,0.87
				c0.21,0.21,0.61,0.45,1.2,0.7c1.04,0.34,1.82,0.75,2.34,1.24c0.52,0.49,0.77,1.16,0.77,2.02c0,0.82-0.25,1.47-0.76,1.96
				c-0.51,0.49-1.2,0.78-2.08,0.87v1.39h-1.12v-1.39c-0.9-0.08-1.64-0.38-2.22-0.9c-0.58-0.52-0.86-1.28-0.84-2.28l0.02-0.04h2
				c0,0.6,0.15,1.03,0.44,1.28c0.29,0.26,0.67,0.38,1.14,0.38c0.46,0,0.8-0.11,1.03-0.34C67.85,258.16,67.97,257.85,67.97,257.46z"
				/>
		</g>
	</g>
	<g>
		<g>
			<g>
				<rect x="52.62" y="252.22" class="st6" width="4.35" height="1.28"/>
			</g>
			<g>
				<polygon class="st6" points="60.58,252.86 55.49,254.94 56.7,252.86 55.49,250.79 				"/>
			</g>
		</g>
		<g>
			<g>
				<rect x="52.62" y="257.02" class="st6" width="4.35" height="1.28"/>
			</g>
			<g>
				<polygon class="st6" points="60.58,257.66 55.49,259.73 56.7,257.66 55.49,255.58 				"/>
			</g>
		</g>
	</g>
	<polygon class="st1" points="50.82,257.04 42.43,249.34 42.43,260.56 45.32,257.68 47.42,261.72 48.94,260.93 46.92,257.04 	"/>
</g>
<g>
	<g>
		<path class="st0" d="M373.35,81.77v21.19h31.44V81.77H373.35z M403.38,101.5h-28.61V83.23h28.61V101.5z"/>
		<rect x="374.77" y="83.23" class="st8" width="28.61" height="2.98"/>
		<rect x="396.99" y="84.06" class="st3" width="1.31" height="1.31"/>
		<rect x="398.93" y="84.06" class="st9" width="1.31" height="1.31"/>
		<rect x="400.88" y="84.06" class="st10" width="1.31" height="1.31"/>
		<rect x="374.77" y="86.21" class="st9" width="14.3" height="15.29"/>
		<rect x="389.07" y="86.21" class="st12" width="14.3" height="15.29"/>
		<g>
			<path class="st6" d="M389.07,97.21c-0.13,0-0.24-0.11-0.24-0.24v-2.24c0-0.13,0.11-0.24,0.24-0.24c0.13,0,0.24,0.11,0.24,0.24
				v2.24C389.31,97.1,389.2,97.21,389.07,97.21z"/>
		</g>
		<g>
			<path class="st6" d="M382.82,93.33c-0.06,0-0.12-0.02-0.16-0.06c-0.1-0.09-0.1-0.24-0.01-0.33l2.76-2.99
				c0.09-0.1,0.24-0.1,0.33-0.01c0.1,0.09,0.1,0.24,0.01,0.33L383,93.25C382.95,93.31,382.89,93.33,382.82,93.33z"/>
		</g>
		<g>
			<path class="st6" d="M381.58,97.21c-0.13,0-0.24-0.11-0.24-0.24v-1.75c0-0.13,0.11-0.24,0.24-0.24c0.13,0,0.24,0.11,0.24,0.24
				v1.75C381.81,97.1,381.71,97.21,381.58,97.21z"/>
		</g>
		<g>
			<path class="st6" d="M395.32,93.33c-0.06,0-0.13-0.03-0.17-0.08l-2.76-2.99c-0.09-0.1-0.08-0.25,0.01-0.33
				c0.1-0.09,0.25-0.08,0.33,0.01l2.76,2.99c0.09,0.1,0.08,0.25-0.01,0.33C395.44,93.31,395.38,93.33,395.32,93.33z"/>
		</g>
		<g>
			<path class="st6" d="M396.57,97.21c-0.13,0-0.24-0.11-0.24-0.24v-1.75c0-0.13,0.11-0.24,0.24-0.24c0.13,0,0.24,0.11,0.24,0.24
				v1.75C396.8,97.1,396.7,97.21,396.57,97.21z"/>
		</g>
		<g>
			<path class="st6" d="M386.58,94.32h-2.52c-0.13,0-0.24-0.11-0.24-0.24c0-0.13,0.11-0.24,0.24-0.24h2.52
				c0.13,0,0.24,0.1,0.24,0.24C386.82,94.21,386.71,94.32,386.58,94.32z"/>
		</g>
		<g>
			<path class="st6" d="M389.07,93.18c-0.13,0-0.24-0.11-0.24-0.24V90.7c0-0.13,0.11-0.24,0.24-0.24c0.13,0,0.24,0.11,0.24,0.24
				v2.24C389.31,93.07,389.2,93.18,389.07,93.18z"/>
		</g>
		<g>
			<path class="st7" d="M393.45,89.19c0-0.83-1.96-1.51-4.38-1.51v3.02C391.49,90.7,393.45,90.03,393.45,89.19z"/>
			<path class="st6" d="M389.07,87.68c-2.42,0-4.38,0.68-4.38,1.51c0,0.83,1.96,1.51,4.38,1.51l0,0V87.68L389.07,87.68z"/>
		</g>
		<g>
			<path class="st7" d="M384.07,94.08c0-0.63-1.11-1.14-2.49-1.14v2.29C382.95,95.23,384.07,94.71,384.07,94.08z"/>
			<path class="st6" d="M381.58,92.94c-1.37,0-2.49,0.51-2.49,1.14c0,0.63,1.11,1.14,2.49,1.14l0,0V92.94L381.58,92.94z"/>
		</g>
		<g>
			<path class="st6" d="M386.58,98.35h-2.52c-0.13,0-0.24-0.11-0.24-0.24c0-0.13,0.11-0.24,0.24-0.24h2.52
				c0.13,0,0.24,0.11,0.24,0.24C386.82,98.24,386.71,98.35,386.58,98.35z"/>
		</g>
		<g>
			<path class="st6" d="M394.08,94.32h-2.52c-0.13,0-0.24-0.11-0.24-0.24c0-0.13,0.11-0.24,0.24-0.24h2.52
				c0.13,0,0.24,0.1,0.24,0.24C394.31,94.21,394.21,94.32,394.08,94.32z"/>
		</g>
		<g>
			<path class="st6" d="M394.08,98.35h-2.52c-0.13,0-0.24-0.11-0.24-0.24c0-0.13,0.11-0.24,0.24-0.24h2.52
				c0.13,0,0.24,0.11,0.24,0.24C394.31,98.24,394.21,98.35,394.08,98.35z"/>
		</g>
		<g>
			<path class="st7" d="M391.56,94.08c0-0.63-1.11-1.14-2.49-1.14v2.29C390.45,95.23,391.56,94.71,391.56,94.08z"/>
			<path class="st6" d="M389.07,92.94c-1.37,0-2.49,0.51-2.49,1.14c0,0.63,1.11,1.14,2.49,1.14l0,0V92.94L389.07,92.94z"/>
		</g>
		<g>
			<path class="st7" d="M399.06,94.08c0-0.63-1.11-1.14-2.49-1.14v2.29C397.94,95.23,399.06,94.71,399.06,94.08z"/>
			<path class="st6" d="M396.57,92.94c-1.37,0-2.49,0.51-2.49,1.14c0,0.63,1.11,1.14,2.49,1.14l0,0V92.94L396.57,92.94z"/>
		</g>
		<g>
			<path class="st7" d="M384.07,98.11c0-0.63-1.11-1.14-2.49-1.14v2.29C382.95,99.26,384.07,98.75,384.07,98.11z"/>
			<path class="st6" d="M381.58,96.97c-1.37,0-2.49,0.51-2.49,1.14c0,0.63,1.11,1.14,2.49,1.14l0,0V96.97L381.58,96.97z"/>
		</g>
		<g>
			<path class="st7" d="M391.56,98.11c0-0.63-1.11-1.14-2.49-1.14v2.29C390.45,99.26,391.56,98.75,391.56,98.11z"/>
			<path class="st6" d="M389.07,96.97c-1.37,0-2.49,0.51-2.49,1.14c0,0.63,1.11,1.14,2.49,1.14l0,0V96.97L389.07,96.97z"/>
		</g>
		<g>
			<path class="st7" d="M399.06,98.11c0-0.63-1.11-1.14-2.49-1.14v2.29C397.94,99.26,399.06,98.75,399.06,98.11z"/>
			<path class="st6" d="M396.57,96.97c-1.37,0-2.49,0.51-2.49,1.14c0,0.63,1.11,1.14,2.49,1.14l0,0V96.97L396.57,96.97z"/>
		</g>
	</g>
</g>
<g>
	<g>
		<path class="st0" d="M173.49,324.12c-2,1.45-4.36,2.21-6.84,2.21c-6.45,0-11.71-5.25-11.71-11.71c0-6.46,5.25-11.71,11.71-11.71
			c6.46,0,11.71,5.25,11.71,11.71c0,2.45-0.75,4.79-2.16,6.78l2.48,7.13L173.49,324.12z M166.64,304.56
			c-5.55,0-10.06,4.51-10.06,10.06c0,5.55,4.51,10.06,10.06,10.06c2.2,0,4.28-0.7,6.03-2.01l0.88-0.66l1.57,1.34l-0.77-2.22
			l0.42-0.58c1.26-1.73,1.93-3.78,1.93-5.92C176.7,309.07,172.19,304.56,166.64,304.56z"/>
		<g>
			<path class="st3" d="M147.83,307.67c-3.53,0-6.39,2.86-6.39,6.39v1.48c0,3.34,2.56,6.07,5.82,6.36l-3.98,7.49l10.81-7.46h2.19
				v-14.26H147.83z"/>
			<path class="st13" d="M165.6,307.67h-9.33v14.26h9.33c3.53,0,6.39-2.86,6.39-6.39v-1.48
				C171.99,310.53,169.13,307.67,165.6,307.67z"/>
		</g>
		<g>
			<path class="st6" d="M151.24,314.82c0,0.62-0.5,1.13-1.13,1.13c-0.62,0-1.13-0.5-1.13-1.13c0-0.62,0.5-1.13,1.13-1.13
				C150.73,313.69,151.24,314.2,151.24,314.82z"/>
			<path class="st6" d="M157.84,314.82c0,0.62-0.5,1.13-1.13,1.13c-0.62,0-1.13-0.5-1.13-1.13c0-0.62,0.51-1.13,1.13-1.13
				C157.34,313.69,157.84,314.2,157.84,314.82z"/>
			<path class="st6" d="M164.45,314.82c0,0.62-0.5,1.13-1.13,1.13c-0.62,0-1.13-0.5-1.13-1.13c0-0.62,0.5-1.13,1.13-1.13
				C163.95,313.69,164.45,314.2,164.45,314.82z"/>
		</g>
	</g>
</g>
<g>
	<g>
		<rect x="164.81" y="169.97" width="136.34" height="87.6"/>
		<polygon class="st15" points="260.95,285.51 209.22,285.51 223.28,266.69 246.89,266.69 		"/>
		<path class="st16" d="M291.15,275.81H174.81c-5.52,0-10-4.08-10-9.12v-9.12h136.34c0,0,0,4.08,0,9.12
			C301.15,271.72,296.67,275.81,291.15,275.81z"/>
		<rect x="207.32" y="285.51" width="55.54" height="5.92"/>
		<g>
			<rect x="168.8" y="173.97" class="st2" width="66.28" height="79.6"/>
			<rect x="235.09" y="173.97" class="st1" width="62.06" height="79.6"/>
		</g>
	</g>
	<g>
		<path class="st19" d="M267.21,192.93c0,0-13-1.63-16.58,5.85c-3.58,7.48-5.2,21.14-8.78,21.79c-3.58,0.65,25.36,5.85,34.79-14.96
			C286.07,184.8,267.21,192.93,267.21,192.93z"/>
		<path class="st19" d="M281.2,181.98c0,0,6.72-5.31,17.02-11.7c10.17-6.32,22.98-11.71,22.98-11.71s-6.44,10.68-15.18,19.29
			c-7.7,7.59-15.39,15.07-15.39,15.07L281.2,181.98z"/>
		<path class="st20" d="M309.6,165.73c0,0-17.23,8.34-28.62,18.75c-11.38,10.41,3.04,1.3,3.04,1.3S298.43,172.34,309.6,165.73z"/>
		
			<rect x="269.97" y="184.99" transform="matrix(0.7688 -0.6395 0.6395 0.7688 -58.8128 223.1447)" class="st21" width="18.46" height="15.84"/>
		
			<rect x="271.39" y="188.92" transform="matrix(0.7688 -0.6395 0.6395 0.7688 -62.4219 221.0293)" class="st4" width="6.15" height="15.84"/>
		<polygon class="st6" points="280.98,182.63 273.18,189.03 275.02,191.2 282.61,184.7 		"/>
		<path class="st22" d="M265.37,194.77c0,0-8.67-1.41-11.49,3.69C251.06,203.56,258.65,200.74,265.37,194.77z"/>
	</g>
</g>
<g>
	<g>
		<g>
			<path class="st12" d="M73.6,340.74h3.22v-1.19h-3.46c-0.32-1.8-0.5-3.78-0.53-5.89h4v-1.2h-4c0.03-1.93,0.18-3.76,0.46-5.44h3.54
				v-1.2H73.5c0.87-4.15,2.28-6.01,3.32-6.01v-1.19c-7.96,0-14.44,6.48-14.44,14.44c0,7.96,6.48,14.44,14.44,14.44v-1.19
				C75.84,346.3,74.47,344.58,73.6,340.74z M74.35,320.25c-0.86,1.25-1.58,3.19-2.06,5.57h-3.58
				C70.03,323.07,72.05,321.09,74.35,320.25z M71.63,333.66c0.03,2.09,0.2,4.07,0.52,5.89h-3.76c-0.74-1.8-1.17-3.83-1.24-5.89
				H71.63z M67.15,332.46c0.06-1.91,0.42-3.74,1.06-5.44h3.87c-0.27,1.7-0.42,3.53-0.45,5.44H67.15z M70.23,321.58
				c-1.13,1.15-2.09,2.59-2.82,4.25h-1.68C66.87,324.08,68.43,322.62,70.23,321.58z M65.04,327.02h1.91
				c-0.6,1.71-0.93,3.54-0.99,5.44h-2.36C63.68,330.54,64.16,328.72,65.04,327.02z M63.59,333.66h2.36
				c0.06,2.05,0.46,4.07,1.15,5.89h-1.82C64.27,337.75,63.69,335.72,63.59,333.66z M66.04,340.74h1.58c0.7,1.47,1.59,2.76,2.62,3.81
				C68.59,343.6,67.16,342.31,66.04,340.74z M68.94,340.74h3.44c0.48,2.2,1.15,3.95,1.96,5.12
				C72.18,345.07,70.25,343.25,68.94,340.74z"/>
			<path class="st12" d="M76.82,318.62L76.82,318.62v1.19l0,0c1.04,0,2.45,1.86,3.32,6.01h-3.32v1.2h3.54
				c0.28,1.68,0.43,3.51,0.46,5.44h-4v1.2h4c-0.03,2.11-0.21,4.09-0.53,5.89h-3.47v1.19h3.22c-0.88,3.84-2.24,5.56-3.22,5.56l0,0
				v1.19l0,0c7.96,0,14.44-6.48,14.44-14.44C91.26,325.1,84.78,318.62,76.82,318.62z M90.05,332.46h-2.36
				c-0.06-1.9-0.39-3.73-0.99-5.44h1.91C89.48,328.72,89.96,330.54,90.05,332.46z M87.91,325.82h-1.68
				c-0.72-1.66-1.68-3.1-2.82-4.25C85.21,322.62,86.77,324.08,87.91,325.82z M82.01,332.46c-0.03-1.91-0.18-3.74-0.45-5.44h3.87
				c0.64,1.7,1,3.53,1.06,5.44H82.01z M86.49,333.66c-0.07,2.07-0.49,4.09-1.24,5.89h-3.76c0.32-1.82,0.49-3.8,0.52-5.89H86.49z
				 M79.29,320.25c2.3,0.83,4.32,2.82,5.64,5.57h-3.58C80.87,323.44,80.15,321.5,79.29,320.25z M79.29,345.86
				c0.81-1.17,1.48-2.92,1.96-5.12h3.44C83.38,343.25,81.46,345.07,79.29,345.86z M83.4,344.55c1.04-1.05,1.93-2.34,2.62-3.81h1.58
				C86.48,342.31,85.05,343.6,83.4,344.55z M88.36,339.55h-1.82c0.69-1.82,1.08-3.84,1.15-5.89h2.36
				C89.95,335.72,89.37,337.75,88.36,339.55z"/>
		</g>
	</g>
	<g>
		<path class="st3" d="M77.89,324.28c1.89,15.49,7.88,25.49,16.55,31.92v-37.94C89.81,321.73,84.19,323.56,77.89,324.28z"/>
		<path class="st13" d="M94.44,318.26v37.94c8.67-6.43,14.66-16.43,16.54-31.92C104.69,323.56,99.07,321.73,94.44,318.26z"/>
		<path class="st2" d="M94.44,322.09v1.09v8.8v20.39c6.92-5.13,11.7-13.11,13.2-25.48C102.62,326.32,98.13,324.86,94.44,322.09z"/>
		<path class="st1" d="M81.23,326.89c1.51,12.36,6.29,20.35,13.21,25.48v-20.39v-8.8v-1.09C90.75,324.86,86.26,326.32,81.23,326.89z
			"/>
	</g>
</g>
<g>
	<g>
		<polygon class="st1" points="350.74,215.22 350.03,203.67 359.3,199.32 368.55,203.62 367.55,215.22 		"/>
		<polygon class="st23" points="364.56,228.05 359.28,236.52 354.01,228.05 354.01,221.53 364.56,221.53 		"/>
		<polygon class="st24" points="367.55,215.22 365.71,211.41 357.5,214.43 353.1,212.39 350.74,215.22 353.96,222.71 359.15,225.01 
			364.53,223.04 		"/>
		<polygon class="st2" points="365.23,227.45 359.3,233.06 353.37,227.45 342.45,231.5 344.6,238.23 374,238.23 376.15,231.5 		"/>
	</g>
	<g>
		<g>
			<path class="st9" d="M343.66,169.72c-6.43,0-11.64,5.21-11.64,11.63v2.69c0,6.07,4.66,11.05,10.59,11.58l-7.26,13.64l19.68-13.59
				h3.98v-25.96H343.66z"/>
			<path class="st12" d="M376.02,169.72h-16.99v25.96h16.99c6.42,0,11.63-5.21,11.63-11.63v-2.69
				C387.65,174.92,382.45,169.72,376.02,169.72z"/>
		</g>
		<g>
			<path class="st6" d="M349.16,182.73c0,1.13-0.92,2.06-2.05,2.06c-1.13,0-2.05-0.92-2.05-2.06c0-1.13,0.92-2.05,2.05-2.05
				C348.24,180.68,349.16,181.6,349.16,182.73z"/>
			<path class="st6" d="M361.2,182.73c0,1.13-0.92,2.06-2.05,2.06c-1.13,0-2.05-0.92-2.05-2.06c0-1.13,0.92-2.05,2.05-2.05
				C360.28,180.68,361.2,181.6,361.2,182.73z"/>
			<path class="st6" d="M373.24,182.73c0,1.13-0.92,2.06-2.06,2.06c-1.13,0-2.05-0.92-2.05-2.06c0-1.13,0.92-2.05,2.05-2.05
				C372.32,180.68,373.24,181.6,373.24,182.73z"/>
		</g>
	</g>
</g>
<g>
	<g>
		<g>
			<g>
				<path class="st12" d="M332.34,310.69h4.55V309H332c-0.46-2.55-0.71-5.34-0.75-8.32h5.65v-1.69h-5.65
					c0.04-2.72,0.25-5.31,0.64-7.69h5v-1.69h-4.69c1.22-5.86,3.22-8.49,4.69-8.49v-1.69c-11.25,0-20.39,9.15-20.39,20.4
					c0,11.25,9.15,20.39,20.39,20.39v-1.69C335.5,318.54,333.58,316.11,332.34,310.69z M333.41,281.75
					c-1.22,1.77-2.23,4.5-2.91,7.87h-5.05C327.31,285.73,330.15,282.93,333.41,281.75z M329.56,300.68
					c0.04,2.95,0.29,5.75,0.74,8.32h-5.32c-1.05-2.54-1.65-5.41-1.75-8.32H329.56z M323.23,298.99c0.09-2.7,0.59-5.28,1.49-7.69
					h5.46c-0.38,2.4-0.59,4.98-0.63,7.69H323.23z M327.58,283.62c-1.6,1.62-2.95,3.66-3.98,6h-2.38
					C322.84,287.15,325.04,285.09,327.58,283.62z M320.25,291.31h2.69c-0.84,2.42-1.31,5-1.39,7.69h-3.34
					C318.33,296.29,319.01,293.7,320.25,291.31z M318.21,300.68h3.34c0.09,2.9,0.65,5.75,1.62,8.32h-2.58
					C319.16,306.47,318.34,303.6,318.21,300.68z M321.66,310.69h2.23c0.99,2.08,2.24,3.9,3.71,5.38
					C325.26,314.73,323.24,312.9,321.66,310.69z M325.76,310.69h4.86c0.68,3.11,1.63,5.58,2.77,7.23
					C330.34,316.81,327.62,314.23,325.76,310.69z"/>
				<path class="st12" d="M336.89,279.44L336.89,279.44v1.69l0,0c1.47,0,3.46,2.63,4.69,8.49h-4.69v1.69h5
					c0.39,2.37,0.61,4.96,0.64,7.69h-5.64v1.69h5.64c-0.04,2.98-0.29,5.78-0.75,8.32h-4.89v1.69h4.55
					c-1.24,5.42-3.16,7.86-4.55,7.86l0,0v1.69l0,0c11.24,0,20.39-9.15,20.39-20.39C357.29,288.59,348.14,279.44,336.89,279.44z
					 M355.57,298.99h-3.34c-0.08-2.68-0.55-5.26-1.39-7.69h2.69C354.77,293.7,355.45,296.29,355.57,298.99z M352.56,289.62h-2.38
					c-1.02-2.34-2.38-4.37-3.98-6C348.75,285.09,350.94,287.15,352.56,289.62z M344.22,298.99c-0.04-2.7-0.25-5.28-0.63-7.69h5.46
					c0.9,2.4,1.41,4.99,1.49,7.69H344.22z M350.55,300.68c-0.1,2.92-0.7,5.78-1.75,8.32h-5.32c0.45-2.57,0.69-5.37,0.74-8.32H350.55
					z M340.38,281.75c3.25,1.18,6.1,3.98,7.96,7.87h-5.05C342.61,286.25,341.6,283.52,340.38,281.75z M340.38,317.92
					c1.15-1.65,2.1-4.12,2.77-7.23h4.86C346.16,314.23,343.44,316.81,340.38,317.92z M346.19,316.06c1.46-1.48,2.72-3.3,3.71-5.38
					h2.23C350.54,312.9,348.52,314.73,346.19,316.06z M353.19,309h-2.58c0.97-2.57,1.53-5.43,1.62-8.32h3.34
					C355.44,303.6,354.62,306.46,353.19,309z"/>
			</g>
		</g>
		<g>
			<path class="st2" d="M366.51,292.82h-4.24l-0.4-1.21c-0.41-1.23-0.91-2.45-1.5-3.61l-0.58-1.14l3-3
				c0.45-0.45,0.69-1.04,0.69-1.68c0-0.63-0.25-1.23-0.69-1.67l-6.57-6.58c-0.45-0.45-1.04-0.69-1.68-0.69
				c-0.63,0-1.23,0.25-1.67,0.69l-3,3l-1.14-0.58c-1.17-0.59-2.38-1.1-3.61-1.5l-1.21-0.4v-4.24c0-1.31-1.06-2.37-2.37-2.37h-4.65
				v10.59c11.79,0,21.39,9.6,21.39,21.39c0,11.8-9.6,21.39-21.39,21.39v10.59h4.65c1.3,0,2.37-1.06,2.37-2.37v-4.24l1.21-0.4
				c1.24-0.41,2.45-0.91,3.6-1.5l1.14-0.58l3.01,3.01c0.45,0.45,1.04,0.69,1.67,0.69c0.63,0,1.23-0.25,1.67-0.69l6.57-6.57
				c0.92-0.93,0.92-2.43,0-3.35l-3-3l0.58-1.14c0.59-1.16,1.09-2.37,1.5-3.61l0.4-1.21h4.24c1.31,0,2.37-1.06,2.37-2.37v-9.3
				C368.87,293.88,367.81,292.82,366.51,292.82z"/>
			<path class="st1" d="M315.5,299.84c0-11.79,9.6-21.39,21.39-21.39v-10.59h-4.65c-1.3,0-2.37,1.06-2.37,2.37v4.24l-1.21,0.4
				c-1.22,0.4-2.43,0.91-3.61,1.5l-1.14,0.58l-3-3c-0.45-0.45-1.04-0.69-1.67-0.69c-0.63,0-1.23,0.25-1.67,0.69l-6.58,6.58
				c-0.92,0.92-0.92,2.42,0,3.35l3,3l-0.58,1.14c-0.59,1.17-1.09,2.38-1.5,3.61l-0.4,1.21h-4.24c-1.31,0-2.37,1.06-2.37,2.37v9.3
				c0,1.3,1.06,2.37,2.37,2.37h4.24l0.4,1.21c0.4,1.23,0.91,2.44,1.5,3.61l0.58,1.14l-3,3c-0.92,0.92-0.92,2.43,0,3.35l6.57,6.57
				c0.45,0.45,1.04,0.69,1.68,0.69c0.63,0,1.23-0.24,1.67-0.69l3-3.01l1.14,0.58c1.16,0.59,2.37,1.09,3.6,1.5l1.21,0.4v4.24
				c0,1.31,1.06,2.37,2.37,2.37h4.65v-10.59C325.1,321.23,315.5,311.63,315.5,299.84z"/>
		</g>
	</g>
</g>
<g>
	<path class="st0" d="M104.23,227.27v60.62h89.94v-60.62H104.23z M190.11,283.71h-81.82v-52.26h81.82V283.71z"/>
	<rect x="108.29" y="231.45" class="st8" width="81.82" height="8.52"/>
	<rect x="171.84" y="233.82" class="st3" width="3.76" height="3.76"/>
	<rect x="177.4" y="233.82" class="st9" width="3.76" height="3.76"/>
	<rect x="182.97" y="233.82" class="st10" width="3.76" height="3.76"/>
	<rect x="108.29" y="239.96" class="st2" width="40.91" height="43.74"/>
	<rect x="149.2" y="239.96" class="st1" width="40.91" height="43.74"/>
	<g>
		<path class="st6" d="M114.1,279.85c-0.37,0-0.73-0.15-1-0.44c-0.51-0.55-0.47-1.41,0.08-1.91l25.81-23.77l8.02,17.21l9.52-13.92
			l6.81,11.38l21.1-24c0.49-0.56,1.35-0.62,1.91-0.12c0.56,0.49,0.62,1.35,0.12,1.91l-23.54,26.78l-6.54-10.94l-9.81,14.34
			l-8.47-18.16l-23.09,21.26C114.76,279.74,114.43,279.85,114.1,279.85z"/>
	</g>
	<rect x="111.84" y="243.16" class="st6" width="21.27" height="2.15"/>
	<rect x="111.84" y="247.93" class="st6" width="13.42" height="2.15"/>
	<rect x="108.29" y="242.28" class="st6" width="0.92" height="1.95"/>
	<rect x="108.29" y="245.31" class="st6" width="0.92" height="1.95"/>
	<rect x="108.29" y="248.33" class="st6" width="0.92" height="1.95"/>
	<rect x="108.29" y="251.36" class="st6" width="0.92" height="1.95"/>
	<rect x="108.29" y="254.38" class="st6" width="0.92" height="1.95"/>
	<rect x="108.29" y="257.41" class="st6" width="0.92" height="1.95"/>
	<rect x="108.29" y="260.43" class="st6" width="0.92" height="1.95"/>
	<rect x="108.29" y="263.45" class="st6" width="0.92" height="1.95"/>
	<rect x="108.29" y="266.48" class="st6" width="0.92" height="1.95"/>
	<rect x="108.29" y="269.5" class="st6" width="0.92" height="1.95"/>
	<rect x="108.29" y="272.53" class="st6" width="0.92" height="1.95"/>
	<rect x="108.29" y="275.55" class="st6" width="0.92" height="1.95"/>
	<rect x="108.29" y="278.58" class="st6" width="0.92" height="1.95"/>
	<rect x="111.17" y="282.79" class="st6" width="1.95" height="0.92"/>
	<rect x="114.43" y="282.79" class="st6" width="1.95" height="0.92"/>
	<rect x="117.68" y="282.79" class="st6" width="1.95" height="0.92"/>
	<rect x="120.93" y="282.79" class="st6" width="1.95" height="0.92"/>
	<rect x="124.19" y="282.79" class="st6" width="1.95" height="0.92"/>
	<rect x="127.44" y="282.79" class="st6" width="1.95" height="0.92"/>
	<rect x="130.7" y="282.79" class="st6" width="1.95" height="0.92"/>
	<rect x="133.95" y="282.79" class="st6" width="1.95" height="0.92"/>
	<rect x="137.21" y="282.79" class="st6" width="1.95" height="0.92"/>
	<rect x="140.46" y="282.79" class="st6" width="1.95" height="0.92"/>
	<rect x="143.71" y="282.79" class="st6" width="1.95" height="0.92"/>
	<rect x="146.97" y="282.79" class="st6" width="1.95" height="0.92"/>
	<rect x="150.22" y="282.79" class="st6" width="1.95" height="0.92"/>
	<rect x="153.48" y="282.79" class="st6" width="1.95" height="0.92"/>
	<rect x="156.73" y="282.79" class="st6" width="1.95" height="0.92"/>
	<rect x="159.99" y="282.79" class="st6" width="1.95" height="0.92"/>
	<rect x="163.24" y="282.79" class="st6" width="1.95" height="0.92"/>
	<rect x="166.49" y="282.79" class="st6" width="1.95" height="0.92"/>
	<rect x="169.75" y="282.79" class="st6" width="1.95" height="0.92"/>
	<rect x="173" y="282.79" class="st6" width="1.95" height="0.92"/>
	<rect x="176.26" y="282.79" class="st6" width="1.95" height="0.92"/>
	<rect x="179.51" y="282.79" class="st6" width="1.95" height="0.92"/>
	<rect x="182.77" y="282.79" class="st6" width="1.95" height="0.92"/>
	<rect x="186.02" y="282.79" class="st6" width="1.95" height="0.92"/>
</g>
<g>
	<g>
		<g>
			<rect x="188.08" y="45.89" width="37.2" height="23.9"/>
			<polygon class="st15" points="214.32,77.42 200.2,77.42 204.04,72.28 210.48,72.28 			"/>
			<path class="st16" d="M222.56,74.77h-31.75c-1.51,0-2.73-1.11-2.73-2.49v-2.49h37.2c0,0,0,1.11,0,2.49
				C225.29,73.65,224.06,74.77,222.56,74.77z"/>
			<rect x="199.68" y="77.42" width="15.15" height="1.62"/>
			<g>
				<rect x="189.17" y="46.98" class="st3" width="18.09" height="21.72"/>
				<rect x="207.26" y="46.98" class="st13" width="16.94" height="21.72"/>
			</g>
			<rect x="190.35" y="48.59" class="st25" width="15.72" height="6.33"/>
			<rect x="208.48" y="48.59" class="st25" width="14.32" height="6.33"/>
			<rect x="190.35" y="56.31" class="st25" width="32.45" height="2.39"/>
			<rect x="190.35" y="59.89" class="st25" width="32.45" height="2.39"/>
			<rect x="190.35" y="63.47" class="st25" width="32.45" height="2.39"/>
		</g>
	</g>
	<g>
		<g>
			<path class="st0" d="M230.32,51.98h-5.33v27.05h5.33c1.08,0,1.95-0.87,1.95-1.95V53.93C232.27,52.85,231.4,51.98,230.32,51.98z"
				/>
			<path class="st8" d="M219.66,51.98c-1.08,0-1.95,0.87-1.95,1.95v23.15c0,1.08,0.87,1.95,1.95,1.95h5.33V51.98H219.66z"/>
		</g>
		<rect x="222.03" y="53.06" class="st6" width="5.92" height="0.49"/>
		<g>
			<path class="st6" d="M224.99,78.27c-0.89,0-1.61-0.72-1.61-1.61c0-0.89,0.72-1.61,1.61-1.61c0.89,0,1.61,0.72,1.61,1.61
				C226.6,77.55,225.87,78.27,224.99,78.27z M224.99,75.41c-0.69,0-1.26,0.56-1.26,1.26c0,0.69,0.56,1.26,1.26,1.26
				c0.69,0,1.26-0.56,1.26-1.26C226.25,75.97,225.68,75.41,224.99,75.41z"/>
		</g>
		<g>
			<rect x="218.41" y="54.92" class="st3" width="6.65" height="19.17"/>
			<rect x="225.06" y="54.92" class="st13" width="6.5" height="19.17"/>
		</g>
		<rect x="219.52" y="56.07" class="st25" width="10.84" height="3.41"/>
		<rect x="219.52" y="60.06" class="st25" width="10.84" height="3.41"/>
		<rect x="219.52" y="64.04" class="st25" width="10.84" height="3.41"/>
		<rect x="219.52" y="68.02" class="st25" width="10.84" height="3.41"/>
	</g>
</g>
</svg>
